<svg width="100%" height="auto" viewBox="0 0 246 210" fill="none" xmlns="http://www.w3.org/2000/svg">
<path d="M184.643 0H75.7417C48.1275 0 25.7417 22.3858 25.7417 50V159.891C25.7417 187.505 48.1275 209.891 75.7417 209.891H184.643C212.257 209.891 234.643 187.505 234.643 159.891V50C234.643 22.3858 212.257 0 184.643 0Z" fill="url(#paint0_linear_209_205)"/>
<path d="M168.564 73.5884H144.398V71.1369C144.398 66.0484 147.429 61.6744 151.744 59.7874C150.375 58.4886 149.513 56.6411 149.513 54.5884C149.513 50.6644 152.637 47.4747 156.481 47.4747C160.324 47.4747 163.448 50.6644 163.448 54.5884C163.448 56.6411 162.586 58.4886 161.217 59.7874C165.533 61.6704 168.564 66.0484 168.564 71.1369V73.5884ZM184.228 102.09C185.596 100.792 186.459 98.9441 186.459 96.8913C186.459 92.9713 183.334 89.7816 179.491 89.7816C175.648 89.7816 172.523 92.9713 172.523 96.8913C172.523 98.9441 173.386 100.792 174.754 102.09C170.439 103.973 167.408 108.351 167.408 113.44V115.891H191.574V113.44C191.574 108.351 188.543 103.977 184.228 102.09ZM113.21 59.7914C114.578 58.4926 115.441 56.6451 115.441 54.5923C115.441 50.6684 112.316 47.4787 108.473 47.4787C104.63 47.4787 101.505 50.6684 101.505 54.5923C101.505 56.6451 102.368 58.4926 103.736 59.7914C99.4213 61.6744 96.3898 66.0523 96.3898 71.1408V73.5923H120.556V71.1408C120.556 66.0523 117.525 61.6783 113.21 59.7914ZM245.529 186.838C245.552 191.931 241.183 195.543 236.527 195.922C230.867 196.411 226.9 195.16 221.981 193.877C217.778 192.689 213.827 191.216 209.925 189.681C202.188 186.641 194.729 183.12 187.29 179.48C183.4 177.482 179.507 175.438 175.617 173.389C163.174 181.612 148.373 186.416 132.477 186.416C88.5561 186.416 52.8208 149.932 52.8208 105.091C52.8208 104.147 52.8402 103.208 52.8711 102.272C41.5651 95.1346 30.4216 87.713 19.9314 79.3322C12.9715 73.3831 -4.579 60.3874 1.12038 49.7209C7.32243 39.0228 29.8725 48.2761 38.4989 51.7184C46.0891 54.9673 53.482 58.8281 59.9702 63.8811C48.7532 59.6729 36.9175 57.2293 25.1127 55.9029C21.366 55.5713 17.7545 55.2713 14.2823 55.6226C14.5607 55.8911 14.8507 56.1595 15.1523 56.4201C27.4443 66.4629 42.1142 74.0779 56.1771 81.7955C66.006 48.2721 96.4826 23.7612 132.477 23.7612C176.398 23.7612 212.133 60.2453 212.133 105.087C212.133 126.349 204.083 145.712 190.956 160.215C202.586 167.4 214.515 174.703 226.648 180.254C228.481 181.102 230.751 181.983 232.804 182.587C231.323 179.342 229.212 176.318 227.012 173.183C219.855 163.504 211.75 154.365 202.47 146.679C212.988 153.268 235.859 173.819 238.426 185.879C238.604 194.256 207.582 177.739 203.112 175.378C197.707 172.445 191.802 169.117 185.647 165.588C185.647 165.588 185.612 165.568 185.596 165.561C183.466 164.337 181.308 163.093 179.12 161.826C179.089 161.806 179.058 161.791 179.027 161.771C158.812 150.05 136.61 136.66 119.272 126.732C102.623 116.922 80.7262 104.656 60.9717 93.1805C60.9717 93.1805 60.9562 93.1726 60.9485 93.1647C51.7459 87.8196 43.0074 82.6482 35.4868 77.9781C31.8213 75.6727 1.30211 56.3766 8.60614 52.3579C20.1016 48.4735 48.9349 57.9794 59.9779 63.889C49.542 57.628 37.8919 53.5896 26.1219 50.767C20.0513 49.642 13.7101 47.8182 7.52349 49.9894C1.67331 52.7053 6.39444 59.2663 9.306 62.2389C16.4554 69.7118 25.0702 75.4832 33.4801 81.2034C40.0804 85.6366 46.8276 89.7895 53.6174 93.8516C55.86 95.1938 58.1104 96.5242 60.3569 97.8506C65.2481 100.732 70.1471 103.594 75.0113 106.5C95.8562 118.757 137.948 143.197 158.921 155.241C164.427 158.356 169.91 161.53 175.416 164.676C177.678 165.967 179.947 167.254 182.221 168.529C188.547 172.078 194.923 175.544 201.434 178.781C210.544 183.238 219.804 187.853 229.749 190.312C239.547 192.835 244.272 188.721 238.48 179.468C233.987 172.422 228.121 166.662 222.074 161.104C216.007 155.672 209.569 150.599 202.474 146.687C214.619 151.266 245.641 172.84 245.533 186.85L245.529 186.838ZM123.421 119.27C142.658 130.529 163.68 143.11 182.638 155.048L182.77 144.247C179.367 143.162 176.893 139.917 176.893 136.091C176.893 135.511 176.951 134.943 177.059 134.394L138.188 111.316C136.692 112.749 134.685 113.633 132.473 113.633C127.856 113.633 124.102 109.8 124.102 105.087C124.102 104.419 124.187 103.772 124.326 103.144L85.2463 80.2757C83.746 81.7284 81.7238 82.6285 79.4927 82.6285C77.2617 82.6285 75.3284 81.7639 73.8359 80.3625L64.2428 86.1774C83.6184 96.5597 104.529 108.355 123.414 119.27H123.421ZM124.106 42.9626C124.106 42.2875 124.191 41.6322 124.338 41.0006L112.22 34.0567C100.864 37.428 90.6634 43.5587 82.354 51.6947L82.1839 65.997C85.486 67.1419 87.8717 70.3316 87.8717 74.0818C87.8717 74.6266 87.8175 75.1595 87.7209 75.6727L126.766 98.8533C127.694 97.969 128.811 97.29 130.053 96.9031L129.913 51.0868C126.549 49.9775 124.11 46.7523 124.11 42.9547L124.106 42.9626ZM140.848 42.9626C140.848 46.7602 138.408 49.9854 135.044 51.0947L134.905 96.911C136.15 97.2979 137.268 97.9729 138.192 98.8612L177.063 75.7833C176.955 75.2345 176.897 74.6661 176.897 74.0858C176.897 70.2605 179.371 67.0155 182.774 65.9299L182.604 51.6987C174.29 43.5626 164.09 37.4359 152.73 34.0646L140.62 41.0045C140.767 41.6362 140.852 42.2915 140.852 42.9705L140.848 42.9626ZM202.849 87.4801L190.994 80.2954C189.494 81.7402 187.479 82.6324 185.26 82.6324C183.041 82.6324 181.076 81.76 179.58 80.3467L140.616 103.148C140.759 103.772 140.84 104.419 140.84 105.091C140.84 105.762 140.751 106.445 140.601 107.084L179.321 130.075C180.837 128.516 182.936 127.549 185.256 127.549C187.576 127.549 189.49 128.441 190.99 129.886L202.838 122.705C204.191 117.06 204.929 111.166 204.929 105.091C204.929 99.0151 204.199 93.1292 202.845 87.4841L202.849 87.4801ZM187.46 153.236C193.256 146.343 197.834 138.353 200.846 129.609L193.399 134.125C193.546 134.757 193.631 135.412 193.631 136.091C193.631 139.988 191.064 143.272 187.565 144.299L187.456 153.236H187.46ZM188.833 136.087C188.833 134.078 187.232 132.444 185.264 132.444C183.296 132.444 181.695 134.078 181.695 136.087C181.695 138.097 183.296 139.731 185.264 139.731C187.232 139.731 188.833 138.097 188.833 136.087ZM188.833 74.0858C188.833 72.0764 187.232 70.4421 185.264 70.4421C183.296 70.4421 181.695 72.0764 181.695 74.0858C181.695 76.0951 183.296 77.7294 185.264 77.7294C187.232 77.7294 188.833 76.0951 188.833 74.0858ZM132.477 101.443C130.509 101.443 128.908 103.077 128.908 105.087C128.908 107.096 130.509 108.73 132.477 108.73C134.445 108.73 136.046 107.096 136.046 105.087C136.046 103.077 134.445 101.443 132.477 101.443ZM136.046 42.9626C136.046 40.9532 134.445 39.3189 132.477 39.3189C130.509 39.3189 128.908 40.9532 128.908 42.9626C128.908 44.9719 130.509 46.6062 132.477 46.6062C134.445 46.6062 136.046 44.9719 136.046 42.9626ZM79.4966 70.4421C77.5285 70.4421 75.9277 72.0764 75.9277 74.0858C75.9277 76.0951 77.5285 77.7294 79.4966 77.7294C81.4647 77.7294 83.0655 76.0951 83.0655 74.0858C83.0655 72.0764 81.4647 70.4421 79.4966 70.4421ZM187.46 56.9412L187.568 65.8747C191.064 66.9011 193.635 70.1894 193.635 74.0818C193.635 74.7608 193.55 75.4161 193.403 76.0477L200.839 80.5559C197.83 71.8119 193.256 63.8298 187.464 56.9372L187.46 56.9412ZM132.477 31.1117C127.903 31.1117 123.433 31.5499 119.095 32.375L126.743 36.7569C128.243 35.312 130.257 34.4199 132.477 34.4199C134.696 34.4199 136.711 35.312 138.211 36.7569L145.836 32.3868C141.502 31.5618 137.043 31.1117 132.473 31.1117H132.477ZM64.1152 80.5599L71.3883 76.1543C71.2259 75.4911 71.1293 74.8003 71.1293 74.0858C71.1293 70.1223 73.7933 66.7866 77.3854 65.8273L77.4898 56.953C71.7015 63.8416 67.1234 71.8238 64.1152 80.5638V80.5599ZM77.4898 153.232L77.3816 144.299C73.8861 143.272 71.3187 139.984 71.3187 136.091C71.3187 135.412 71.4038 134.757 71.5507 134.125L64.1152 129.617C67.1234 138.357 71.6976 146.343 77.4898 153.232ZM83.2588 136.087C83.2588 134.078 81.658 132.444 79.6899 132.444C77.7218 132.444 76.121 134.078 76.121 136.087C76.121 138.097 77.7218 139.731 79.6899 139.731C81.658 139.731 83.2588 138.097 83.2588 136.087ZM132.477 179.061C137.047 179.061 141.509 178.615 145.844 177.786L138.018 173.302C136.518 174.743 134.507 175.635 132.287 175.635C130.068 175.635 128.185 174.798 126.704 173.436L119.118 177.782C123.452 178.607 127.91 179.058 132.477 179.058V179.061ZM132.284 170.736C134.252 170.736 135.852 169.102 135.852 167.092C135.852 165.083 134.252 163.449 132.284 163.449C130.315 163.449 128.715 165.083 128.715 167.092C128.715 169.102 130.315 170.736 132.284 170.736ZM168.197 169.445C135.388 151.91 102.584 132.728 71.0597 113.566C67.398 111.3 63.7247 109.042 60.0591 106.768C60.179 112.244 60.875 117.573 62.1007 122.693L73.9557 129.878C75.456 128.433 77.4705 127.541 79.6899 127.541C84.3067 127.541 88.0611 131.374 88.0611 136.087C88.0611 139.913 85.5865 143.158 82.1839 144.243L82.354 158.474C90.6672 166.611 100.867 172.741 112.227 176.109L124.195 169.252C124.017 168.561 123.912 167.838 123.912 167.088C123.912 162.375 127.667 158.542 132.284 158.542C136.9 158.542 140.655 162.375 140.655 167.088C140.655 167.767 140.57 168.427 140.423 169.058L152.746 176.12C158.19 174.502 163.367 172.248 168.201 169.445H168.197Z" fill="white"/>
<defs>
<linearGradient id="paint0_linear_209_205" x1="130.192" y1="0" x2="130.192" y2="209.891" gradientUnits="userSpaceOnUse">
<stop stop-color="#1AD9BC"/>
<stop offset="1" stop-color="#1DBFBC"/>
</linearGradient>
</defs>
</svg>
