<svg width="100%" height="auto" viewBox="0 0 186 53" fill="none" xmlns="http://www.w3.org/2000/svg">
<path d="M52.1664 15.083C52.1664 13.5587 51.2432 12.2475 49.9312 11.6826C50.3476 11.2937 50.6093 10.74 50.6093 10.1251C50.6093 8.95089 49.6585 7.99524 48.4902 7.99524C47.3219 7.99524 46.3711 8.95089 46.3711 10.1251C46.3711 10.74 46.6327 11.2937 47.0492 11.6826C45.7353 12.2475 44.814 13.5587 44.814 15.083V15.8164H52.1682V15.083H52.1664Z" fill="#1AD9BC"/>
<path d="M56.9335 24.3561C57.35 23.9672 57.6116 23.4134 57.6116 22.7985C57.6116 21.6244 56.6608 20.6687 55.4925 20.6687C54.3242 20.6687 53.3734 21.6244 53.3734 22.7985C53.3734 23.4134 53.6351 23.9672 54.0515 24.3561C52.7377 24.921 51.8145 26.2322 51.8145 27.7564V28.4898H59.1687V27.7564C59.1687 26.2322 58.2455 24.921 56.9335 24.3561Z" fill="#1AD9BC"/>
<path d="M35.3203 11.6826C35.7368 11.2937 35.9985 10.74 35.9985 10.1251C35.9985 8.95089 35.0476 7.99524 33.8793 7.99524C32.7111 7.99524 31.7602 8.95089 31.7602 10.1251C31.7602 10.74 32.0219 11.2937 32.4383 11.6826C31.1245 12.2475 30.2031 13.5587 30.2031 15.083V15.8164H37.5574V15.083C37.5574 13.5587 36.6342 12.2475 35.3222 11.6826H35.3203Z" fill="#1AD9BC"/>
<path d="M62.4858 37.7148C64.6454 38.8871 66.6042 40.4076 68.4506 42.0337C70.2915 43.6987 72.0771 45.4248 73.4444 47.5361C75.206 50.3086 73.7687 51.5402 70.7872 50.7846C67.7615 50.0474 64.9421 48.6658 62.1688 47.3305C60.1861 46.36 58.2457 45.3229 56.3219 44.2598C55.629 43.8783 54.9399 43.4931 54.2507 43.106C52.5757 42.1633 50.9062 41.2132 49.2293 40.2798C42.8461 36.6702 30.0374 29.3491 23.693 25.6765C22.2114 24.8061 20.7207 23.9486 19.2318 23.0855C18.5463 22.6892 17.8626 22.2892 17.1808 21.8873C15.1133 20.6705 13.0605 19.4259 11.052 18.098C8.49427 16.3849 5.87209 14.6551 3.69584 12.416C2.8095 11.5251 1.37218 9.56014 3.15408 8.74524C5.03734 8.09518 6.96666 8.64153 8.8149 8.9786C12.3953 9.82313 15.9425 11.0344 19.1175 12.9105C15.7582 11.1399 6.9814 8.29149 3.48393 9.45457C1.26162 10.6584 10.5507 16.4404 11.6656 17.1313C13.9542 18.5295 16.6151 20.0797 19.416 21.6817C19.4179 21.6817 19.4216 21.6854 19.4234 21.6854C25.4362 25.1228 32.0994 28.7972 37.1669 31.7364C42.4444 34.7126 49.2017 38.7223 55.3526 42.2356C55.3619 42.2411 55.3711 42.2467 55.3803 42.2522C56.0455 42.6319 56.7033 43.0042 57.352 43.3709C57.3575 43.3746 57.363 43.3764 57.3667 43.3801C59.2408 44.4376 61.0374 45.434 62.6829 46.3137C64.0429 47.0212 73.4849 51.9699 73.4315 49.4604C72.6502 45.847 65.6903 39.6909 62.4876 37.7166C65.3125 40.0205 67.7781 42.7578 69.9561 45.6581C70.6269 46.5971 71.2682 47.5046 71.7196 48.4751C71.0949 48.2936 70.4039 48.0306 69.8456 47.7769C66.1528 46.1137 62.5226 43.9265 58.9828 41.7744C62.9796 37.4295 65.4286 31.6271 65.4286 25.258C65.4268 11.8196 54.5511 0.888916 41.184 0.888916C30.2291 0.888916 20.9547 8.23223 17.9621 18.2758C13.6833 15.9626 9.21845 13.6828 5.47775 10.6732C5.38561 10.5954 5.29716 10.5139 5.21239 10.4343C6.27011 10.3287 7.36837 10.4195 8.50901 10.5195C12.1023 10.9177 15.7048 11.6492 19.1175 12.9105C17.1421 11.3974 14.894 10.2398 12.5832 9.26566C9.95738 8.23408 3.09512 5.46159 1.20818 8.66746C-0.525816 11.8622 4.81621 15.757 6.93349 17.5387C10.1251 20.0482 13.5175 22.2725 16.9579 24.4116C16.9486 24.6913 16.9431 24.9728 16.9431 25.2561C16.9431 38.6908 27.8188 49.6215 41.1858 49.6215C46.023 49.6215 50.5284 48.1824 54.3152 45.7192C55.5001 46.3341 56.6849 46.9471 57.8679 47.5453C60.1308 48.6362 62.401 49.69 64.7578 50.6012C65.9446 51.0624 67.1479 51.5031 68.4267 51.8587C69.923 52.244 71.1318 52.6181 72.8529 52.4718C74.2699 52.3569 75.6004 51.2753 75.593 49.7493C75.6262 45.5507 66.1841 39.089 62.4876 37.7166L62.4858 37.7148ZM20.4203 19.5889L23.3392 17.8461C23.7925 18.2665 24.3969 18.5258 25.0603 18.5258C25.7236 18.5258 26.3538 18.2554 26.8108 17.8202L38.7056 24.6727C38.6613 24.8598 38.6374 25.0543 38.6374 25.2543C38.6374 26.6655 39.7799 27.8156 41.184 27.8156C41.8566 27.8156 42.4665 27.5508 42.9235 27.1211L54.7538 34.0348C54.7206 34.1996 54.7022 34.37 54.7022 34.5441C54.7022 35.6905 55.4558 36.6628 56.4914 36.9888L56.4527 40.2243C50.6832 36.648 44.2835 32.8791 38.431 29.5047C32.6836 26.2358 26.3207 22.7022 20.4222 19.5908L20.4203 19.5889ZM40.4027 9.07861L40.4451 22.804C40.0655 22.9189 39.7264 23.1226 39.4445 23.3874L27.5608 16.4423C27.5903 16.2867 27.6069 16.1274 27.6069 15.9645C27.6069 14.8403 26.8809 13.8846 25.8766 13.542L25.9282 9.2564C28.4564 6.81913 31.5614 4.98191 35.0183 3.9707L38.7074 6.05053C38.6632 6.23944 38.6374 6.43576 38.6374 6.63948C38.6374 7.77663 39.38 8.74339 40.4045 9.07491L40.4027 9.07861ZM43.6606 6.05424L47.346 3.97626C50.803 4.98561 53.9079 6.82283 56.438 9.26011L56.4896 13.5235C55.454 13.8494 54.7003 14.8218 54.7003 15.9682C54.7003 16.1423 54.7187 16.3127 54.7519 16.4775L42.9217 23.3911C42.6398 23.1263 42.2989 22.9226 41.9211 22.8077L41.9635 9.08231C42.9862 8.7508 43.7306 7.78404 43.7306 6.64689C43.7306 6.44502 43.7048 6.2487 43.6606 6.05794V6.05424ZM63.2358 25.2543C63.2358 27.073 63.011 28.8398 62.6 30.5307L58.9957 32.6828C58.5387 32.2494 57.9269 31.9827 57.2506 31.9827C56.5744 31.9827 55.9073 32.2716 55.4448 32.7402L43.6606 25.8525C43.7067 25.6599 43.7325 25.4617 43.7325 25.2561C43.7325 25.0505 43.7067 24.8616 43.6643 24.6746L55.5222 17.8424C55.9773 18.2665 56.5836 18.5277 57.2506 18.5277C57.9177 18.5277 58.5387 18.261 58.9957 17.8276L62.6037 19.9797C63.0146 21.6706 63.2376 23.4356 63.2376 25.2543H63.2358ZM57.9509 37.0017C59.016 36.6943 59.7973 35.709 59.7973 34.5422C59.7973 34.3385 59.7715 34.1422 59.7272 33.9533L61.9938 32.6013C61.0779 35.2219 59.6849 37.6147 57.9195 39.6798L57.9527 37.0017H57.9509ZM57.2488 35.6349C56.6499 35.6349 56.1616 35.146 56.1616 34.5422C56.1616 33.9385 56.6481 33.4495 57.2488 33.4495C57.8495 33.4495 58.336 33.9385 58.336 34.5422C58.336 35.146 57.8477 35.6349 57.2488 35.6349ZM57.2488 17.0572C56.6499 17.0572 56.1616 16.5682 56.1616 15.9645C56.1616 15.3607 56.6481 14.8718 57.2488 14.8718C57.8495 14.8718 58.336 15.3607 58.336 15.9645C58.336 16.5682 57.8477 17.0572 57.2488 17.0572ZM42.2712 25.2543C42.2712 25.8562 41.7847 26.347 41.184 26.347C40.5833 26.347 40.0968 25.8562 40.0968 25.2543C40.0968 24.6524 40.5833 24.1616 41.184 24.1616C41.7847 24.1616 42.2712 24.6505 42.2712 25.2543ZM41.184 7.73403C40.5851 7.73403 40.0968 7.2451 40.0968 6.64133C40.0968 6.03757 40.5833 5.54863 41.184 5.54863C41.7847 5.54863 42.2712 6.03757 42.2712 6.64133C42.2712 7.2451 41.7847 7.73403 41.184 7.73403ZM26.1475 15.9663C26.1475 16.5682 25.6591 17.059 25.0603 17.059C24.4614 17.059 23.9731 16.5701 23.9731 15.9663C23.9731 15.3626 24.4595 14.8736 25.0603 14.8736C25.661 14.8736 26.1475 15.3626 26.1475 15.9663ZM61.9883 17.9054L59.7254 16.5553C59.7696 16.3664 59.7954 16.1682 59.7954 15.9663C59.7954 14.7995 59.0141 13.8143 57.949 13.5068L57.9159 10.8306C59.6793 12.8957 61.0706 15.2866 61.9864 17.9073L61.9883 17.9054ZM45.2509 3.47436L42.9309 4.78374C42.4739 4.35037 41.8603 4.08367 41.1858 4.08367C40.5114 4.08367 39.896 4.35037 39.4408 4.78374L37.1135 3.47065C38.4328 3.22248 39.7946 3.09284 41.1858 3.09284C42.5771 3.09284 43.9333 3.22803 45.2527 3.47621L45.2509 3.47436ZM24.4485 10.8325L24.4172 13.492C23.3244 13.7791 22.5136 14.7792 22.5136 15.9663C22.5136 16.1812 22.5431 16.3867 22.5929 16.5849L20.3798 17.9054C21.2956 15.2866 22.6887 12.8957 24.4503 10.8325H24.4485ZM20.3798 32.6031L22.6426 33.9533C22.5984 34.1422 22.5726 34.3404 22.5726 34.5422C22.5726 35.709 23.3539 36.6943 24.419 37.0017L24.4522 39.6779C22.6887 37.6129 21.2974 35.2219 20.3816 32.6031H20.3798ZM25.1192 35.6349C24.5203 35.6349 24.032 35.146 24.032 34.5422C24.032 33.9385 24.5203 33.4495 25.1192 33.4495C25.7181 33.4495 26.2064 33.9385 26.2064 34.5422C26.2064 35.146 25.72 35.6349 25.1192 35.6349ZM37.1171 47.0342L39.4261 45.7322C39.8775 46.1397 40.4727 46.3915 41.125 46.3915C41.7774 46.3915 42.4131 46.1248 42.8682 45.6915L45.2509 47.036C43.9315 47.2842 42.5734 47.4176 41.1822 47.4176C39.7909 47.4176 38.4347 47.2824 37.1153 47.036L37.1171 47.0342ZM40.0397 43.8302C40.0397 43.2283 40.528 42.7375 41.1269 42.7375C41.7258 42.7375 42.2141 43.2264 42.2141 43.8302C42.2141 44.4339 41.7276 44.9229 41.1269 44.9229C40.5262 44.9229 40.0397 44.4321 40.0397 43.8302ZM47.3516 46.5378L43.6016 44.4228C43.6459 44.2321 43.6735 44.0357 43.6735 43.832C43.6735 42.4208 42.531 41.2725 41.1269 41.2725C39.7227 41.2725 38.5784 42.4208 38.5784 43.832C38.5784 44.0561 38.6097 44.2728 38.665 44.4802L35.022 46.5341C31.565 45.5248 28.4601 43.6876 25.93 41.2503L25.8784 36.9869C26.914 36.6609 27.6659 35.6886 27.6659 34.5422C27.6659 33.131 26.5234 31.9827 25.1192 31.9827C24.443 31.9827 23.8312 32.2494 23.3742 32.6828L19.7661 30.5307C19.3939 28.9972 19.182 27.3989 19.1452 25.7599C20.26 26.4414 21.3785 27.1193 22.4934 27.7971C32.0865 33.5384 42.0704 39.2853 52.056 44.5395C50.5855 45.3785 49.01 46.0545 47.3534 46.5397L47.3516 46.5378Z" fill="#1AD9BC"/>
<path d="M86.5018 38.9222L78.4768 13.0104H84.0326L89.0079 30.2361L94.3463 13.0104H98.9586L104.26 30.2361L109.27 13.0104H114.863L106.838 38.9222H102.117L96.6699 21.1112L91.2229 38.9222H86.5018Z" fill="#2F2912"/>
<path d="M114.461 38.9222L125.573 13.0104H130.257L141.405 38.9222H135.886L133.38 33.0105H122.377L119.908 38.9222H114.461ZM127.896 19.9814L124.338 28.3748H131.42L127.896 19.9814Z" fill="#2F2912"/>
<path d="M152.228 39.3612C150.193 39.3612 148.342 38.9537 146.672 38.1388C145.003 37.3239 143.707 36.1868 142.788 34.7255L146.854 31.3308C147.485 32.279 148.294 33.0272 149.287 33.5754C150.28 34.1236 151.321 34.3959 152.41 34.3959C153.499 34.3959 154.292 34.1644 154.935 33.7032C155.576 33.2421 155.897 32.6327 155.897 31.879C155.897 31.1252 155.611 30.5159 155.043 29.9806C154.474 29.4454 153.549 28.9583 152.265 28.5212L150.087 27.7545C145.85 26.271 143.731 23.8004 143.731 20.3464C143.731 17.9628 144.542 16.07 146.163 14.6717C147.785 13.2734 149.88 12.5734 152.445 12.5734C155.688 12.5734 158.412 13.7661 160.616 16.1496L157.094 19.763C155.908 18.2795 154.384 17.5368 152.519 17.5368C151.575 17.5368 150.763 17.7368 150.087 18.1387C149.408 18.5406 149.069 19.1055 149.069 19.8352C149.069 20.5649 149.361 21.1853 149.941 21.6243C150.521 22.0613 151.552 22.5484 153.028 23.0837L155.097 23.8504C159.212 25.408 161.257 27.9749 161.233 31.5512C161.233 33.8625 160.398 35.7423 158.727 37.1906C157.058 38.6389 154.891 39.3612 152.228 39.3612Z" fill="#2F2912"/>
<path d="M166.498 38.9222V13.0104H175.94C178.094 13.0104 179.909 13.7475 181.387 15.218C182.863 16.6904 183.602 18.4609 183.602 20.5278C183.602 22.402 182.924 23.9466 181.567 25.1634C184.109 26.4284 185.38 28.473 185.38 31.2955C185.38 33.4605 184.617 35.2737 183.091 36.7331C181.566 38.1925 179.666 38.9222 177.39 38.9222H166.496H166.498ZM171.762 23.6318H175.429C176.349 23.6318 177.088 23.3577 177.644 22.8113C178.201 22.2631 178.479 21.576 178.479 20.75C178.479 19.924 178.193 19.2591 177.626 18.6887C177.056 18.1183 176.325 17.8312 175.429 17.8312H171.762V23.6336V23.6318ZM171.762 34.068H177.027C178.018 34.068 178.807 33.7939 179.387 33.2475C179.968 32.6993 180.259 31.9882 180.259 31.1122C180.259 30.2361 179.968 29.5194 179.387 28.9582C178.807 28.3989 178.02 28.1193 177.027 28.1193H171.762V34.068Z" fill="#2F2912"/>
</svg>
