<svg width="100%" height="auto" viewBox="0 0 333 93" fill="none" xmlns="http://www.w3.org/2000/svg">
<path d="M144.996 38.5476L136.552 11.3973H142.396L147.628 29.4467L153.244 11.3973H158.096L163.673 29.4467L168.945 11.3973H174.829L166.385 38.5476H161.42L155.689 19.8857L149.957 38.5476H144.992H144.996Z" fill="white"/>
<path d="M184.456 38.9679C181.552 38.9679 179.138 38.0509 177.216 36.2135C175.295 34.3794 174.332 31.9693 174.332 28.9865C174.332 26.0036 175.288 23.7557 177.196 21.8554C179.105 19.9551 181.499 19.005 184.377 19.005C187.026 19.005 189.252 19.826 191.061 21.4714C192.87 23.1168 193.773 25.4309 193.773 28.4104C193.773 29.2513 193.747 29.8505 193.697 30.2081H179.409C179.561 31.4562 180.117 32.4328 181.069 33.1313C182.025 33.8332 183.163 34.1841 184.489 34.1841C186.728 34.1841 188.372 33.3796 189.417 31.774L193.313 34.6807C191.352 37.5344 188.399 38.9646 184.45 38.9646L184.456 38.9679ZM179.604 26.6558H188.544C188.316 25.56 187.8 24.7323 186.996 24.1695C186.193 23.6101 185.27 23.3287 184.228 23.3287C183.186 23.3287 182.177 23.6101 181.288 24.1695C180.395 24.7323 179.836 25.56 179.608 26.6558H179.604Z" fill="white"/>
<path d="M202.677 38.5476L214.365 11.3973H219.293L231.021 38.5476H225.213L222.577 32.3535H211.001L208.405 38.5476H202.673H202.677ZM216.812 18.7005L213.069 27.4968H220.517L216.812 18.7005Z" fill="white"/>
<path d="M233.545 38.5475V19.4287H238.777V21.723C239.108 21.0079 239.687 20.4087 240.517 19.9253C241.344 19.442 242.243 19.2003 243.209 19.2003C244.049 19.2003 244.787 19.3162 245.425 19.5446L244.621 24.4774C244.264 24.3251 243.728 24.249 243.017 24.249C241.056 24.249 239.64 24.9641 238.777 26.3909V38.5508H233.545V38.5475Z" fill="white"/>
<path d="M256.621 38.9679C253.717 38.9679 251.302 38.0509 249.381 36.2135C247.459 34.3794 246.497 31.9693 246.497 28.9865C246.497 26.0036 247.452 23.7557 249.361 21.8554C251.269 19.9551 253.664 19.005 256.541 19.005C259.19 19.005 261.416 19.826 263.225 21.4714C265.035 23.1168 265.937 25.4309 265.937 28.4104C265.937 29.2513 265.911 29.8505 265.861 30.2081H251.573C251.726 31.4562 252.281 32.4328 253.234 33.1313C254.19 33.8332 255.327 34.1841 256.654 34.1841C258.893 34.1841 260.537 33.3796 261.582 31.774L265.478 34.6807C263.516 37.5344 260.563 38.9646 256.614 38.9646L256.621 38.9679ZM251.769 26.6558H260.708C260.48 25.56 259.964 24.7323 259.161 24.1695C258.357 23.6101 257.434 23.3287 256.392 23.3287C255.351 23.3287 254.342 23.6101 253.452 24.1695C252.559 24.7323 252 25.56 251.772 26.6558H251.769Z" fill="white"/>
<path d="M165.198 75.0008C163.058 75.0008 161.11 74.5737 159.354 73.7196C157.597 72.8654 156.235 71.6736 155.266 70.1441L159.545 66.5885C160.207 67.5817 161.06 68.3663 162.105 68.939C163.15 69.5118 164.245 69.7998 165.39 69.7998C166.534 69.7998 167.371 69.5581 168.045 69.0748C168.72 68.5914 169.057 67.9525 169.057 67.1646C169.057 66.3766 168.76 65.7377 168.161 65.1749C167.563 64.6154 166.587 64.1056 165.237 63.6454L162.945 62.8409C158.49 61.2849 156.261 58.6994 156.261 55.0776C156.261 52.5781 157.114 50.5983 158.821 49.1317C160.528 47.6651 162.73 46.9335 165.429 46.9335C168.842 46.9335 171.707 48.1816 174.025 50.6811L170.321 54.4651C169.074 52.9124 167.47 52.1344 165.509 52.1344C164.516 52.1344 163.663 52.3463 162.949 52.7668C162.234 53.1872 161.88 53.7798 161.88 54.5445C161.88 55.3093 162.185 55.9582 162.797 56.4183C163.408 56.8785 164.49 57.3884 166.044 57.9478L168.221 58.7523C172.55 60.3844 174.703 63.0727 174.677 66.8203C174.677 69.2436 173.797 71.2134 172.041 72.7297C170.285 74.2459 168.002 75.0041 165.201 75.0041L165.198 75.0008Z" fill="white"/>
<path d="M194.27 74.5405L190.678 63.6817L187.126 74.5405H181.93L175.589 55.4218H181.166L184.794 67.6577L188.654 55.4218H192.665L196.562 67.6577L200.153 55.4218H205.769L199.465 74.5405H194.27Z" fill="white"/>
<path d="M211.078 53.0514C210.185 53.0514 209.411 52.727 208.75 52.0748C208.088 51.4259 207.757 50.6413 207.757 49.7243C207.757 48.8072 208.088 48.0226 208.75 47.3737C209.411 46.7248 210.188 46.3971 211.078 46.3971C212.021 46.3971 212.818 46.7215 213.466 47.3737C214.114 48.0259 214.438 48.8072 214.438 49.7243C214.438 50.6413 214.114 51.4259 213.466 52.0748C212.818 52.7237 212.021 53.0514 211.078 53.0514ZM208.478 74.5405V55.4218H213.711V74.5405H208.478Z" fill="white"/>
<path d="M225.174 74.961C221.556 74.961 218.933 73.736 217.306 71.2895L220.898 68.2305C221.814 69.7104 223.24 70.4486 225.178 70.4486C225.763 70.4486 226.259 70.3327 226.666 70.1043C227.073 69.8759 227.278 69.5316 227.278 69.0714C227.278 68.6642 227.106 68.3265 226.762 68.0584C226.418 67.7902 225.737 67.5187 224.718 67.2373L223.306 66.893C221.55 66.4329 220.217 65.6681 219.314 64.5988C218.411 63.5295 217.981 62.2549 218.034 60.775C218.083 59.0403 218.778 57.6465 220.117 56.5871C221.454 55.531 223.154 55.0013 225.217 55.0013C228.144 55.0013 230.351 56.0707 231.826 58.2126L228.389 61.0035C227.496 59.8812 226.415 59.3217 225.141 59.3217C224.632 59.3217 224.186 59.4376 223.805 59.666C223.422 59.8944 223.233 60.2155 223.233 60.6227C223.233 61.3875 223.858 61.9371 225.105 62.2681L226.901 62.8044C230.592 63.7976 232.441 65.774 232.441 68.7304C232.441 70.5413 231.753 72.0311 230.377 73.203C229.001 74.375 227.268 74.961 225.181 74.961H225.174Z" fill="white"/>
<path d="M242.71 74.961C239.092 74.961 236.469 73.736 234.842 71.2895L238.433 68.2305C239.35 69.7104 240.775 70.4486 242.713 70.4486C243.299 70.4486 243.795 70.3327 244.201 70.1043C244.608 69.8759 244.813 69.5316 244.813 69.0714C244.813 68.6642 244.641 68.3265 244.297 68.0584C243.953 67.7902 243.272 67.5187 242.253 67.2373L240.841 66.893C239.085 66.4329 237.752 65.6681 236.849 64.5988C235.946 63.5295 235.516 62.2549 235.569 60.775C235.619 59.0403 236.313 57.6465 237.653 56.5871C238.989 55.531 240.689 55.0013 242.753 55.0013C245.68 55.0013 247.886 56.0707 249.361 58.2126L245.925 61.0035C245.032 59.8812 243.95 59.3217 242.677 59.3217C242.167 59.3217 241.721 59.4376 241.341 59.666C240.957 59.8944 240.768 60.2155 240.768 60.6227C240.768 61.3875 241.394 61.9371 242.64 62.2681L244.436 62.8044C248.127 63.7976 249.976 65.774 249.976 68.7304C249.976 70.5413 249.288 72.0311 247.912 73.203C246.537 74.375 244.803 74.961 242.716 74.961H242.71Z" fill="white"/>
<path d="M253.978 74.5405V47.3903H263.911C266.176 47.3903 268.088 48.1616 269.642 49.7044C271.193 51.2471 271.971 53.101 271.971 55.2695C271.971 57.2327 271.256 58.8516 269.831 60.1261C272.506 61.4537 273.843 63.5923 273.843 66.552C273.843 68.8231 273.039 70.7201 271.435 72.2496C269.831 73.7791 267.83 74.5438 265.435 74.5438H253.975L253.978 74.5405ZM259.518 58.5205H263.378C264.347 58.5205 265.121 58.2325 265.71 57.6597C266.295 57.087 266.59 56.3653 266.59 55.4979C266.59 54.6305 266.289 53.9353 265.693 53.3361C265.095 52.7369 264.324 52.4389 263.381 52.4389H259.522V58.5205H259.518ZM259.518 69.4554H265.058C266.103 69.4554 266.93 69.1674 267.542 68.5947C268.154 68.0219 268.458 67.2737 268.458 66.3567C268.458 65.4397 268.154 64.6882 267.542 64.1022C266.93 63.5162 266.103 63.2216 265.058 63.2216H259.518V69.4554Z" fill="white"/>
<path d="M293.594 72.0741C291.633 73.9976 289.265 74.961 286.49 74.961C283.715 74.961 281.347 73.9976 279.386 72.0741C277.424 70.1507 276.445 67.7869 276.445 64.9795C276.445 62.1721 277.424 59.8415 279.386 57.9048C281.347 55.9681 283.715 54.998 286.49 54.998C289.265 54.998 291.633 55.9681 293.594 57.9048C295.555 59.8415 296.534 62.2019 296.534 64.9795C296.534 67.7571 295.552 70.1474 293.594 72.0741ZM286.487 70.0679C287.836 70.0679 288.964 69.5912 289.867 68.6344C290.77 67.6777 291.223 66.4627 291.223 64.9828C291.223 63.503 290.77 62.288 289.867 61.3312C288.964 60.3745 287.836 59.8977 286.487 59.8977C285.137 59.8977 283.973 60.3745 283.067 61.3312C282.164 62.288 281.711 63.5063 281.711 64.9828C281.711 66.4594 282.164 67.6777 283.067 68.6344C283.97 69.5912 285.111 70.0679 286.487 70.0679Z" fill="white"/>
<path d="M300.318 74.5405V55.4218H305.55V57.716C305.881 57.001 306.46 56.4017 307.29 55.9184C308.117 55.435 309.017 55.1934 309.982 55.1934C310.822 55.1934 311.56 55.3092 312.198 55.5377L311.395 60.4705C311.037 60.3182 310.502 60.242 309.79 60.242C307.829 60.242 306.414 60.9571 305.55 62.384V74.5438H300.318V74.5405Z" fill="white"/>
<path d="M322.931 82.3436C319.392 82.3436 316.577 81.4497 314.487 79.6653L317.351 75.7654C318.929 77.0897 320.765 77.7551 322.852 77.7551C324.125 77.7551 325.253 77.391 326.232 76.6659C327.211 75.9409 327.704 74.8881 327.704 73.5109V72.3257C326.48 73.5507 324.839 74.1598 322.776 74.1598C320.024 74.1598 317.745 73.2428 315.939 71.4054C314.13 69.5713 313.227 67.3002 313.227 64.5988C313.227 61.8973 314.137 59.6229 315.959 57.7723C317.781 55.925 320.054 55.0013 322.779 55.0013C324.816 55.0013 326.46 55.6006 327.707 56.799V55.4218H332.939V73.4712C332.939 75.0768 332.651 76.4805 332.079 77.679C331.507 78.8774 330.723 79.8011 329.731 80.45C328.739 81.0988 327.674 81.5789 326.543 81.8834C325.408 82.188 324.204 82.3436 322.931 82.3436ZM323.583 69.419C325.316 69.419 326.688 68.7039 327.71 67.2771V61.8477C326.691 60.4705 325.316 59.7819 323.583 59.7819C322.131 59.7819 320.947 60.2288 320.03 61.1193C319.114 62.0132 318.655 63.1719 318.655 64.5988C318.655 66.0257 319.118 67.1546 320.05 68.0584C320.98 68.9622 322.157 69.4157 323.583 69.4157V69.419Z" fill="white"/>
<path d="M92.8845 26.1129C92.8845 23.3883 91.2275 21.0444 88.8726 20.0346C89.6201 19.3394 90.0898 18.3496 90.0898 17.2504C90.0898 15.1515 88.3831 13.4432 86.2863 13.4432C84.1894 13.4432 82.4827 15.1515 82.4827 17.2504C82.4827 18.3496 82.9524 19.3394 83.6999 20.0346C81.3417 21.0444 79.688 23.3883 79.688 26.1129V27.4239H92.8878V26.1129H92.8845Z" fill="#1AD9BC"/>
<path d="M101.441 42.6891C102.188 41.9938 102.658 41.004 102.658 39.9048C102.658 37.8059 100.951 36.0977 98.8545 36.0977C96.7576 36.0977 95.051 37.8059 95.051 39.9048C95.051 41.004 95.5206 41.9938 96.2681 42.6891C93.9099 43.6988 92.2529 46.0427 92.2529 48.7673V50.0783H105.453V48.7673C105.453 46.0427 103.796 43.6988 101.441 42.6891Z" fill="#1AD9BC"/>
<path d="M62.6485 20.0346C63.396 19.3394 63.8656 18.3496 63.8656 17.2504C63.8656 15.1515 62.159 13.4432 60.0621 13.4432C57.9652 13.4432 56.2586 15.1515 56.2586 17.2504C56.2586 18.3496 56.7283 19.3394 57.4757 20.0346C55.1176 21.0444 53.4639 23.3883 53.4639 26.1129V27.4239H66.6637V26.1129C66.6637 23.3883 65.0067 21.0444 62.6518 20.0346H62.6485Z" fill="#1AD9BC"/>
<path d="M111.406 66.5685C115.282 68.6641 118.798 71.3821 122.112 74.2888C125.416 77.2651 128.621 80.3505 131.075 84.1246C134.237 89.0806 131.657 91.2822 126.306 89.9314C120.875 88.6138 115.815 86.1441 110.837 83.7571C107.278 82.0224 103.796 80.1685 100.343 78.2682C99.099 77.5862 97.8621 76.8976 96.6251 76.2057C93.6187 74.5206 90.6222 72.8222 87.6124 71.1537C76.1556 64.7013 53.1659 51.6145 41.7785 45.0496C39.1194 43.4936 36.4437 41.9608 33.7713 40.418C32.541 39.7096 31.3139 38.9945 30.0902 38.2761C26.3793 36.101 22.6948 33.8763 19.0898 31.5026C14.4991 28.4403 9.79267 25.3482 5.88664 21.3457C4.29578 19.7533 1.71601 16.2407 4.91426 14.7841C8.29442 13.622 11.7573 14.5987 15.0746 15.2012C21.5009 16.7108 27.8676 18.876 33.5662 22.2296C27.5369 19.0647 11.7837 13.973 5.50628 16.052C1.51756 18.2039 18.1902 28.5396 20.1911 29.7745C24.2989 32.274 29.0748 35.0449 34.102 37.9086C34.1054 37.9086 34.112 37.9152 34.1153 37.9152C44.9073 44.0597 56.8669 50.6279 65.9622 55.8819C75.4346 61.202 87.5628 68.3695 98.6029 74.6497C98.6195 74.6596 98.636 74.6695 98.6525 74.6795C99.8465 75.3581 101.027 76.0236 102.191 76.6791C102.201 76.6857 102.211 76.689 102.218 76.6956C105.582 78.586 108.806 80.3671 111.76 81.9396C114.201 83.2043 131.148 92.0502 131.052 87.5643C129.649 81.1054 117.157 70.1009 111.409 66.5718C116.479 70.6902 120.905 75.5833 124.814 80.7677C126.018 82.4462 127.169 84.0683 127.979 85.8031C126.858 85.4787 125.618 85.0086 124.616 84.555C117.988 81.5821 111.472 77.6723 105.119 73.8253C112.292 66.0587 116.688 55.6866 116.688 44.3014C116.684 20.2797 97.1642 0.740479 73.1723 0.740479C53.5099 0.740479 36.8637 13.867 31.4925 31.8204C23.8127 27.6855 15.7989 23.6101 9.08489 18.2304C8.91952 18.0913 8.76076 17.9457 8.60862 17.8033C10.5071 17.6146 12.4783 17.7768 14.5256 17.9556C20.975 18.6674 27.441 19.9751 33.5662 22.2296C30.0207 19.5248 25.9857 17.4557 21.8382 15.7143C17.1252 13.8703 4.80842 8.91436 1.42165 14.645C-1.69061 20.3558 7.89753 27.318 11.6977 30.5028C17.4261 34.9887 23.5151 38.9647 29.69 42.7884C29.6734 43.2883 29.6635 43.7916 29.6635 44.2981C29.6635 68.3132 49.1838 87.8524 73.1757 87.8524C81.8576 87.8524 89.9442 85.28 96.7409 80.8769C98.8675 81.976 100.994 83.0719 103.118 84.1412C107.179 86.0911 111.254 87.9749 115.484 89.6037C117.614 90.428 119.774 91.2159 122.069 91.8516C124.755 92.5402 126.924 93.2089 130.013 92.9474C132.557 92.7421 134.945 90.8087 134.931 88.0808C134.991 80.5757 118.044 69.025 111.409 66.5718L111.406 66.5685ZM35.9046 34.1676L41.1435 31.0524C41.9571 31.8039 43.0419 32.2673 44.2326 32.2673C45.4233 32.2673 46.5544 31.784 47.3746 31.006L68.7239 43.2552C68.6445 43.5896 68.6015 43.9372 68.6015 44.2948C68.6015 46.8174 70.6521 48.8733 73.1723 48.8733C74.3795 48.8733 75.4743 48.3999 76.2945 47.6319L97.528 59.9903C97.4685 60.285 97.4354 60.5896 97.4354 60.9007C97.4354 62.95 98.7881 64.6881 100.647 65.2707L100.577 71.0544C90.222 64.6616 78.7354 57.9245 68.2311 51.8926C57.9153 46.0494 46.4949 39.7328 35.9079 34.1709L35.9046 34.1676ZM71.77 15.38L71.8461 39.9148C71.1647 40.1201 70.5562 40.4843 70.0502 40.9577L48.7207 28.5429C48.7737 28.2648 48.8034 27.9801 48.8034 27.6888C48.8034 25.6792 47.5003 23.971 45.6978 23.3585L45.7904 15.6978C50.3281 11.341 55.9011 8.05691 62.1058 6.24932L68.7272 9.96713C68.6478 10.3048 68.6015 10.6557 68.6015 11.0199C68.6015 13.0526 69.9344 14.7807 71.7733 15.3733L71.77 15.38ZM77.6175 9.97375L84.2323 6.25925C90.437 8.06353 96.0099 11.3476 100.551 15.7044L100.644 23.3254C98.7848 23.9081 97.4321 25.6461 97.4321 27.6954C97.4321 28.0066 97.4652 28.3112 97.5247 28.6058L76.2912 40.9643C75.7852 40.4909 75.1733 40.1267 74.4953 39.9215L74.5714 15.3866C76.407 14.794 77.7432 13.0659 77.7432 11.0331C77.7432 10.6723 77.6969 10.3214 77.6175 9.98037V9.97375ZM112.752 44.2948C112.752 47.5458 112.348 50.7041 111.611 53.7267L105.142 57.5736C104.321 56.7989 103.223 56.3222 102.01 56.3222C100.796 56.3222 99.5985 56.8386 98.7683 57.6762L77.6175 45.3641C77.7002 45.0198 77.7465 44.6656 77.7465 44.2981C77.7465 43.9306 77.7002 43.5929 77.6241 43.2585L98.9072 31.0457C99.7241 31.8039 100.812 32.2707 102.01 32.2707C103.207 32.2707 104.321 31.7939 105.142 31.0192L111.618 34.8662C112.355 37.8888 112.755 41.0438 112.755 44.2948H112.752ZM103.266 65.2939C105.178 64.7444 106.58 62.9831 106.58 60.8974C106.58 60.5333 106.534 60.1823 106.455 59.8447L110.523 57.4279C108.879 62.1124 106.379 66.3897 103.21 70.081L103.27 65.2939H103.266ZM102.006 62.8507C100.931 62.8507 100.055 61.9767 100.055 60.8974C100.055 59.8182 100.928 58.9442 102.006 58.9442C103.084 58.9442 103.958 59.8182 103.958 60.8974C103.958 61.9767 103.081 62.8507 102.006 62.8507ZM102.006 29.642C100.931 29.642 100.055 28.768 100.055 27.6888C100.055 26.6095 100.928 25.7355 102.006 25.7355C103.084 25.7355 103.958 26.6095 103.958 27.6888C103.958 28.768 103.081 29.642 102.006 29.642ZM75.1237 44.2948C75.1237 45.3707 74.2506 46.248 73.1723 46.248C72.0941 46.248 71.221 45.3707 71.221 44.2948C71.221 43.2188 72.0941 42.3415 73.1723 42.3415C74.2506 42.3415 75.1237 43.2155 75.1237 44.2948ZM73.1723 12.9765C72.0974 12.9765 71.221 12.1025 71.221 11.0232C71.221 9.94395 72.0941 9.06995 73.1723 9.06995C74.2506 9.06995 75.1237 9.94395 75.1237 11.0232C75.1237 12.1025 74.2506 12.9765 73.1723 12.9765ZM46.184 27.6921C46.184 28.768 45.3075 29.6453 44.2326 29.6453C43.1577 29.6453 42.2812 28.7714 42.2812 27.6921C42.2812 26.6128 43.1544 25.7388 44.2326 25.7388C45.3108 25.7388 46.184 26.6128 46.184 27.6921ZM110.513 31.1583L106.451 28.7449C106.531 28.4072 106.577 28.053 106.577 27.6921C106.577 25.6064 105.175 23.8452 103.263 23.2956L103.204 18.5118C106.369 22.2031 108.866 26.4771 110.51 31.1616L110.513 31.1583ZM80.4718 5.36208L76.3078 7.70268C75.4875 6.928 74.3862 6.45127 73.1757 6.45127C71.9651 6.45127 70.8605 6.928 70.0435 7.70268L65.8663 5.35546C68.2344 4.91184 70.6786 4.6801 73.1757 4.6801C75.6727 4.6801 78.107 4.92177 80.4751 5.36539L80.4718 5.36208ZM43.1346 18.5151L43.0783 23.2691C41.117 23.7823 39.6618 25.57 39.6618 27.6921C39.6618 28.0761 39.7147 28.4436 39.804 28.7978L35.8318 31.1583C37.4756 26.4771 39.976 22.2031 43.1379 18.5151H43.1346ZM35.8318 57.4312L39.8933 59.8447C39.8139 60.1823 39.7676 60.5366 39.7676 60.8974C39.7676 62.9831 41.17 64.7444 43.0816 65.2939L43.1412 70.0777C39.976 66.3864 37.4789 62.1124 35.8351 57.4312H35.8318ZM44.3384 62.8507C43.2635 62.8507 42.3871 61.9767 42.3871 60.8974C42.3871 59.8182 43.2635 58.9442 44.3384 58.9442C45.4133 58.9442 46.2898 59.8182 46.2898 60.8974C46.2898 61.9767 45.4167 62.8507 44.3384 62.8507ZM65.8729 83.2275L70.0171 80.9001C70.8274 81.6284 71.8957 82.0787 73.0665 82.0787C74.2373 82.0787 75.3784 81.602 76.1953 80.8273L80.4718 83.2308C78.1037 83.6744 75.6661 83.9127 73.169 83.9127C70.672 83.9127 68.2377 83.6711 65.8696 83.2308L65.8729 83.2275ZM71.1184 77.5001C71.1184 76.4242 71.9949 75.5469 73.0698 75.5469C74.1447 75.5469 75.0212 76.4209 75.0212 77.5001C75.0212 78.5794 74.148 79.4534 73.0698 79.4534C71.9916 79.4534 71.1184 78.5761 71.1184 77.5001ZM84.2422 82.3402L77.5117 78.5595C77.591 78.2185 77.6406 77.8676 77.6406 77.5034C77.6406 74.9807 75.5901 72.9282 73.0698 72.9282C70.5496 72.9282 68.4957 74.9807 68.4957 77.5034C68.4957 77.904 68.5519 78.2913 68.6511 78.6621L62.1124 82.3336C55.9077 80.5293 50.3348 77.2452 45.7937 72.8884L45.7011 65.2674C47.5599 64.6848 48.9093 62.9467 48.9093 60.8974C48.9093 58.3748 46.8587 56.3222 44.3384 56.3222C43.1246 56.3222 42.0266 56.7989 41.2063 57.5736L34.7305 53.7267C34.0624 50.9855 33.682 48.1284 33.6159 45.1986C35.6168 46.4169 37.6244 47.6285 39.6254 48.8402C56.8437 59.1031 74.7632 69.3759 92.686 78.7681C90.0467 80.2678 87.2189 81.4761 84.2455 82.3435L84.2422 82.3402Z" fill="#1AD9BC"/>
</svg>
