<svg width="100%" height="auto" viewBox="0 0 186 53" fill="none" xmlns="http://www.w3.org/2000/svg">
<path d="M51.9149 15.083C51.9149 13.5587 50.9917 12.2475 49.6797 11.6826C50.0962 11.2937 50.3578 10.74 50.3578 10.1251C50.3578 8.95089 49.407 7.99524 48.2387 7.99524C47.0704 7.99524 46.1196 8.95089 46.1196 10.1251C46.1196 10.74 46.3813 11.2937 46.7977 11.6826C45.4839 12.2475 44.5625 13.5587 44.5625 15.083V15.8164H51.9168V15.083H51.9149Z" fill="#1AD9BC"/>
<path d="M56.6825 24.3561C57.099 23.9672 57.3607 23.4134 57.3607 22.7985C57.3607 21.6244 56.4098 20.6687 55.2415 20.6687C54.0733 20.6687 53.1224 21.6244 53.1224 22.7985C53.1224 23.4134 53.3841 23.9672 53.8005 24.3561C52.4867 24.921 51.5635 26.2322 51.5635 27.7564V28.4898H58.9177V27.7564C58.9177 26.2322 57.9945 24.921 56.6825 24.3561Z" fill="#1AD9BC"/>
<path d="M35.0694 11.6826C35.4858 11.2937 35.7475 10.74 35.7475 10.1251C35.7475 8.95089 34.7966 7.99524 33.6284 7.99524C32.4601 7.99524 31.5092 8.95089 31.5092 10.1251C31.5092 10.74 31.7709 11.2937 32.1874 11.6826C30.8735 12.2475 29.9521 13.5587 29.9521 15.083V15.8164H37.3064V15.083C37.3064 13.5587 36.3832 12.2475 35.0712 11.6826H35.0694Z" fill="#1AD9BC"/>
<path d="M62.2346 37.7148C64.3942 38.8871 66.353 40.4076 68.1994 42.0337C70.0403 43.6987 71.8259 45.4248 73.1932 47.5361C74.9548 50.3086 73.5175 51.5402 70.536 50.7846C67.5103 50.0474 64.6909 48.6658 61.9176 47.3305C59.9349 46.36 57.9945 45.3229 56.0707 44.2598C55.3778 43.8783 54.6886 43.4931 53.9995 43.106C52.3244 42.1633 50.6549 41.2132 48.9781 40.2798C42.5949 36.6702 29.7862 29.3491 23.4417 25.6765C21.9602 24.8061 20.4695 23.9486 18.9805 23.0855C18.295 22.6892 17.6114 22.2892 16.9296 21.8873C14.8621 20.6705 12.8093 19.4259 10.8007 18.098C8.24305 16.3849 5.62087 14.6551 3.44462 12.416C2.55828 11.5251 1.12096 9.56014 2.90286 8.74524C4.78612 8.09518 6.71544 8.64153 8.56368 8.9786C12.1441 9.82313 15.6913 11.0344 18.8663 12.9105C15.507 11.1399 6.73018 8.29149 3.23271 9.45457C1.0104 10.6584 10.2995 16.4404 11.4144 17.1313C13.703 18.5295 16.3639 20.0797 19.1648 21.6817C19.1667 21.6817 19.1703 21.6854 19.1722 21.6854C25.185 25.1228 31.8482 28.7972 36.9157 31.7364C42.1932 34.7126 48.9504 38.7223 55.1014 42.2356C55.1106 42.2411 55.1198 42.2467 55.1291 42.2522C55.7943 42.6319 56.4521 43.0042 57.1008 43.3709C57.1063 43.3746 57.1118 43.3764 57.1155 43.3801C58.9895 44.4376 60.7862 45.434 62.4317 46.3137C63.7917 47.0212 73.2337 51.9699 73.1803 49.4604C72.399 45.847 65.439 39.6909 62.2364 37.7166C65.0613 40.0205 67.5268 42.7578 69.7049 45.6581C70.3757 46.5971 71.0169 47.5046 71.4684 48.4751C70.8437 48.2936 70.1527 48.0306 69.5944 47.7769C65.9016 46.1137 62.2714 43.9265 58.7316 41.7744C62.7284 37.4295 65.1774 31.6271 65.1774 25.258C65.1755 11.8196 54.2998 0.888916 40.9328 0.888916C29.9779 0.888916 20.7035 8.23223 17.7109 18.2758C13.4321 15.9626 8.96723 13.6828 5.22652 10.6732C5.13439 10.5954 5.04594 10.5139 4.96117 10.4343C6.01889 10.3287 7.11715 10.4195 8.25779 10.5195C11.8511 10.9177 15.4536 11.6492 18.8663 12.9105C16.8909 11.3974 14.6428 10.2398 12.332 9.26566C9.70616 8.23408 2.8439 5.46159 0.956957 8.66746C-0.777036 11.8622 4.56499 15.757 6.68227 17.5387C9.87385 20.0482 13.2663 22.2725 16.7066 24.4116C16.6974 24.6913 16.6919 24.9728 16.6919 25.2561C16.6919 38.6908 27.5676 49.6215 40.9346 49.6215C45.7718 49.6215 50.2772 48.1824 54.064 45.7192C55.2488 46.3341 56.4337 46.9471 57.6167 47.5453C59.8796 48.6362 62.1498 49.69 64.5066 50.6012C65.6933 51.0624 66.8966 51.5031 68.1755 51.8587C69.6718 52.244 70.8806 52.6181 72.6017 52.4718C74.0187 52.3569 75.3492 51.2753 75.3418 49.7493C75.3749 45.5507 65.9329 39.089 62.2364 37.7166L62.2346 37.7148ZM20.1691 19.5889L23.0879 17.8461C23.5413 18.2665 24.1457 18.5258 24.809 18.5258C25.4724 18.5258 26.1026 18.2554 26.5596 17.8202L38.4543 24.6727C38.4101 24.8598 38.3862 25.0543 38.3862 25.2543C38.3862 26.6655 39.5286 27.8156 40.9328 27.8156C41.6054 27.8156 42.2153 27.5508 42.6723 27.1211L54.5025 34.0348C54.4694 34.1996 54.4509 34.37 54.4509 34.5441C54.4509 35.6905 55.2046 36.6628 56.2402 36.9888L56.2015 40.2243C50.432 36.648 44.0322 32.8791 38.1798 29.5047C32.4323 26.2358 26.0695 22.7022 20.1709 19.5908L20.1691 19.5889ZM40.1515 9.07861L40.1939 22.804C39.8143 22.9189 39.4752 23.1226 39.1933 23.3874L27.3096 16.4423C27.3391 16.2867 27.3557 16.1274 27.3557 15.9645C27.3557 14.8403 26.6296 13.8846 25.6254 13.542L25.677 9.2564C28.2052 6.81913 31.3101 4.98191 34.7671 3.9707L38.4562 6.05053C38.412 6.23944 38.3862 6.43576 38.3862 6.63948C38.3862 7.77663 39.1288 8.74339 40.1533 9.07491L40.1515 9.07861ZM43.4094 6.05424L47.0948 3.97626C50.5518 4.98561 53.6567 6.82283 56.1868 9.26011L56.2384 13.5235C55.2028 13.8494 54.4491 14.8218 54.4491 15.9682C54.4491 16.1423 54.4675 16.3127 54.5007 16.4775L42.6705 23.3911C42.3885 23.1263 42.0476 22.9226 41.6699 22.8077L41.7123 9.08231C42.735 8.7508 43.4794 7.78404 43.4794 6.64689C43.4794 6.44502 43.4536 6.2487 43.4094 6.05794V6.05424ZM62.9845 25.2543C62.9845 27.073 62.7597 28.8398 62.3488 30.5307L58.7445 32.6828C58.2875 32.2494 57.6757 31.9827 56.9994 31.9827C56.3231 31.9827 55.6561 32.2716 55.1936 32.7402L43.4094 25.8525C43.4555 25.6599 43.4813 25.4617 43.4813 25.2561C43.4813 25.0505 43.4555 24.8616 43.4131 24.6746L55.2709 17.8424C55.7261 18.2665 56.3323 18.5277 56.9994 18.5277C57.6665 18.5277 58.2875 18.261 58.7445 17.8276L62.3525 19.9797C62.7634 21.6706 62.9864 23.4356 62.9864 25.2543H62.9845ZM57.6996 37.0017C58.7647 36.6943 59.546 35.709 59.546 34.5422C59.546 34.3385 59.5202 34.1422 59.476 33.9533L61.7426 32.6013C60.8267 35.2219 59.4336 37.6147 57.6683 39.6798L57.7015 37.0017H57.6996ZM56.9976 35.6349C56.3987 35.6349 55.9104 35.146 55.9104 34.5422C55.9104 33.9385 56.3968 33.4495 56.9976 33.4495C57.5983 33.4495 58.0848 33.9385 58.0848 34.5422C58.0848 35.146 57.5965 35.6349 56.9976 35.6349ZM56.9976 17.0572C56.3987 17.0572 55.9104 16.5682 55.9104 15.9645C55.9104 15.3607 56.3968 14.8718 56.9976 14.8718C57.5983 14.8718 58.0848 15.3607 58.0848 15.9645C58.0848 16.5682 57.5965 17.0572 56.9976 17.0572ZM42.02 25.2543C42.02 25.8562 41.5335 26.347 40.9328 26.347C40.3321 26.347 39.8456 25.8562 39.8456 25.2543C39.8456 24.6524 40.3321 24.1616 40.9328 24.1616C41.5335 24.1616 42.02 24.6505 42.02 25.2543ZM40.9328 7.73403C40.3339 7.73403 39.8456 7.2451 39.8456 6.64133C39.8456 6.03757 40.3321 5.54863 40.9328 5.54863C41.5335 5.54863 42.02 6.03757 42.02 6.64133C42.02 7.2451 41.5335 7.73403 40.9328 7.73403ZM25.8962 15.9663C25.8962 16.5682 25.4079 17.059 24.809 17.059C24.2102 17.059 23.7218 16.5701 23.7218 15.9663C23.7218 15.3626 24.2083 14.8736 24.809 14.8736C25.4098 14.8736 25.8962 15.3626 25.8962 15.9663ZM61.737 17.9054L59.4742 16.5553C59.5184 16.3664 59.5442 16.1682 59.5442 15.9663C59.5442 14.7995 58.7629 13.8143 57.6978 13.5068L57.6646 10.8306C59.4281 12.8957 60.8194 15.2866 61.7352 17.9073L61.737 17.9054ZM44.9997 3.47436L42.6797 4.78374C42.2227 4.35037 41.6091 4.08367 40.9346 4.08367C40.2602 4.08367 39.6447 4.35037 39.1896 4.78374L36.8622 3.47065C38.1816 3.22248 39.5434 3.09284 40.9346 3.09284C42.3259 3.09284 43.6821 3.22803 45.0015 3.47621L44.9997 3.47436ZM24.1973 10.8325L24.1659 13.492C23.0732 13.7791 22.2624 14.7792 22.2624 15.9663C22.2624 16.1812 22.2919 16.3867 22.3417 16.5849L20.1285 17.9054C21.0444 15.2866 22.4375 12.8957 24.1991 10.8325H24.1973ZM20.1285 32.6031L22.3914 33.9533C22.3472 34.1422 22.3214 34.3404 22.3214 34.5422C22.3214 35.709 23.1027 36.6943 24.1678 37.0017L24.2009 39.6779C22.4375 37.6129 21.0462 35.2219 20.1304 32.6031H20.1285ZM24.868 35.6349C24.2691 35.6349 23.7808 35.146 23.7808 34.5422C23.7808 33.9385 24.2691 33.4495 24.868 33.4495C25.4669 33.4495 25.9552 33.9385 25.9552 34.5422C25.9552 35.146 25.4687 35.6349 24.868 35.6349ZM36.8659 47.0342L39.1748 45.7322C39.6263 46.1397 40.2215 46.3915 40.8738 46.3915C41.5261 46.3915 42.1619 46.1248 42.617 45.6915L44.9997 47.036C43.6803 47.2842 42.3222 47.4176 40.9309 47.4176C39.5397 47.4176 38.1835 47.2824 36.8641 47.036L36.8659 47.0342ZM39.7885 43.8302C39.7885 43.2283 40.2768 42.7375 40.8757 42.7375C41.4745 42.7375 41.9629 43.2264 41.9629 43.8302C41.9629 44.4339 41.4764 44.9229 40.8757 44.9229C40.2749 44.9229 39.7885 44.4321 39.7885 43.8302ZM47.1003 46.5378L43.3504 44.4228C43.3947 44.2321 43.4223 44.0357 43.4223 43.832C43.4223 42.4208 42.2798 41.2725 40.8757 41.2725C39.4715 41.2725 38.3272 42.4208 38.3272 43.832C38.3272 44.0561 38.3585 44.2728 38.4138 44.4802L34.7708 46.5341C31.3138 45.5248 28.2088 43.6876 25.6788 41.2503L25.6272 36.9869C26.6628 36.6609 27.4146 35.6886 27.4146 34.5422C27.4146 33.131 26.2722 31.9827 24.868 31.9827C24.1917 31.9827 23.58 32.2494 23.123 32.6828L19.5149 30.5307C19.1427 28.9972 18.9308 27.3989 18.8939 25.7599C20.0088 26.4414 21.1273 27.1193 22.2421 27.7971C31.8353 33.5384 41.8191 39.2853 51.8048 44.5395C50.3343 45.3785 48.7588 46.0545 47.1022 46.5397L47.1003 46.5378Z" fill="#1AD9BC"/>
<path d="M86.2506 38.9222L78.2256 13.0104H83.7814L88.7567 30.2361L94.095 13.0104H98.7074L104.009 30.2361L109.019 13.0104H114.612L106.587 38.9222H101.866L96.4187 21.1112L90.9716 38.9222H86.2506Z" fill="white"/>
<path d="M114.21 38.9222L125.322 13.0104H130.006L141.154 38.9222H135.635L133.129 33.0105H122.126L119.657 38.9222H114.21ZM127.645 19.9814L124.087 28.3748H131.168L127.645 19.9814Z" fill="white"/>
<path d="M151.976 39.3612C149.942 39.3612 148.09 38.9537 146.421 38.1388C144.751 37.3239 143.456 36.1868 142.536 34.7255L146.603 31.3308C147.233 32.279 148.042 33.0272 149.035 33.5754C150.029 34.1236 151.07 34.3959 152.159 34.3959C153.248 34.3959 154.04 34.1644 154.683 33.7032C155.325 33.2421 155.645 32.6327 155.645 31.879C155.645 31.1252 155.36 30.5159 154.792 29.9806C154.223 29.4454 153.298 28.9583 152.013 28.5212L149.835 27.7545C145.599 26.271 143.48 23.8004 143.48 20.3464C143.48 17.9628 144.29 16.07 145.912 14.6717C147.534 13.2734 149.629 12.5734 152.194 12.5734C155.437 12.5734 158.161 13.7661 160.364 16.1496L156.843 19.763C155.656 18.2795 154.132 17.5368 152.268 17.5368C151.324 17.5368 150.511 17.7368 149.835 18.1387C149.157 18.5406 148.818 19.1055 148.818 19.8352C148.818 20.5649 149.109 21.1853 149.69 21.6243C150.27 22.0613 151.3 22.5484 152.776 23.0837L154.845 23.8504C158.96 25.408 161.006 27.9749 160.982 31.5512C160.982 33.8625 160.147 35.7423 158.476 37.1906C156.806 38.6389 154.639 39.3612 151.976 39.3612Z" fill="white"/>
<path d="M166.246 38.9222V13.0104H175.689C177.843 13.0104 179.658 13.7475 181.136 15.218C182.612 16.6904 183.351 18.4609 183.351 20.5278C183.351 22.402 182.672 23.9466 181.316 25.1634C183.857 26.4284 185.129 28.473 185.129 31.2955C185.129 33.4605 184.366 35.2737 182.84 36.7331C181.314 38.1925 179.415 38.9222 177.139 38.9222H166.245H166.246ZM171.511 23.6318H175.178C176.098 23.6318 176.837 23.3577 177.393 22.8113C177.95 22.2631 178.228 21.576 178.228 20.75C178.228 19.924 177.942 19.2591 177.375 18.6887C176.805 18.1183 176.074 17.8312 175.178 17.8312H171.511V23.6336V23.6318ZM171.511 34.068H176.776C177.767 34.068 178.556 33.7939 179.136 33.2475C179.717 32.6993 180.008 31.9882 180.008 31.1122C180.008 30.2361 179.717 29.5194 179.136 28.9582C178.556 28.3989 177.769 28.1193 176.776 28.1193H171.511V34.068Z" fill="white"/>
</svg>
