<svg width="100%" height="auto" viewBox="0 0 334 93" fill="none" xmlns="http://www.w3.org/2000/svg">
<path d="M145.121 38.5476L136.677 11.3973H142.522L147.754 29.4467L153.37 11.3973H158.222L163.798 29.4467L169.07 11.3973H174.954L166.51 38.5476H161.546L155.814 19.8857L150.082 38.5476H145.118H145.121Z" fill="white"/>
<path d="M184.582 38.9679C181.678 38.9679 179.263 38.0509 177.342 36.2135C175.42 34.3794 174.458 31.9693 174.458 28.9865C174.458 26.0036 175.414 23.7557 177.322 21.8554C179.23 19.9551 181.625 19.005 184.502 19.005C187.152 19.005 189.377 19.826 191.187 21.4714C192.996 23.1168 193.899 25.4309 193.899 28.4104C193.899 29.2513 193.872 29.8505 193.823 30.2081H179.535C179.687 31.4562 180.242 32.4328 181.195 33.1313C182.151 33.8332 183.289 34.1841 184.615 34.1841C186.854 34.1841 188.498 33.3796 189.543 31.774L193.439 34.6807C191.478 37.5344 188.524 38.9646 184.575 38.9646L184.582 38.9679ZM179.73 26.6558H188.67C188.441 25.56 187.926 24.7323 187.122 24.1695C186.318 23.6101 185.395 23.3287 184.354 23.3287C183.312 23.3287 182.303 23.6101 181.413 24.1695C180.52 24.7323 179.961 25.56 179.733 26.6558H179.73Z" fill="white"/>
<path d="M202.802 38.5476L214.49 11.3973H219.419L231.147 38.5476H225.339L222.703 32.3535H211.127L208.531 38.5476H202.799H202.802ZM216.938 18.7005L213.194 27.4968H220.642L216.938 18.7005Z" fill="white"/>
<path d="M233.67 38.5475V19.4287H238.902V21.723C239.233 21.0079 239.812 20.4087 240.642 19.9253C241.469 19.442 242.369 19.2003 243.334 19.2003C244.174 19.2003 244.912 19.3162 245.55 19.5446L244.747 24.4774C244.389 24.3251 243.854 24.249 243.143 24.249C241.181 24.249 239.766 24.9641 238.902 26.3909V38.5508H233.67V38.5475Z" fill="white"/>
<path d="M256.746 38.9679C253.842 38.9679 251.428 38.0509 249.506 36.2135C247.585 34.3794 246.622 31.9693 246.622 28.9865C246.622 26.0036 247.578 23.7557 249.486 21.8554C251.395 19.9551 253.789 19.005 256.667 19.005C259.316 19.005 261.542 19.826 263.351 21.4714C265.16 23.1168 266.063 25.4309 266.063 28.4104C266.063 29.2513 266.037 29.8505 265.987 30.2081H251.699C251.851 31.4562 252.407 32.4328 253.359 33.1313C254.315 33.8332 255.453 34.1841 256.779 34.1841C259.018 34.1841 260.662 33.3796 261.707 31.774L265.603 34.6807C263.642 37.5344 260.688 38.9646 256.739 38.9646L256.746 38.9679ZM251.894 26.6558H260.834C260.606 25.56 260.09 24.7323 259.286 24.1695C258.482 23.6101 257.56 23.3287 256.518 23.3287C255.476 23.3287 254.467 23.6101 253.578 24.1695C252.685 24.7323 252.126 25.56 251.897 26.6558H251.894Z" fill="white"/>
<path d="M165.323 75.0008C163.183 75.0008 161.235 74.5737 159.479 73.7196C157.723 72.8654 156.36 71.6736 155.391 70.1441L159.671 66.5885C160.332 67.5817 161.185 68.3663 162.231 68.939C163.276 69.5118 164.37 69.7998 165.515 69.7998C166.659 69.7998 167.496 69.5581 168.171 69.0748C168.845 68.5914 169.183 67.9525 169.183 67.1646C169.183 66.3766 168.885 65.7377 168.286 65.1749C167.688 64.6154 166.712 64.1056 165.363 63.6454L163.071 62.8409C158.616 61.2849 156.386 58.6994 156.386 55.0776C156.386 52.5781 157.24 50.5983 158.946 49.1317C160.653 47.6651 162.856 46.9335 165.554 46.9335C168.968 46.9335 171.832 48.1816 174.15 50.6811L170.446 54.4651C169.199 52.9124 167.595 52.1344 165.634 52.1344C164.642 52.1344 163.788 52.3463 163.074 52.7668C162.36 53.1872 162.006 53.7798 162.006 54.5445C162.006 55.3093 162.31 55.9582 162.922 56.4183C163.534 56.8785 164.615 57.3884 166.17 57.9478L168.346 58.7523C172.675 60.3844 174.828 63.0727 174.802 66.8203C174.802 69.2436 173.922 71.2134 172.166 72.7297C170.41 74.2459 168.128 75.0041 165.326 75.0041L165.323 75.0008Z" fill="white"/>
<path d="M194.395 74.5405L190.803 63.6817L187.251 74.5405H182.055L175.715 55.4218H181.291L184.919 67.6577L188.779 55.4218H192.791L196.687 67.6577L200.279 55.4218H205.895L199.591 74.5405H194.395Z" fill="white"/>
<path d="M211.203 53.0514C210.31 53.0514 209.536 52.727 208.875 52.0748C208.213 51.4259 207.883 50.6413 207.883 49.7243C207.883 48.8072 208.213 48.0226 208.875 47.3737C209.536 46.7248 210.314 46.3971 211.203 46.3971C212.146 46.3971 212.943 46.7215 213.591 47.3737C214.239 48.0259 214.564 48.8072 214.564 49.7243C214.564 50.6413 214.239 51.4259 213.591 52.0748C212.943 52.7237 212.146 53.0514 211.203 53.0514ZM208.604 74.5405V55.4218H213.836V74.5405H208.604Z" fill="white"/>
<path d="M225.3 74.961C221.681 74.961 219.059 73.736 217.431 71.2895L221.023 68.2305C221.939 69.7104 223.365 70.4486 225.303 70.4486C225.888 70.4486 226.385 70.3327 226.791 70.1043C227.198 69.8759 227.403 69.5316 227.403 69.0714C227.403 68.6642 227.231 68.3265 226.887 68.0584C226.543 67.7902 225.862 67.5187 224.843 67.2373L223.431 66.893C221.675 66.4329 220.342 65.6681 219.439 64.5988C218.536 63.5295 218.106 62.2549 218.159 60.775C218.209 59.0403 218.903 57.6465 220.243 56.5871C221.579 55.531 223.279 55.0013 225.343 55.0013C228.27 55.0013 230.476 56.0707 231.951 58.2126L228.514 61.0035C227.621 59.8812 226.54 59.3217 225.267 59.3217C224.757 59.3217 224.311 59.4376 223.93 59.666C223.547 59.8944 223.358 60.2155 223.358 60.6227C223.358 61.3875 223.983 61.9371 225.23 62.2681L227.026 62.8044C230.717 63.7976 232.566 65.774 232.566 68.7304C232.566 70.5413 231.878 72.0311 230.502 73.203C229.126 74.375 227.393 74.961 225.306 74.961H225.3Z" fill="white"/>
<path d="M242.835 74.961C239.217 74.961 236.594 73.736 234.967 71.2895L238.559 68.2305C239.475 69.7104 240.9 70.4486 242.838 70.4486C243.424 70.4486 243.92 70.3327 244.327 70.1043C244.734 69.8759 244.939 69.5316 244.939 69.0714C244.939 68.6642 244.767 68.3265 244.423 68.0584C244.079 67.7902 243.397 67.5187 242.379 67.2373L240.966 66.893C239.21 66.4329 237.877 65.6681 236.974 64.5988C236.071 63.5295 235.642 62.2549 235.694 60.775C235.744 59.0403 236.439 57.6465 237.778 56.5871C239.114 55.531 240.814 55.0013 242.878 55.0013C245.805 55.0013 248.011 56.0707 249.486 58.2126L246.05 61.0035C245.157 59.8812 244.075 59.3217 242.802 59.3217C242.293 59.3217 241.846 59.4376 241.466 59.666C241.082 59.8944 240.894 60.2155 240.894 60.6227C240.894 61.3875 241.519 61.9371 242.766 62.2681L244.562 62.8044C248.253 63.7976 250.101 65.774 250.101 68.7304C250.101 70.5413 249.414 72.0311 248.038 73.203C246.662 74.375 244.929 74.961 242.842 74.961H242.835Z" fill="white"/>
<path d="M254.104 74.5405V47.3903H264.036C266.301 47.3903 268.213 48.1616 269.767 49.7044C271.319 51.2471 272.096 53.101 272.096 55.2695C272.096 57.2327 271.382 58.8516 269.956 60.1261C272.632 61.4537 273.968 63.5923 273.968 66.552C273.968 68.8231 273.164 70.7201 271.56 72.2496C269.956 73.7791 267.955 74.5438 265.56 74.5438H254.1L254.104 74.5405ZM259.644 58.5205H263.503C264.472 58.5205 265.246 58.2325 265.835 57.6597C266.42 57.087 266.715 56.3653 266.715 55.4979C266.715 54.6305 266.414 53.9353 265.818 53.3361C265.22 52.7369 264.449 52.4389 263.507 52.4389H259.647V58.5205H259.644ZM259.644 69.4554H265.183C266.229 69.4554 267.055 69.1674 267.667 68.5947C268.279 68.0219 268.583 67.2737 268.583 66.3567C268.583 65.4397 268.279 64.6882 267.667 64.1022C267.055 63.5162 266.229 63.2216 265.183 63.2216H259.644V69.4554Z" fill="white"/>
<path d="M293.72 72.0741C291.758 73.9976 289.39 74.961 286.615 74.961C283.84 74.961 281.472 73.9976 279.511 72.0741C277.55 70.1507 276.571 67.7869 276.571 64.9795C276.571 62.1721 277.55 59.8415 279.511 57.9048C281.472 55.9681 283.84 54.998 286.615 54.998C289.39 54.998 291.758 55.9681 293.72 57.9048C295.681 59.8415 296.66 62.2019 296.66 64.9795C296.66 67.7571 295.678 70.1474 293.72 72.0741ZM286.612 70.0679C287.961 70.0679 289.089 69.5912 289.992 68.6344C290.895 67.6777 291.348 66.4627 291.348 64.9828C291.348 63.503 290.895 62.288 289.992 61.3312C289.089 60.3745 287.961 59.8977 286.612 59.8977C285.263 59.8977 284.098 60.3745 283.192 61.3312C282.289 62.288 281.836 63.5063 281.836 64.9828C281.836 66.4594 282.289 67.6777 283.192 68.6344C284.095 69.5912 285.236 70.0679 286.612 70.0679Z" fill="white"/>
<path d="M300.443 74.5405V55.4218H305.676V57.716C306.006 57.001 306.585 56.4017 307.415 55.9184C308.242 55.435 309.142 55.1934 310.108 55.1934C310.948 55.1934 311.685 55.3092 312.324 55.5377L311.52 60.4705C311.163 60.3182 310.627 60.242 309.916 60.242C307.954 60.242 306.539 60.9571 305.676 62.384V74.5438H300.443V74.5405Z" fill="white"/>
<path d="M323.056 82.3436C319.517 82.3436 316.703 81.4497 314.612 79.6653L317.477 75.7654C319.054 77.0897 320.89 77.7551 322.977 77.7551C324.25 77.7551 325.378 77.391 326.357 76.6659C327.336 75.9409 327.829 74.8881 327.829 73.5109V72.3257C326.605 73.5507 324.965 74.1598 322.901 74.1598C320.149 74.1598 317.87 73.2428 316.064 71.4054C314.255 69.5713 313.352 67.3002 313.352 64.5988C313.352 61.8973 314.262 59.6229 316.084 57.7723C317.907 55.925 320.179 55.0013 322.904 55.0013C324.941 55.0013 326.585 55.6006 327.832 56.799V55.4218H333.064V73.4712C333.064 75.0768 332.777 76.4805 332.204 77.679C331.632 78.8774 330.848 79.8011 329.856 80.45C328.864 81.0988 327.799 81.5789 326.668 81.8834C325.533 82.188 324.33 82.3436 323.056 82.3436ZM323.708 69.419C325.441 69.419 326.813 68.7039 327.835 67.2771V61.8477C326.817 60.4705 325.441 59.7819 323.708 59.7819C322.256 59.7819 321.072 60.2288 320.156 61.1193C319.239 62.0132 318.78 63.1719 318.78 64.5988C318.78 66.0257 319.243 67.1546 320.175 68.0584C321.105 68.9622 322.282 69.4157 323.708 69.4157V69.419Z" fill="white"/>
<path d="M93.0099 26.1129C93.0099 23.3883 91.3529 21.0444 88.998 20.0346C89.7455 19.3394 90.2151 18.3496 90.2151 17.2504C90.2151 15.1515 88.5085 13.4432 86.4116 13.4432C84.3147 13.4432 82.6081 15.1515 82.6081 17.2504C82.6081 18.3496 83.0778 19.3394 83.8252 20.0346C81.4671 21.0444 79.8134 23.3883 79.8134 26.1129V27.4239H93.0132V26.1129H93.0099Z" fill="white"/>
<path d="M101.566 42.6891C102.314 41.9938 102.783 41.004 102.783 39.9048C102.783 37.8059 101.077 36.0977 98.9799 36.0977C96.883 36.0977 95.1764 37.8059 95.1764 39.9048C95.1764 41.004 95.646 41.9938 96.3935 42.6891C94.0353 43.6988 92.3783 46.0427 92.3783 48.7673V50.0783H105.578V48.7673C105.578 46.0427 103.921 43.6988 101.566 42.6891Z" fill="white"/>
<path d="M62.7739 20.0346C63.5213 19.3394 63.991 18.3496 63.991 17.2504C63.991 15.1515 62.2844 13.4432 60.1875 13.4432C58.0906 13.4432 56.384 15.1515 56.384 17.2504C56.384 18.3496 56.8536 19.3394 57.6011 20.0346C55.2429 21.0444 53.5892 23.3883 53.5892 26.1129V27.4239H66.7891V26.1129C66.7891 23.3883 65.1321 21.0444 62.7772 20.0346H62.7739Z" fill="white"/>
<path d="M111.531 66.5685C115.408 68.6641 118.923 71.3821 122.237 74.2888C125.541 77.2651 128.746 80.3505 131.2 84.1246C134.362 89.0806 131.783 91.2822 126.431 89.9314C121 88.6138 115.94 86.1441 110.962 83.7571C107.404 82.0224 103.921 80.1685 100.468 78.2682C99.2245 77.5862 97.9876 76.8976 96.7506 76.2057C93.7442 74.5206 90.7477 72.8222 87.7379 71.1537C76.2811 64.7013 53.2914 51.6145 41.904 45.0496C39.2449 43.4936 36.5692 41.9608 33.8968 40.418C32.6664 39.7096 31.4394 38.9945 30.2157 38.2761C26.5048 36.101 22.8203 33.8763 19.2153 31.5026C14.6246 28.4403 9.91816 25.3482 6.01212 21.3457C4.42127 19.7533 1.84149 16.2407 5.03975 14.7841C8.41991 13.622 11.8828 14.5987 15.2001 15.2012C21.6264 16.7108 27.9931 18.876 33.6917 22.2296C27.6624 19.0647 11.9092 13.973 5.63177 16.052C1.64305 18.2039 18.3156 28.5396 20.3166 29.7745C24.4244 32.274 29.2003 35.0449 34.2275 37.9086C34.2308 37.9086 34.2375 37.9152 34.2408 37.9152C45.0328 44.0597 56.9924 50.6279 66.0877 55.8819C75.5601 61.202 87.6883 68.3695 98.7284 74.6497C98.745 74.6596 98.7615 74.6695 98.778 74.6795C99.972 75.3581 101.153 76.0236 102.317 76.6791C102.327 76.6857 102.337 76.689 102.343 76.6956C105.707 78.586 108.932 80.3671 111.885 81.9396C114.326 83.2043 131.273 92.0502 131.177 87.5643C129.775 81.1054 117.283 70.1009 111.535 66.5718C116.605 70.6902 121.03 75.5833 124.94 80.7677C126.143 82.4462 127.294 84.0683 128.105 85.8031C126.984 85.4787 125.743 85.0086 124.741 84.555C118.113 81.5821 111.598 77.6723 105.244 73.8253C112.418 66.0587 116.813 55.6866 116.813 44.3014C116.81 20.2797 97.2897 0.740479 73.2978 0.740479C53.6353 0.740479 36.9892 13.867 31.618 31.8204C23.9382 27.6855 15.9244 23.6101 9.21038 18.2304C9.04501 18.0913 8.88625 17.9457 8.73411 17.8033C10.6326 17.6146 12.6038 17.7768 14.651 17.9556C21.1005 18.6674 27.5664 19.9751 33.6917 22.2296C30.1462 19.5248 26.1112 17.4557 21.9637 15.7143C17.2507 13.8703 4.93391 8.91436 1.54714 14.645C-1.56513 20.3558 8.02302 27.318 11.8232 30.5028C17.5516 34.9887 23.6406 38.9647 29.8155 42.7884C29.7989 43.2883 29.789 43.7916 29.789 44.2981C29.789 68.3132 49.3093 87.8524 73.3011 87.8524C81.9831 87.8524 90.0697 85.28 96.8664 80.8769C98.993 81.976 101.12 83.0719 103.243 84.1412C107.305 86.0911 111.379 87.9749 115.609 89.6037C117.739 90.428 119.899 91.2159 122.194 91.8516C124.88 92.5402 127.05 93.2089 130.139 92.9474C132.682 92.7421 135.07 90.8087 135.057 88.0808C135.116 80.5757 118.169 69.025 111.535 66.5718L111.531 66.5685ZM36.0301 34.1676L41.269 31.0524C42.0826 31.8039 43.1674 32.2673 44.3581 32.2673C45.5488 32.2673 46.6799 31.784 47.5001 31.006L68.8494 43.2552C68.77 43.5896 68.727 43.9372 68.727 44.2948C68.727 46.8174 70.7776 48.8733 73.2978 48.8733C74.505 48.8733 75.5998 48.3999 76.42 47.6319L97.6535 59.9903C97.594 60.285 97.5609 60.5896 97.5609 60.9007C97.5609 62.95 98.9136 64.6881 100.772 65.2707L100.703 71.0544C90.3475 64.6616 78.8609 57.9245 68.3566 51.8926C58.0408 46.0494 46.6204 39.7328 36.0334 34.1709L36.0301 34.1676ZM71.8955 15.38L71.9716 39.9148C71.2902 40.1201 70.6817 40.4843 70.1757 40.9577L48.8462 28.5429C48.8992 28.2648 48.9289 27.9801 48.9289 27.6888C48.9289 25.6792 47.6258 23.971 45.8233 23.3585L45.9159 15.6978C50.4536 11.341 56.0266 8.05691 62.2313 6.24932L68.8527 9.96713C68.7733 10.3048 68.727 10.6557 68.727 11.0199C68.727 13.0526 70.0599 14.7807 71.8988 15.3733L71.8955 15.38ZM77.743 9.97375L84.3578 6.25925C90.5625 8.06353 96.1354 11.3476 100.676 15.7044L100.769 23.3254C98.9103 23.9081 97.5576 25.6461 97.5576 27.6954C97.5576 28.0066 97.5907 28.3112 97.6502 28.6058L76.4167 40.9643C75.9107 40.4909 75.2988 40.1267 74.6208 39.9215L74.6969 15.3866C76.5325 14.794 77.8687 13.0659 77.8687 11.0331C77.8687 10.6723 77.8224 10.3214 77.743 9.98037V9.97375ZM112.877 44.2948C112.877 47.5458 112.474 50.7041 111.736 53.7267L105.267 57.5736C104.447 56.7989 103.349 56.3222 102.135 56.3222C100.921 56.3222 99.724 56.8386 98.8938 57.6762L77.743 45.3641C77.8257 45.0198 77.872 44.6656 77.872 44.2981C77.872 43.9306 77.8257 43.5929 77.7496 43.2585L99.0327 31.0457C99.8496 31.8039 100.938 32.2707 102.135 32.2707C103.332 32.2707 104.447 31.7939 105.267 31.0192L111.743 34.8662C112.481 37.8888 112.881 41.0438 112.881 44.2948H112.877ZM103.392 65.2939C105.304 64.7444 106.706 62.9831 106.706 60.8974C106.706 60.5333 106.66 60.1823 106.58 59.8447L110.648 57.4279C109.005 62.1124 106.504 66.3897 103.336 70.081L103.395 65.2939H103.392ZM102.132 62.8507C101.057 62.8507 100.18 61.9767 100.18 60.8974C100.18 59.8182 101.054 58.9442 102.132 58.9442C103.21 58.9442 104.083 59.8182 104.083 60.8974C104.083 61.9767 103.207 62.8507 102.132 62.8507ZM102.132 29.642C101.057 29.642 100.18 28.768 100.18 27.6888C100.18 26.6095 101.054 25.7355 102.132 25.7355C103.21 25.7355 104.083 26.6095 104.083 27.6888C104.083 28.768 103.207 29.642 102.132 29.642ZM75.2492 44.2948C75.2492 45.3707 74.376 46.248 73.2978 46.248C72.2196 46.248 71.3465 45.3707 71.3465 44.2948C71.3465 43.2188 72.2196 42.3415 73.2978 42.3415C74.376 42.3415 75.2492 43.2155 75.2492 44.2948ZM73.2978 12.9765C72.2229 12.9765 71.3465 12.1025 71.3465 11.0232C71.3465 9.94395 72.2196 9.06995 73.2978 9.06995C74.376 9.06995 75.2492 9.94395 75.2492 11.0232C75.2492 12.1025 74.376 12.9765 73.2978 12.9765ZM46.3095 27.6921C46.3095 28.768 45.433 29.6453 44.3581 29.6453C43.2832 29.6453 42.4067 28.7714 42.4067 27.6921C42.4067 26.6128 43.2799 25.7388 44.3581 25.7388C45.4363 25.7388 46.3095 26.6128 46.3095 27.6921ZM110.638 31.1583L106.577 28.7449C106.656 28.4072 106.703 28.053 106.703 27.6921C106.703 25.6064 105.3 23.8452 103.389 23.2956L103.329 18.5118C106.494 22.2031 108.991 26.4771 110.635 31.1616L110.638 31.1583ZM80.5973 5.36208L76.4332 7.70268C75.613 6.928 74.5117 6.45127 73.3011 6.45127C72.0906 6.45127 70.986 6.928 70.169 7.70268L65.9918 5.35546C68.3599 4.91184 70.8041 4.6801 73.3011 4.6801C75.7982 4.6801 78.2325 4.92177 80.6006 5.36539L80.5973 5.36208ZM43.26 18.5151L43.2038 23.2691C41.2425 23.7823 39.7873 25.57 39.7873 27.6921C39.7873 28.0761 39.8402 28.4436 39.9295 28.7978L35.9573 31.1583C37.6011 26.4771 40.1015 22.2031 43.2633 18.5151H43.26ZM35.9573 57.4312L40.0188 59.8447C39.9394 60.1823 39.8931 60.5366 39.8931 60.8974C39.8931 62.9831 41.2954 64.7444 43.2071 65.2939L43.2667 70.0777C40.1015 66.3864 37.6044 62.1124 35.9606 57.4312H35.9573ZM44.4639 62.8507C43.389 62.8507 42.5126 61.9767 42.5126 60.8974C42.5126 59.8182 43.389 58.9442 44.4639 58.9442C45.5388 58.9442 46.4153 59.8182 46.4153 60.8974C46.4153 61.9767 45.5421 62.8507 44.4639 62.8507ZM65.9984 83.2275L70.1426 80.9001C70.9529 81.6284 72.0212 82.0787 73.192 82.0787C74.3628 82.0787 75.5039 81.602 76.3208 80.8273L80.5973 83.2308C78.2292 83.6744 75.7916 83.9127 73.2945 83.9127C70.7974 83.9127 68.3632 83.6711 65.9951 83.2308L65.9984 83.2275ZM71.2439 77.5001C71.2439 76.4242 72.1204 75.5469 73.1953 75.5469C74.2702 75.5469 75.1467 76.4209 75.1467 77.5001C75.1467 78.5794 74.2735 79.4534 73.1953 79.4534C72.1171 79.4534 71.2439 78.5761 71.2439 77.5001ZM84.3677 82.3402L77.6371 78.5595C77.7165 78.2185 77.7661 77.8676 77.7661 77.5034C77.7661 74.9807 75.7155 72.9282 73.1953 72.9282C70.6751 72.9282 68.6212 74.9807 68.6212 77.5034C68.6212 77.904 68.6774 78.2913 68.7766 78.6621L62.2379 82.3336C56.0332 80.5293 50.4602 77.2452 45.9192 72.8884L45.8266 65.2674C47.6853 64.6848 49.0348 62.9467 49.0348 60.8974C49.0348 58.3748 46.9842 56.3222 44.4639 56.3222C43.2501 56.3222 42.1521 56.7989 41.3318 57.5736L34.8559 53.7267C34.1878 50.9855 33.8075 48.1284 33.7413 45.1986C35.7423 46.4169 37.7499 47.6285 39.7509 48.8402C56.9692 59.1031 74.8887 69.3759 92.8115 78.7681C90.1722 80.2678 87.3444 81.4761 84.371 82.3435L84.3677 82.3402Z" fill="white"/>
</svg>
