<svg width="100%" height="auto" viewBox="0 0 159 109" fill="none" xmlns="http://www.w3.org/2000/svg">
<path d="M109.124 31.6151H93.4853V30.0688C93.4853 26.8592 95.447 24.1003 98.2394 22.9101C97.3537 22.0909 96.7957 20.9255 96.7957 19.6307C96.7957 17.1557 98.8174 15.1438 101.305 15.1438C103.792 15.1438 105.813 17.1557 105.813 19.6307C105.813 20.9255 105.255 22.0909 104.37 22.9101C107.162 24.0978 109.124 26.8592 109.124 30.0688V31.6151ZM119.26 49.5928C120.146 48.7736 120.704 47.6083 120.704 46.3135C120.704 43.8409 118.682 41.829 116.195 41.829C113.708 41.829 111.686 43.8409 111.686 46.3135C111.686 47.6083 112.244 48.7736 113.13 49.5928C110.337 50.7805 108.376 53.5419 108.376 56.7515V58.2978H124.014V56.7515C124.014 53.5419 122.052 50.783 119.26 49.5928ZM73.3029 22.9126C74.1887 22.0933 74.7467 20.928 74.7467 19.6332C74.7467 17.1582 72.7249 15.1463 70.2378 15.1463C67.7507 15.1463 65.7289 17.1582 65.7289 19.6332C65.7289 20.928 66.2869 22.0933 67.1727 22.9126C64.3803 24.1003 62.4186 26.8617 62.4186 30.0713V31.6176H78.057V30.0713C78.057 26.8617 76.0954 24.1028 73.3029 22.9126ZM158.929 103.048C158.944 106.26 156.117 108.538 153.104 108.777C149.441 109.086 146.874 108.297 143.691 107.488C140.971 106.738 138.414 105.809 135.889 104.841C130.883 102.923 126.056 100.702 121.242 98.4066C118.725 97.1467 116.205 95.8569 113.688 94.5646C105.636 99.7512 96.0575 102.782 85.7712 102.782C57.3492 102.782 34.2243 79.769 34.2243 51.4852C34.2243 50.8901 34.2368 50.2975 34.2568 49.7074C26.9405 45.2055 19.7293 40.5243 12.941 35.238C8.43709 31.4856 -2.92019 23.2885 0.767988 16.5606C4.78144 9.81271 19.374 15.6493 24.9563 17.8205C29.868 19.8698 34.6522 22.305 38.8508 25.4922C31.592 22.8379 23.9329 21.2966 16.2939 20.4599C13.8693 20.2508 11.5323 20.0615 9.28532 20.2831C9.46548 20.4524 9.65314 20.6218 9.84831 20.7861C17.8027 27.1206 27.2958 31.9238 36.3962 36.7918C42.7566 15.6468 62.4786 0.186401 85.7712 0.186401C114.193 0.186401 137.318 23.1989 137.318 51.4827C137.318 64.8938 132.109 77.1072 123.614 86.2555C131.14 90.7872 138.859 95.3937 146.711 98.8947C147.897 99.43 149.366 99.9853 150.695 100.366C149.736 98.3195 148.37 96.4121 146.946 94.4351C142.315 88.3296 137.07 82.5653 131.065 77.7173C137.871 81.8731 152.671 94.836 154.333 102.443C154.448 107.727 134.373 97.3085 131.481 95.8195C127.983 93.9695 124.162 91.8704 120.178 89.6443C120.178 89.6443 120.156 89.6319 120.146 89.6269C118.767 88.855 117.371 88.0707 115.955 87.2714C115.935 87.2589 115.915 87.249 115.895 87.2365C102.813 79.8437 88.446 71.3977 77.2263 65.1353C66.452 58.9477 52.2823 51.2113 39.4988 43.9729C39.4988 43.9729 39.4888 43.9679 39.4838 43.9629C33.5287 40.5915 27.8738 37.3296 23.0071 34.3839C20.6351 32.9298 0.885589 20.7587 5.61216 18.2239C13.0511 15.7738 31.7096 21.7697 38.8558 25.4972C32.1025 21.548 24.5635 19.0008 16.9469 17.2204C13.0185 16.5108 8.915 15.3604 4.91156 16.7299C1.1258 18.443 4.18093 22.5814 6.06505 24.4564C10.6915 29.1699 16.2663 32.8103 21.7085 36.4183C25.9797 39.2145 30.346 41.834 34.7397 44.3962C36.191 45.2428 37.6472 46.0819 39.101 46.9186C42.2662 48.7363 45.4364 50.5415 48.5842 52.3741C62.0733 60.1056 89.3117 75.5211 102.883 83.1181C106.446 85.0827 109.995 87.0846 113.558 89.0691C115.021 89.8834 116.49 90.6951 117.961 91.4994C122.055 93.7379 126.181 95.9241 130.395 97.9659C136.29 100.777 142.282 103.688 148.718 105.239C155.058 106.83 158.116 104.236 154.368 98.3991C151.46 93.9545 147.664 90.3216 143.751 86.8157C139.825 83.3895 135.659 80.1898 131.068 77.7223C138.927 80.6106 159.002 94.2185 158.932 103.055L158.929 103.048ZM79.9111 60.4293C92.3594 67.5307 105.964 75.4663 118.232 82.9961L118.317 76.1834C116.115 75.4987 114.513 73.4519 114.513 71.0391C114.513 70.6731 114.551 70.3145 114.621 69.9684L89.4669 55.4119C88.4985 56.3158 87.1999 56.8736 85.7687 56.8736C82.7811 56.8736 80.3515 54.4558 80.3515 51.4827C80.3515 51.0619 80.4066 50.6536 80.4966 50.2576L55.2074 35.8331C54.2365 36.7494 52.9279 37.3172 51.4842 37.3172C50.0404 37.3172 48.7893 36.7719 47.8235 35.8879L41.6157 39.5557C54.1539 46.1043 67.6856 53.5444 79.9061 60.4293H79.9111ZM80.354 12.2977C80.354 11.8719 80.4091 11.4586 80.5042 11.0602L72.6624 6.6803C65.3136 8.80675 58.7129 12.6737 53.3358 17.8056L53.2257 26.8268C55.3625 27.5489 56.9063 29.5608 56.9063 31.9263C56.9063 32.2699 56.8713 32.6061 56.8087 32.9298L82.0755 47.551C82.676 46.9933 83.3991 46.565 84.2023 46.321L84.1123 17.4221C81.9354 16.7224 80.3565 14.6881 80.3565 12.2927L80.354 12.2977ZM91.1883 12.2977C91.1883 14.6931 89.6095 16.7274 87.4326 17.4271L87.3425 46.326C88.1482 46.57 88.8713 46.9958 89.4694 47.556L114.624 32.9995C114.553 32.6534 114.516 32.2948 114.516 31.9288C114.516 29.516 116.117 27.4692 118.319 26.7845L118.209 17.8081C112.829 12.6762 106.229 8.81173 98.8775 6.68528L91.0407 11.0627C91.1358 11.4611 91.1908 11.8744 91.1908 12.3027L91.1883 12.2977ZM131.31 40.3774L123.639 35.8456C122.668 36.7569 121.364 37.3196 119.928 37.3196C118.492 37.3196 117.221 36.7694 116.252 35.8779L91.0382 50.2601C91.1308 50.6536 91.1833 51.0619 91.1833 51.4852C91.1833 51.9085 91.1258 52.3393 91.0282 52.7427L116.085 67.2444C117.066 66.2608 118.424 65.6508 119.926 65.6508C121.427 65.6508 122.665 66.2135 123.636 67.1248L131.303 62.5956C132.179 59.0349 132.657 55.3173 132.657 51.4852C132.657 47.6531 132.184 43.9405 131.308 40.3798L131.31 40.3774ZM121.352 81.8532C125.103 77.5056 128.065 72.4659 130.014 66.9506L125.195 69.7991C125.29 70.1975 125.345 70.6108 125.345 71.0391C125.345 73.4967 123.684 75.5684 121.419 76.2158L121.349 81.8532H121.352ZM122.24 71.0366C122.24 69.7692 121.204 68.7384 119.931 68.7384C118.657 68.7384 117.621 69.7692 117.621 71.0366C117.621 72.304 118.657 73.3349 119.931 73.3349C121.204 73.3349 122.24 72.304 122.24 71.0366ZM122.24 31.9288C122.24 30.6614 121.204 29.6306 119.931 29.6306C118.657 29.6306 117.621 30.6614 117.621 31.9288C117.621 33.1962 118.657 34.2271 119.931 34.2271C121.204 34.2271 122.24 33.1962 122.24 31.9288ZM85.7712 49.1845C84.4976 49.1845 83.4617 50.2153 83.4617 51.4827C83.4617 52.7501 84.4976 53.781 85.7712 53.781C87.0448 53.781 88.0807 52.7501 88.0807 51.4827C88.0807 50.2153 87.0448 49.1845 85.7712 49.1845ZM88.0807 12.2977C88.0807 11.0303 87.0448 9.99946 85.7712 9.99946C84.4976 9.99946 83.4617 11.0303 83.4617 12.2977C83.4617 13.5651 84.4976 14.596 85.7712 14.596C87.0448 14.596 88.0807 13.5651 88.0807 12.2977ZM51.4867 29.6306C50.2131 29.6306 49.1772 30.6614 49.1772 31.9288C49.1772 33.1962 50.2131 34.2271 51.4867 34.2271C52.7603 34.2271 53.7961 33.1962 53.7961 31.9288C53.7961 30.6614 52.7603 29.6306 51.4867 29.6306ZM121.352 21.1148L121.422 26.7496C123.684 27.397 125.348 29.4712 125.348 31.9263C125.348 32.3546 125.293 32.7679 125.198 33.1663L130.009 36.0099C128.063 30.4946 125.103 25.4598 121.354 21.1123L121.352 21.1148ZM85.7712 4.82277C82.8111 4.82277 79.9186 5.09915 77.1112 5.61956L82.0605 8.38345C83.0313 7.47212 84.3349 6.90938 85.7712 6.90938C87.2074 6.90938 88.511 7.47212 89.4819 8.38345L94.4161 5.62703C91.6112 5.10663 88.7262 4.82277 85.7687 4.82277H85.7712ZM41.5331 36.0124L46.2396 33.2336C46.1345 32.8153 46.072 32.3795 46.072 31.9288C46.072 29.4289 47.796 27.3248 50.1205 26.7198L50.188 21.1223C46.4423 25.4673 43.4798 30.5021 41.5331 36.0149V36.0124ZM50.188 81.8507L50.118 76.2158C47.856 75.5684 46.1946 73.4942 46.1946 71.0391C46.1946 70.6108 46.2496 70.1975 46.3447 69.7991L41.5331 66.9555C43.4798 72.4684 46.4398 77.5056 50.188 81.8507ZM53.9213 71.0366C53.9213 69.7692 52.8854 68.7384 51.6118 68.7384C50.3382 68.7384 49.3023 69.7692 49.3023 71.0366C49.3023 72.304 50.3382 73.3349 51.6118 73.3349C52.8854 73.3349 53.9213 72.304 53.9213 71.0366ZM85.7712 98.1427C88.7287 98.1427 91.6162 97.8613 94.4211 97.3384L89.3568 94.5098C88.3859 95.4186 87.0848 95.9814 85.6486 95.9814C84.2123 95.9814 82.9938 95.4535 82.0355 94.5944L77.1262 97.3359C79.9312 97.8563 82.8161 98.1402 85.7712 98.1402V98.1427ZM85.6461 92.8913C86.9197 92.8913 87.9556 91.8604 87.9556 90.593C87.9556 89.3256 86.9197 88.2948 85.6461 88.2948C84.3725 88.2948 83.3366 89.3256 83.3366 90.593C83.3366 91.8604 84.3725 92.8913 85.6461 92.8913ZM108.886 92.0771C87.6553 81.0165 66.427 68.9176 46.027 56.8312C43.6574 55.402 41.2804 53.9777 38.9083 52.5435C38.9859 55.9971 39.4363 59.3586 40.2295 62.5881L47.9011 67.1199C48.8719 66.2085 50.1755 65.6458 51.6118 65.6458C54.5993 65.6458 57.0289 68.0636 57.0289 71.0366C57.0289 73.4494 55.4276 75.4962 53.2257 76.181L53.3358 85.1574C58.7154 90.2892 65.3161 94.1562 72.6674 96.2802L80.4116 91.955C80.2965 91.5193 80.2289 91.0636 80.2289 90.5905C80.2289 87.6175 82.6585 85.1997 85.6461 85.1997C88.6336 85.1997 91.0632 87.6175 91.0632 90.5905C91.0632 91.0188 91.0082 91.4346 90.9131 91.833L98.8875 96.2876C102.411 95.2667 105.761 93.845 108.889 92.0771H108.886Z" fill="white"/>
</svg>
