<svg width="100%" height="auto" viewBox="0 0 159 108" fill="none" xmlns="http://www.w3.org/2000/svg">
<path d="M109.143 31.3175H93.6067V29.7871C93.6067 26.6081 95.5567 23.8742 98.3307 22.698C97.4518 21.8851 96.898 20.7316 96.898 19.4509C96.898 16.9986 98.9075 15.0094 101.375 15.0094C103.842 15.0094 105.852 17.0031 105.852 19.4509C105.852 20.7316 105.298 21.8896 104.419 22.698C107.193 23.8742 109.143 26.6081 109.143 29.7871V31.3175ZM119.214 49.1288C120.092 48.3159 120.646 47.1624 120.646 45.8818C120.646 43.434 118.637 41.4403 116.169 41.4403C113.702 41.4403 111.693 43.434 111.693 45.8818C111.693 47.167 112.246 48.3205 113.125 49.1288C110.351 50.305 108.401 53.039 108.401 56.218V57.7484H123.938V56.218C123.938 53.039 121.987 50.305 119.214 49.1288ZM73.5525 22.698C74.4314 21.8851 74.9853 20.7316 74.9853 19.4509C74.9853 16.9986 72.9757 15.0094 70.5084 15.0094C68.0411 15.0094 66.0316 17.0031 66.0316 19.4509C66.0316 20.7316 66.5855 21.8896 67.4644 22.698C64.6904 23.8742 62.7403 26.6081 62.7403 29.7871V31.3175H78.2765V29.7871C78.2765 26.6081 76.3265 23.8742 73.5525 22.698ZM158.631 102.077C158.644 105.256 155.834 107.513 152.84 107.754C149.201 108.058 146.647 107.277 143.488 106.473C140.787 105.728 138.247 104.811 135.738 103.852C130.763 101.954 125.965 99.7562 121.186 97.481C118.687 96.2321 116.183 94.9559 113.679 93.6753C105.682 98.8161 96.161 101.813 85.9439 101.813C57.705 101.813 34.7303 79.0202 34.7303 51.0044C34.7303 50.414 34.7395 49.8282 34.7624 49.2424C27.4932 44.7827 20.3294 40.146 13.5821 34.9098C9.10526 31.1949 -2.17837 23.075 1.48824 16.4082C5.47528 9.72329 19.9724 15.5045 25.5203 17.6571C30.4 19.6871 35.1515 22.0985 39.3262 25.2548C32.112 22.6253 24.5041 21.0995 16.9146 20.2684C14.5022 20.0595 12.1814 19.8733 9.95211 20.0913C10.1306 20.2593 10.3183 20.4273 10.5106 20.5908C18.416 26.867 27.8457 31.6218 36.8864 36.4448C43.208 15.4999 62.8044 0.186401 85.9485 0.186401C114.187 0.186401 137.162 22.9796 137.162 50.9954C137.162 64.2789 131.989 76.3771 123.544 85.4372C131.024 89.9286 138.691 94.4882 146.496 97.9578C147.677 98.4891 149.132 99.0387 150.455 99.4156C149.503 97.3901 148.148 95.5009 146.729 93.539C142.129 87.4899 136.915 81.7814 130.95 76.9766C137.711 81.0956 152.419 93.9341 154.067 101.468C154.181 106.7 134.232 96.3819 131.362 94.906C127.888 93.0713 124.089 90.9959 120.134 88.7887C120.134 88.7887 120.111 88.7751 120.102 88.7706C118.733 88.0076 117.346 87.231 115.936 86.4363C115.918 86.4272 115.895 86.4136 115.876 86.4045C102.881 79.0793 88.6035 70.714 77.4571 64.5105C66.7548 58.3796 52.6743 50.7183 39.9716 43.5475C39.9716 43.5475 39.9625 43.543 39.9579 43.5384C34.0392 40.2005 28.4225 36.967 23.584 34.0515C21.2266 32.6118 1.60267 20.5545 6.29923 18.0431C13.6874 15.618 32.231 21.5536 39.3262 25.2503C32.6155 21.3401 25.1267 18.8151 17.56 17.053C13.6553 16.3491 9.57675 15.2138 5.59886 16.5671C1.83612 18.2656 4.87103 22.3619 6.74325 24.2194C11.3391 28.8879 16.8779 32.4938 22.284 36.0679C26.5274 38.8381 30.8669 41.4312 35.2339 43.9698C36.6758 44.8054 38.1223 45.641 39.5688 46.4676C42.7136 48.2705 45.8629 50.0553 48.994 51.8718C62.397 59.5286 89.4595 74.8013 102.945 82.3264C106.483 84.2701 110.013 86.2547 113.551 88.2211C115.007 89.0294 116.462 89.8287 117.927 90.628C121.992 92.8442 126.094 95.0105 130.282 97.0314C136.137 99.8152 142.097 102.699 148.487 104.234C154.786 105.81 157.825 103.239 154.099 97.4582C151.211 93.0576 147.439 89.4563 143.548 85.9821C139.648 82.5897 135.51 79.4199 130.946 76.9721C138.755 79.8331 158.699 93.312 158.631 102.063V102.077ZM80.1167 59.8601C92.4852 66.8947 106.003 74.7559 118.193 82.2128L118.275 75.4643C116.087 74.7877 114.499 72.7576 114.499 70.3689C114.499 70.0056 114.535 69.6514 114.604 69.3108L89.6105 54.8919C88.6492 55.7865 87.3584 56.3405 85.9348 56.3405C82.9685 56.3405 80.5516 53.9472 80.5516 50.9999C80.5516 50.5821 80.6065 50.1779 80.6981 49.7874L55.5719 35.5002C54.606 36.4085 53.306 36.9716 51.8732 36.9716C50.4405 36.9716 49.1954 36.4312 48.2341 35.5547L42.0682 39.1878C54.5282 45.6774 67.9725 53.0435 80.1121 59.8647L80.1167 59.8601ZM80.5607 12.1847C80.5607 11.7623 80.6156 11.3536 80.7118 10.9585L72.9208 6.6215C65.6196 8.7287 59.06 12.5571 53.718 17.6434L53.6082 26.5809C55.7321 27.2984 57.2656 29.2876 57.2656 31.6309C57.2656 31.9715 57.229 32.303 57.1695 32.6255L82.2727 47.1079C82.8678 46.5539 83.5865 46.1315 84.3876 45.8908L84.296 17.2665C82.1354 16.5717 80.5653 14.5598 80.5653 12.1847H80.5607ZM91.3225 12.1847C91.3225 14.5553 89.7524 16.5717 87.5918 17.2665L87.5003 45.8908C88.3013 46.1315 89.02 46.5539 89.6151 47.1079L114.608 32.689C114.54 32.3484 114.503 31.9897 114.503 31.6309C114.503 29.2422 116.096 27.2121 118.28 26.5354L118.17 17.6434C112.823 12.5616 106.268 8.73325 98.9624 6.62605L91.1761 10.9631C91.2722 11.3582 91.3271 11.7669 91.3271 12.1892L91.3225 12.1847ZM131.188 39.9961L123.567 35.5047C122.601 36.4084 121.305 36.9625 119.882 36.9625C118.458 36.9625 117.19 36.4175 116.229 35.5365L91.1761 49.7828C91.2676 50.1734 91.3225 50.5776 91.3225 50.9954C91.3225 51.4132 91.2676 51.8401 91.1669 52.2397L116.064 66.6041C117.039 65.6322 118.39 65.0237 119.877 65.0237C121.365 65.0237 122.601 65.5823 123.562 66.4815L131.179 61.9946C132.049 58.4659 132.525 54.7829 132.525 50.9908C132.525 47.1988 132.053 43.5157 131.188 39.9916V39.9961ZM121.296 81.082C125.022 76.7768 127.966 71.7858 129.902 66.318L125.114 69.1382C125.21 69.5333 125.265 69.942 125.265 70.3689C125.265 72.8031 123.613 74.8558 121.365 75.4961L121.296 81.082ZM122.175 70.3689C122.175 69.1109 121.145 68.0936 119.877 68.0936C118.609 68.0936 117.584 69.1155 117.584 70.3689C117.584 71.6223 118.614 72.6441 119.877 72.6441C121.141 72.6441 122.175 71.6223 122.175 70.3689ZM122.175 31.6309C122.175 30.373 121.145 29.3557 119.877 29.3557C118.609 29.3557 117.584 30.3775 117.584 31.6309C117.584 32.8843 118.614 33.9062 119.877 33.9062C121.141 33.9062 122.175 32.8843 122.175 31.6309ZM85.9393 48.7201C84.6714 48.7201 83.646 49.742 83.646 50.9954C83.646 52.2488 84.6759 53.2751 85.9393 53.2751C87.2027 53.2751 88.2327 52.2533 88.2327 50.9954C88.2327 49.7374 87.2027 48.7201 85.9393 48.7201ZM88.2373 12.1847C88.2373 10.9267 87.2073 9.90946 85.9439 9.90946C84.6805 9.90946 83.6506 10.9313 83.6506 12.1847C83.6506 13.4381 84.6805 14.4599 85.9439 14.4599C87.2073 14.4599 88.2373 13.4381 88.2373 12.1847ZM51.8778 29.3511C50.6098 29.3511 49.5845 30.373 49.5845 31.6264C49.5845 32.8798 50.6144 33.9016 51.8778 33.9016C53.1412 33.9016 54.1758 32.8798 54.1758 31.6264C54.1758 30.373 53.1458 29.3511 51.8778 29.3511ZM121.296 20.9178L121.365 26.4991C123.613 27.1395 125.265 29.1922 125.265 31.6264C125.265 32.0487 125.21 32.462 125.114 32.8571L129.893 35.6727C127.957 30.2094 125.018 25.223 121.292 20.9178H121.296ZM85.9393 4.78228C83.0006 4.78228 80.1213 5.05476 77.3335 5.57247L82.2498 8.31088C83.2157 7.40715 84.5111 6.84857 85.9393 6.84857C87.3675 6.84857 88.663 7.40715 89.6288 8.31088L94.5314 5.58156C91.7437 5.06839 88.8781 4.78228 85.9393 4.78228ZM41.9858 35.6727L46.6594 32.9207C46.5542 32.5074 46.4946 32.076 46.4946 31.6309C46.4946 29.1513 48.2066 27.0714 50.5183 26.4719L50.587 20.9269C46.8654 25.2321 43.9221 30.2185 41.9858 35.6773V35.6727ZM50.587 81.0775L50.5183 75.4961C48.2707 74.8558 46.6182 72.8031 46.6182 70.3689C46.6182 69.9465 46.6732 69.5333 46.7693 69.1382L41.9903 66.3225C43.9266 71.7858 46.8654 76.7723 50.587 81.0775ZM54.2948 70.3689C54.2948 69.1109 53.2648 68.0936 52.0014 68.0936C50.738 68.0936 49.7035 69.1155 49.7035 70.3689C49.7035 71.6223 50.7334 72.6441 52.0014 72.6441C53.2694 72.6441 54.2948 71.6223 54.2948 70.3689ZM85.9393 97.2175C88.8781 97.2175 91.7482 96.9405 94.5314 96.4228L89.5007 93.6208C88.5348 94.52 87.2439 95.0785 85.8157 95.0785C84.3876 95.0785 83.1791 94.5563 82.2269 93.707L77.3519 96.4228C80.1396 96.936 83.0051 97.2221 85.9439 97.2221L85.9393 97.2175ZM85.8203 92.0177C87.0883 92.0177 88.1137 90.9958 88.1137 89.7379C88.1137 88.4799 87.0837 87.4626 85.8203 87.4626C84.5569 87.4626 83.5224 88.4845 83.5224 89.7379C83.5224 90.9913 84.5523 92.0177 85.8203 92.0177ZM108.909 91.2093C87.8161 80.2509 66.7228 68.2708 46.4534 56.2951C44.1006 54.8782 41.7386 53.4659 39.3811 52.049C39.459 55.4686 39.9076 58.802 40.6949 61.9991L48.3165 66.4906C49.2824 65.5868 50.5778 65.0328 52.0014 65.0328C54.9677 65.0328 57.3846 67.4261 57.3846 70.3734C57.3846 72.7622 55.7916 74.7922 53.6082 75.4688L53.718 84.3609C59.0646 89.4427 65.6242 93.2756 72.9254 95.3783L80.6202 91.0957C80.5058 90.6643 80.4371 90.2102 80.4371 89.7424C80.4371 86.7996 82.8495 84.4018 85.8203 84.4018C88.7911 84.4018 91.2035 86.7951 91.2035 89.7424C91.2035 90.1648 91.1486 90.578 91.0525 90.9731L98.9762 95.3828C102.478 94.3701 105.806 92.9623 108.914 91.2093H108.909Z" fill="#1AD9BC"/>
</svg>
