<svg width="100%" height="auto" viewBox="0 0 186 53" fill="none" xmlns="http://www.w3.org/2000/svg">
<path d="M52.0409 15.083C52.0409 13.5587 51.1177 12.2475 49.8057 11.6826C50.2221 11.2937 50.4838 10.74 50.4838 10.1251C50.4838 8.95089 49.533 7.99524 48.3647 7.99524C47.1964 7.99524 46.2456 8.95089 46.2456 10.1251C46.2456 10.74 46.5072 11.2937 46.9237 11.6826C45.6098 12.2475 44.6885 13.5587 44.6885 15.083V15.8164H52.0427V15.083H52.0409Z" fill="white"/>
<path d="M56.8083 24.3561C57.2247 23.9672 57.4864 23.4134 57.4864 22.7985C57.4864 21.6244 56.5356 20.6687 55.3673 20.6687C54.199 20.6687 53.2481 21.6244 53.2481 22.7985C53.2481 23.4134 53.5098 23.9672 53.9263 24.3561C52.6124 24.921 51.6892 26.2322 51.6892 27.7564V28.4898H59.0435V27.7564C59.0435 26.2322 58.1203 24.921 56.8083 24.3561Z" fill="white"/>
<path d="M35.1949 11.6826C35.6113 11.2937 35.873 10.74 35.873 10.1251C35.873 8.95089 34.9221 7.99524 33.7538 7.99524C32.5856 7.99524 31.6347 8.95089 31.6347 10.1251C31.6347 10.74 31.8964 11.2937 32.3128 11.6826C30.999 12.2475 30.0776 13.5587 30.0776 15.083V15.8164H37.4319V15.083C37.4319 13.5587 36.5087 12.2475 35.1967 11.6826H35.1949Z" fill="white"/>
<path d="M62.3603 37.7148C64.52 38.8871 66.4788 40.4076 68.3252 42.0337C70.166 43.6987 71.9516 45.4248 73.3189 47.5361C75.0805 50.3086 73.6432 51.5402 70.6617 50.7846C67.636 50.0474 64.8166 48.6658 62.0433 47.3305C60.0606 46.36 58.1202 45.3229 56.1964 44.2598C55.5036 43.8783 54.8144 43.4931 54.1252 43.106C52.4502 42.1633 50.7807 41.2132 49.1038 40.2798C42.7206 36.6702 29.9119 29.3491 23.5675 25.6765C22.0859 24.8061 20.5952 23.9486 19.1063 23.0855C18.4208 22.6892 17.7371 22.2892 17.0553 21.8873C14.9878 20.6705 12.935 19.4259 10.9265 18.098C8.36878 16.3849 5.7466 14.6551 3.57035 12.416C2.68401 11.5251 1.24669 9.56014 3.0286 8.74524C4.91185 8.09518 6.84117 8.64153 8.68941 8.9786C12.2698 9.82313 15.817 11.0344 18.992 12.9105C15.6328 11.1399 6.85591 8.29149 3.35844 9.45457C1.13613 10.6584 10.4252 16.4404 11.5401 17.1313C13.8287 18.5295 16.4896 20.0797 19.2905 21.6817C19.2924 21.6817 19.2961 21.6854 19.2979 21.6854C25.3107 25.1228 31.9739 28.7972 37.0414 31.7364C42.3189 34.7126 49.0762 38.7223 55.2271 42.2356C55.2364 42.2411 55.2456 42.2467 55.2548 42.2522C55.92 42.6319 56.5779 43.0042 57.2265 43.3709C57.232 43.3746 57.2375 43.3764 57.2412 43.3801C59.1153 44.4376 60.9119 45.434 62.5575 46.3137C63.9174 47.0212 73.3594 51.9699 73.306 49.4604C72.5247 45.847 65.5648 39.6909 62.3621 37.7166C65.187 40.0205 67.6526 42.7578 69.8307 45.6581C70.5014 46.5971 71.1427 47.5046 71.5941 48.4751C70.9695 48.2936 70.2784 48.0306 69.7201 47.7769C66.0273 46.1137 62.3971 43.9265 58.8573 41.7744C62.8541 37.4295 65.3031 31.6271 65.3031 25.258C65.3013 11.8196 54.4256 0.888916 41.0585 0.888916C30.1036 0.888916 20.8292 8.23223 17.8366 18.2758C13.5579 15.9626 9.09297 13.6828 5.35226 10.6732C5.26012 10.5954 5.17167 10.5139 5.08691 10.4343C6.14462 10.3287 7.24288 10.4195 8.38352 10.5195C11.9768 10.9177 15.5793 11.6492 18.992 12.9105C17.0166 11.3974 14.7685 10.2398 12.4578 9.26566C9.83189 8.23408 2.96963 5.46159 1.08269 8.66746C-0.651304 11.8622 4.69072 15.757 6.808 17.5387C9.99958 20.0482 13.392 22.2725 16.8324 24.4116C16.8231 24.6913 16.8176 24.9728 16.8176 25.2561C16.8176 38.6908 27.6933 49.6215 41.0604 49.6215C45.8975 49.6215 50.4029 48.1824 54.1897 45.7192C55.3746 46.3341 56.5594 46.9471 57.7425 47.5453C60.0053 48.6362 62.2755 49.69 64.6324 50.6012C65.8191 51.0624 67.0224 51.5031 68.3012 51.8587C69.7975 52.244 71.0063 52.6181 72.7274 52.4718C74.1444 52.3569 75.4749 51.2753 75.4675 49.7493C75.5007 45.5507 66.0586 39.089 62.3621 37.7166L62.3603 37.7148ZM20.2948 19.5889L23.2137 17.8461C23.667 18.2665 24.2714 18.5258 24.9348 18.5258C25.5982 18.5258 26.2284 18.2554 26.6854 17.8202L38.5801 24.6727C38.5358 24.8598 38.5119 25.0543 38.5119 25.2543C38.5119 26.6655 39.6544 27.8156 41.0585 27.8156C41.7311 27.8156 42.341 27.5508 42.798 27.1211L54.6283 34.0348C54.5951 34.1996 54.5767 34.37 54.5767 34.5441C54.5767 35.6905 55.3303 36.6628 56.3659 36.9888L56.3272 40.2243C50.5577 36.648 44.158 32.8791 38.3055 29.5047C32.5581 26.2358 26.1952 22.7022 20.2967 19.5908L20.2948 19.5889ZM40.2772 9.07861L40.3196 22.804C39.94 22.9189 39.6009 23.1226 39.319 23.3874L27.4353 16.4423C27.4648 16.2867 27.4814 16.1274 27.4814 15.9645C27.4814 14.8403 26.7554 13.8846 25.7511 13.542L25.8027 9.2564C28.3309 6.81913 31.4359 4.98191 34.8928 3.9707L38.5819 6.05053C38.5377 6.23944 38.5119 6.43576 38.5119 6.63948C38.5119 7.77663 39.2545 8.74339 40.2791 9.07491L40.2772 9.07861ZM43.5351 6.05424L47.2206 3.97626C50.6775 4.98561 53.7825 6.82283 56.3125 9.26011L56.3641 13.5235C55.3285 13.8494 54.5748 14.8218 54.5748 15.9682C54.5748 16.1423 54.5933 16.3127 54.6264 16.4775L42.7962 23.3911C42.5143 23.1263 42.1734 22.9226 41.7956 22.8077L41.838 9.08231C42.8607 8.7508 43.6051 7.78404 43.6051 6.64689C43.6051 6.44502 43.5794 6.2487 43.5351 6.05794V6.05424ZM63.1103 25.2543C63.1103 27.073 62.8855 28.8398 62.4745 30.5307L58.8702 32.6828C58.4132 32.2494 57.8014 31.9827 57.1251 31.9827C56.4489 31.9827 55.7818 32.2716 55.3193 32.7402L43.5351 25.8525C43.5812 25.6599 43.607 25.4617 43.607 25.2561C43.607 25.0505 43.5812 24.8616 43.5388 24.6746L55.3967 17.8424C55.8518 18.2665 56.4581 18.5277 57.1251 18.5277C57.7922 18.5277 58.4132 18.261 58.8702 17.8276L62.4782 19.9797C62.8892 21.6706 63.1121 23.4356 63.1121 25.2543H63.1103ZM57.8254 37.0017C58.8905 36.6943 59.6718 35.709 59.6718 34.5422C59.6718 34.3385 59.646 34.1422 59.6017 33.9533L61.8683 32.6013C60.9525 35.2219 59.5594 37.6147 57.794 39.6798L57.8272 37.0017H57.8254ZM57.1233 35.6349C56.5244 35.6349 56.0361 35.146 56.0361 34.5422C56.0361 33.9385 56.5226 33.4495 57.1233 33.4495C57.724 33.4495 58.2105 33.9385 58.2105 34.5422C58.2105 35.146 57.7222 35.6349 57.1233 35.6349ZM57.1233 17.0572C56.5244 17.0572 56.0361 16.5682 56.0361 15.9645C56.0361 15.3607 56.5226 14.8718 57.1233 14.8718C57.724 14.8718 58.2105 15.3607 58.2105 15.9645C58.2105 16.5682 57.7222 17.0572 57.1233 17.0572ZM42.1457 25.2543C42.1457 25.8562 41.6592 26.347 41.0585 26.347C40.4578 26.347 39.9713 25.8562 39.9713 25.2543C39.9713 24.6524 40.4578 24.1616 41.0585 24.1616C41.6592 24.1616 42.1457 24.6505 42.1457 25.2543ZM41.0585 7.73403C40.4596 7.73403 39.9713 7.2451 39.9713 6.64133C39.9713 6.03757 40.4578 5.54863 41.0585 5.54863C41.6592 5.54863 42.1457 6.03757 42.1457 6.64133C42.1457 7.2451 41.6592 7.73403 41.0585 7.73403ZM26.022 15.9663C26.022 16.5682 25.5337 17.059 24.9348 17.059C24.3359 17.059 23.8476 16.5701 23.8476 15.9663C23.8476 15.3626 24.3341 14.8736 24.9348 14.8736C25.5355 14.8736 26.022 15.3626 26.022 15.9663ZM61.8628 17.9054L59.5999 16.5553C59.6441 16.3664 59.6699 16.1682 59.6699 15.9663C59.6699 14.7995 58.8886 13.8143 57.8235 13.5068L57.7904 10.8306C59.5538 12.8957 60.9451 15.2866 61.8609 17.9073L61.8628 17.9054ZM45.1254 3.47436L42.8054 4.78374C42.3484 4.35037 41.7348 4.08367 41.0604 4.08367C40.3859 4.08367 39.7705 4.35037 39.3153 4.78374L36.988 3.47065C38.3074 3.22248 39.6691 3.09284 41.0604 3.09284C42.4516 3.09284 43.8078 3.22803 45.1272 3.47621L45.1254 3.47436ZM24.323 10.8325L24.2917 13.492C23.1989 13.7791 22.3881 14.7792 22.3881 15.9663C22.3881 16.1812 22.4176 16.3867 22.4674 16.5849L20.2543 17.9054C21.1701 15.2866 22.5632 12.8957 24.3248 10.8325H24.323ZM20.2543 32.6031L22.5171 33.9533C22.4729 34.1422 22.4471 34.3404 22.4471 34.5422C22.4471 35.709 23.2284 36.6943 24.2935 37.0017L24.3267 39.6779C22.5632 37.6129 21.172 35.2219 20.2561 32.6031H20.2543ZM24.9937 35.6349C24.3949 35.6349 23.9065 35.146 23.9065 34.5422C23.9065 33.9385 24.3949 33.4495 24.9937 33.4495C25.5926 33.4495 26.0809 33.9385 26.0809 34.5422C26.0809 35.146 25.5945 35.6349 24.9937 35.6349ZM36.9916 47.0342L39.3006 45.7322C39.752 46.1397 40.3472 46.3915 40.9995 46.3915C41.6519 46.3915 42.2876 46.1248 42.7428 45.6915L45.1254 47.036C43.806 47.2842 42.4479 47.4176 41.0567 47.4176C39.6654 47.4176 38.3092 47.2824 36.9898 47.036L36.9916 47.0342ZM39.9142 43.8302C39.9142 43.2283 40.4025 42.7375 41.0014 42.7375C41.6003 42.7375 42.0886 43.2264 42.0886 43.8302C42.0886 44.4339 41.6021 44.9229 41.0014 44.9229C40.4007 44.9229 39.9142 44.4321 39.9142 43.8302ZM47.2261 46.5378L43.4762 44.4228C43.5204 44.2321 43.548 44.0357 43.548 43.832C43.548 42.4208 42.4055 41.2725 41.0014 41.2725C39.5972 41.2725 38.4529 42.4208 38.4529 43.832C38.4529 44.0561 38.4842 44.2728 38.5395 44.4802L34.8965 46.5341C31.4396 45.5248 28.3346 43.6876 25.8045 41.2503L25.7529 36.9869C26.7885 36.6609 27.5404 35.6886 27.5404 34.5422C27.5404 33.131 26.3979 31.9827 24.9937 31.9827C24.3175 31.9827 23.7057 32.2494 23.2487 32.6828L19.6407 30.5307C19.2684 28.9972 19.0565 27.3989 19.0197 25.7599C20.1345 26.4414 21.253 27.1193 22.3679 27.7971C31.961 33.5384 41.9449 39.2853 51.9305 44.5395C50.46 45.3785 48.8845 46.0545 47.2279 46.5397L47.2261 46.5378Z" fill="white"/>
<path d="M86.3766 38.9222L78.3516 13.0104H83.9073L88.8827 30.2361L94.221 13.0104H98.8333L104.135 30.2361L109.145 13.0104H114.738L106.713 38.9222H101.992L96.5447 21.1112L91.0976 38.9222H86.3766Z" fill="white"/>
<path d="M114.336 38.9222L125.447 13.0104H130.132L141.28 38.9222H135.761L133.255 33.0105H122.252L119.783 38.9222H114.336ZM127.771 19.9814L124.213 28.3748H131.294L127.771 19.9814Z" fill="white"/>
<path d="M152.103 39.3612C150.068 39.3612 148.217 38.9537 146.547 38.1388C144.878 37.3239 143.582 36.1868 142.663 34.7255L146.729 31.3308C147.36 32.279 148.169 33.0272 149.162 33.5754C150.155 34.1236 151.196 34.3959 152.285 34.3959C153.374 34.3959 154.167 34.1644 154.81 33.7032C155.451 33.2421 155.772 32.6327 155.772 31.879C155.772 31.1252 155.486 30.5159 154.918 29.9806C154.349 29.4454 153.424 28.9583 152.14 28.5212L149.962 27.7545C145.725 26.271 143.606 23.8004 143.606 20.3464C143.606 17.9628 144.417 16.07 146.038 14.6717C147.66 13.2734 149.755 12.5734 152.32 12.5734C155.563 12.5734 158.287 13.7661 160.491 16.1496L156.969 19.763C155.783 18.2795 154.259 17.5368 152.394 17.5368C151.45 17.5368 150.638 17.7368 149.962 18.1387C149.283 18.5406 148.944 19.1055 148.944 19.8352C148.944 20.5649 149.236 21.1853 149.816 21.6243C150.396 22.0613 151.427 22.5484 152.903 23.0837L154.972 23.8504C159.087 25.408 161.132 27.9749 161.108 31.5512C161.108 33.8625 160.273 35.7423 158.602 37.1906C156.933 38.6389 154.766 39.3612 152.103 39.3612Z" fill="white"/>
<path d="M166.372 38.9222V13.0104H175.815C177.969 13.0104 179.784 13.7475 181.262 15.218C182.738 16.6904 183.477 18.4609 183.477 20.5278C183.477 22.402 182.798 23.9466 181.442 25.1634C183.983 26.4284 185.255 28.473 185.255 31.2955C185.255 33.4605 184.492 35.2737 182.966 36.7331C181.44 38.1925 179.54 38.9222 177.265 38.9222H166.371H166.372ZM171.637 23.6318H175.304C176.224 23.6318 176.963 23.3577 177.519 22.8113C178.076 22.2631 178.354 21.576 178.354 20.75C178.354 19.924 178.068 19.2591 177.501 18.6887C176.931 18.1183 176.2 17.8312 175.304 17.8312H171.637V23.6336V23.6318ZM171.637 34.068H176.902C177.893 34.068 178.682 33.7939 179.262 33.2475C179.843 32.6993 180.134 31.9882 180.134 31.1122C180.134 30.2361 179.843 29.5194 179.262 28.9582C178.682 28.3989 177.895 28.1193 176.902 28.1193H171.637V34.068Z" fill="white"/>
</svg>
