<svg width="100%" height="auto" viewBox="0 0 333 93" fill="none" xmlns="http://www.w3.org/2000/svg">
<path d="M144.247 38.5476L135.803 11.3973H141.647L146.879 29.4467L152.495 11.3973H157.347L162.924 29.4467L168.196 11.3973H174.079L165.636 38.5476H160.671L154.94 19.8857L149.208 38.5476H144.243H144.247Z" fill="#2F2912"/>
<path d="M183.707 38.9679C180.803 38.9679 178.389 38.0509 176.467 36.2135C174.546 34.3794 173.583 31.9693 173.583 28.9865C173.583 26.0036 174.539 23.7557 176.447 21.8554C178.356 19.9551 180.75 19.005 183.628 19.005C186.277 19.005 188.503 19.826 190.312 21.4714C192.121 23.1168 193.024 25.4309 193.024 28.4104C193.024 29.2513 192.998 29.8505 192.948 30.2081H178.66C178.812 31.4562 179.368 32.4328 180.32 33.1313C181.276 33.8332 182.414 34.1841 183.74 34.1841C185.979 34.1841 187.623 33.3796 188.668 31.774L192.564 34.6807C190.603 37.5344 187.65 38.9646 183.701 38.9646L183.707 38.9679ZM178.855 26.6558H187.795C187.567 25.56 187.051 24.7323 186.247 24.1695C185.444 23.6101 184.521 23.3287 183.479 23.3287C182.437 23.3287 181.428 23.6101 180.539 24.1695C179.646 24.7323 179.087 25.56 178.859 26.6558H178.855Z" fill="#2F2912"/>
<path d="M201.928 38.5476L213.616 11.3973H218.544L230.272 38.5476H224.464L221.828 32.3535H210.252L207.656 38.5476H201.924H201.928ZM216.063 18.7005L212.319 27.4968H219.768L216.063 18.7005Z" fill="#2F2912"/>
<path d="M232.796 38.5475V19.4287H238.028V21.723C238.359 21.0079 238.937 20.4087 239.768 19.9253C240.595 19.442 241.494 19.2003 242.46 19.2003C243.3 19.2003 244.037 19.3162 244.676 19.5446L243.872 24.4774C243.515 24.3251 242.979 24.249 242.268 24.249C240.307 24.249 238.891 24.9641 238.028 26.3909V38.5508H232.796V38.5475Z" fill="#2F2912"/>
<path d="M255.871 38.9679C252.968 38.9679 250.553 38.0509 248.631 36.2135C246.71 34.3794 245.747 31.9693 245.747 28.9865C245.747 26.0036 246.703 23.7557 248.612 21.8554C250.52 19.9551 252.915 19.005 255.792 19.005C258.441 19.005 260.667 19.826 262.476 21.4714C264.285 23.1168 265.188 25.4309 265.188 28.4104C265.188 29.2513 265.162 29.8505 265.112 30.2081H250.824C250.976 31.4562 251.532 32.4328 252.485 33.1313C253.44 33.8332 254.578 34.1841 255.904 34.1841C258.144 34.1841 259.787 33.3796 260.832 31.774L264.729 34.6807C262.767 37.5344 259.814 38.9646 255.865 38.9646L255.871 38.9679ZM251.019 26.6558H259.959C259.731 25.56 259.215 24.7323 258.411 24.1695C257.608 23.6101 256.685 23.3287 255.643 23.3287C254.601 23.3287 253.593 23.6101 252.703 24.1695C251.81 24.7323 251.251 25.56 251.023 26.6558H251.019Z" fill="#2F2912"/>
<path d="M164.448 75.0008C162.309 75.0008 160.361 74.5737 158.604 73.7196C156.848 72.8654 155.485 71.6736 154.516 70.1441L158.796 66.5885C159.458 67.5817 160.311 68.3663 161.356 68.939C162.401 69.5118 163.496 69.7998 164.64 69.7998C165.785 69.7998 166.621 69.5581 167.296 69.0748C167.971 68.5914 168.308 67.9525 168.308 67.1646C168.308 66.3766 168.011 65.7377 167.412 65.1749C166.813 64.6154 165.838 64.1056 164.488 63.6454L162.196 62.8409C157.741 61.2849 155.512 58.6994 155.512 55.0776C155.512 52.5781 156.365 50.5983 158.072 49.1317C159.778 47.6651 161.981 46.9335 164.68 46.9335C168.093 46.9335 170.957 48.1816 173.276 50.6811L169.572 54.4651C168.325 52.9124 166.721 52.1344 164.759 52.1344C163.767 52.1344 162.914 52.3463 162.199 52.7668C161.485 53.1872 161.131 53.7798 161.131 54.5445C161.131 55.3093 161.435 55.9582 162.047 56.4183C162.659 56.8785 163.741 57.3884 165.295 57.9478L167.471 58.7523C171.801 60.3844 173.954 63.0727 173.927 66.8203C173.927 69.2436 173.048 71.2134 171.291 72.7297C169.535 74.2459 167.253 75.0041 164.452 75.0041L164.448 75.0008Z" fill="#2F2912"/>
<path d="M193.521 74.5405L189.929 63.6817L186.377 74.5405H181.181L174.84 55.4218H180.417L184.045 67.6577L187.905 55.4218H191.916L195.813 67.6577L199.404 55.4218H205.02L198.716 74.5405H193.521Z" fill="#2F2912"/>
<path d="M210.329 53.0514C209.436 53.0514 208.662 52.727 208 52.0748C207.339 51.4259 207.008 50.6413 207.008 49.7243C207.008 48.8072 207.339 48.0226 208 47.3737C208.662 46.7248 209.439 46.3971 210.329 46.3971C211.271 46.3971 212.069 46.7215 212.717 47.3737C213.365 48.0259 213.689 48.8072 213.689 49.7243C213.689 50.6413 213.365 51.4259 212.717 52.0748C212.069 52.7237 211.271 53.0514 210.329 53.0514ZM207.729 74.5405V55.4218H212.961V74.5405H207.729Z" fill="#2F2912"/>
<path d="M224.425 74.961C220.807 74.961 218.184 73.736 216.557 71.2895L220.148 68.2305C221.065 69.7104 222.49 70.4486 224.428 70.4486C225.014 70.4486 225.51 70.3327 225.917 70.1043C226.323 69.8759 226.528 69.5316 226.528 69.0714C226.528 68.6642 226.356 68.3265 226.012 68.0584C225.669 67.7902 224.987 67.5187 223.969 67.2373L222.556 66.893C220.8 66.4329 219.467 65.6681 218.564 64.5988C217.661 63.5295 217.231 62.2549 217.284 60.775C217.334 59.0403 218.028 57.6465 219.368 56.5871C220.704 55.531 222.404 55.0013 224.468 55.0013C227.395 55.0013 229.601 56.0707 231.076 58.2126L227.64 61.0035C226.747 59.8812 225.665 59.3217 224.392 59.3217C223.883 59.3217 223.436 59.4376 223.056 59.666C222.672 59.8944 222.483 60.2155 222.483 60.6227C222.483 61.3875 223.109 61.9371 224.355 62.2681L226.151 62.8044C229.842 63.7976 231.691 65.774 231.691 68.7304C231.691 70.5413 231.003 72.0311 229.627 73.203C228.252 74.375 226.519 74.961 224.432 74.961H224.425Z" fill="#2F2912"/>
<path d="M241.961 74.961C238.342 74.961 235.72 73.736 234.092 71.2895L237.684 68.2305C238.6 69.7104 240.026 70.4486 241.964 70.4486C242.549 70.4486 243.045 70.3327 243.452 70.1043C243.859 69.8759 244.064 69.5316 244.064 69.0714C244.064 68.6642 243.892 68.3265 243.548 68.0584C243.204 67.7902 242.523 67.5187 241.504 67.2373L240.092 66.893C238.336 66.4329 237.003 65.6681 236.1 64.5988C235.197 63.5295 234.767 62.2549 234.82 60.775C234.87 59.0403 235.564 57.6465 236.904 56.5871C238.24 55.531 239.94 55.0013 242.004 55.0013C244.931 55.0013 247.137 56.0707 248.612 58.2126L245.175 61.0035C244.282 59.8812 243.201 59.3217 241.928 59.3217C241.418 59.3217 240.972 59.4376 240.591 59.666C240.208 59.8944 240.019 60.2155 240.019 60.6227C240.019 61.3875 240.644 61.9371 241.891 62.2681L243.687 62.8044C247.378 63.7976 249.227 65.774 249.227 68.7304C249.227 70.5413 248.539 72.0311 247.163 73.203C245.787 74.375 244.054 74.961 241.967 74.961H241.961Z" fill="#2F2912"/>
<path d="M253.229 74.5405V47.3903H263.161C265.427 47.3903 267.338 48.1616 268.893 49.7044C270.444 51.2471 271.221 53.101 271.221 55.2695C271.221 57.2327 270.507 58.8516 269.081 60.1261C271.757 61.4537 273.093 63.5923 273.093 66.552C273.093 68.8231 272.29 70.7201 270.686 72.2496C269.081 73.7791 267.081 74.5438 264.686 74.5438H253.226L253.229 74.5405ZM258.769 58.5205H262.629C263.598 58.5205 264.372 58.2325 264.96 57.6597C265.546 57.087 265.84 56.3653 265.84 55.4979C265.84 54.6305 265.539 53.9353 264.944 53.3361C264.345 52.7369 263.575 52.4389 262.632 52.4389H258.772V58.5205H258.769ZM258.769 69.4554H264.309C265.354 69.4554 266.181 69.1674 266.793 68.5947C267.405 68.0219 267.709 67.2737 267.709 66.3567C267.709 65.4397 267.405 64.6882 266.793 64.1022C266.181 63.5162 265.354 63.2216 264.309 63.2216H258.769V69.4554Z" fill="#2F2912"/>
<path d="M292.845 72.0741C290.884 73.9976 288.516 74.961 285.741 74.961C282.966 74.961 280.598 73.9976 278.636 72.0741C276.675 70.1507 275.696 67.7869 275.696 64.9795C275.696 62.1721 276.675 59.8415 278.636 57.9048C280.598 55.9681 282.966 54.998 285.741 54.998C288.516 54.998 290.884 55.9681 292.845 57.9048C294.806 59.8415 295.785 62.2019 295.785 64.9795C295.785 67.7571 294.803 70.1474 292.845 72.0741ZM285.737 70.0679C287.087 70.0679 288.215 69.5912 289.118 68.6344C290.02 67.6777 290.474 66.4627 290.474 64.9828C290.474 63.503 290.02 62.288 289.118 61.3312C288.215 60.3745 287.087 59.8977 285.737 59.8977C284.388 59.8977 283.224 60.3745 282.318 61.3312C281.415 62.288 280.962 63.5063 280.962 64.9828C280.962 66.4594 281.415 67.6777 282.318 68.6344C283.22 69.5912 284.362 70.0679 285.737 70.0679Z" fill="#2F2912"/>
<path d="M299.569 74.5405V55.4218H304.801V57.716C305.132 57.001 305.711 56.4017 306.541 55.9184C307.368 55.435 308.267 55.1934 309.233 55.1934C310.073 55.1934 310.811 55.3092 311.449 55.5377L310.645 60.4705C310.288 60.3182 309.752 60.242 309.041 60.242C307.08 60.242 305.664 60.9571 304.801 62.384V74.5438H299.569V74.5405Z" fill="#2F2912"/>
<path d="M322.182 82.3436C318.643 82.3436 315.828 81.4497 313.738 79.6653L316.602 75.7654C318.18 77.0897 320.015 77.7551 322.102 77.7551C323.376 77.7551 324.503 77.391 325.482 76.6659C326.461 75.9409 326.954 74.8881 326.954 73.5109V72.3257C325.731 73.5507 324.09 74.1598 322.026 74.1598C319.274 74.1598 316.996 73.2428 315.19 71.4054C313.381 69.5713 312.478 67.3002 312.478 64.5988C312.478 61.8973 313.387 59.6229 315.21 57.7723C317.032 55.925 319.304 55.0013 322.03 55.0013C324.067 55.0013 325.711 55.6006 326.958 56.799V55.4218H332.19V73.4712C332.19 75.0768 331.902 76.4805 331.33 77.679C330.758 78.8774 329.974 79.8011 328.982 80.45C327.989 81.0988 326.925 81.5789 325.793 81.8834C324.659 82.188 323.455 82.3436 322.182 82.3436ZM322.833 69.419C324.566 69.419 325.939 68.7039 326.961 67.2771V61.8477C325.942 60.4705 324.566 59.7819 322.833 59.7819C321.381 59.7819 320.197 60.2288 319.281 61.1193C318.365 62.0132 317.905 63.1719 317.905 64.5988C317.905 66.0257 318.368 67.1546 319.301 68.0584C320.23 68.9622 321.408 69.4157 322.833 69.4157V69.419Z" fill="#2F2912"/>
<path d="M92.1352 26.1129C92.1352 23.3883 90.4782 21.0444 88.1234 20.0346C88.8708 19.3394 89.3405 18.3496 89.3405 17.2504C89.3405 15.1515 87.6339 13.4432 85.537 13.4432C83.4401 13.4432 81.7335 15.1515 81.7335 17.2504C81.7335 18.3496 82.2031 19.3394 82.9506 20.0346C80.5924 21.0444 78.9387 23.3883 78.9387 26.1129V27.4239H92.1385V26.1129H92.1352Z" fill="#1AD9BC"/>
<path d="M100.692 42.6891C101.439 41.9938 101.909 41.004 101.909 39.9048C101.909 37.8059 100.202 36.0977 98.1054 36.0977C96.0085 36.0977 94.3019 37.8059 94.3019 39.9048C94.3019 41.004 94.7715 41.9938 95.519 42.6891C93.1608 43.6988 91.5038 46.0427 91.5038 48.7673V50.0783H104.704V48.7673C104.704 46.0427 103.047 43.6988 100.692 42.6891Z" fill="#1AD9BC"/>
<path d="M61.8992 20.0346C62.6467 19.3394 63.1164 18.3496 63.1164 17.2504C63.1164 15.1515 61.4097 13.4432 59.3129 13.4432C57.216 13.4432 55.5094 15.1515 55.5094 17.2504C55.5094 18.3496 55.979 19.3394 56.7265 20.0346C54.3683 21.0444 52.7146 23.3883 52.7146 26.1129V27.4239H65.9144V26.1129C65.9144 23.3883 64.2574 21.0444 61.9026 20.0346H61.8992Z" fill="#1AD9BC"/>
<path d="M110.657 66.5685C114.533 68.6641 118.049 71.3821 121.363 74.2888C124.667 77.2651 127.872 80.3505 130.326 84.1246C133.488 89.0806 130.908 91.2822 125.557 89.9314C120.126 88.6138 115.065 86.1441 110.088 83.7571C106.529 82.0224 103.046 80.1685 99.5935 78.2682C98.3499 77.5862 97.1129 76.8976 95.876 76.2057C92.8695 74.5206 89.873 72.8222 86.8633 71.1537C75.4065 64.7013 52.4167 51.6145 41.0294 45.0496C38.3702 43.4936 35.6945 41.9608 33.0222 40.418C31.7918 39.7096 30.5648 38.9945 29.341 38.2761C25.6301 36.101 21.9457 33.8763 18.3406 31.5026C13.75 28.4403 9.04353 25.3482 5.13749 21.3457C3.54663 19.7533 0.966861 16.2407 4.16511 14.7841C7.54528 13.622 11.0081 14.5987 14.3254 15.2012C20.7517 16.7108 27.1185 18.876 32.8171 22.2296C26.7877 19.0647 11.0346 13.973 4.75714 16.052C0.768417 18.2039 17.441 28.5396 19.442 29.7745C23.5498 32.274 28.3257 35.0449 33.3529 37.9086C33.3562 37.9086 33.3628 37.9152 33.3661 37.9152C44.1582 44.0597 56.1177 50.6279 65.2131 55.8819C74.6855 61.202 86.8137 68.3695 97.8538 74.6497C97.8703 74.6596 97.8869 74.6695 97.9034 74.6795C99.0974 75.3581 100.278 76.0236 101.442 76.6791C101.452 76.6857 101.462 76.689 101.469 76.6956C104.832 78.586 108.057 80.3671 111.011 81.9396C113.451 83.2043 130.399 92.0502 130.303 87.5643C128.9 81.1054 116.408 70.1009 110.66 66.5718C115.73 70.6902 120.156 75.5833 124.065 80.7677C125.269 82.4462 126.42 84.0683 127.23 85.8031C126.109 85.4787 124.869 85.0086 123.866 84.555C117.238 81.5821 110.723 77.6723 104.369 73.8253C111.543 66.0587 115.939 55.6866 115.939 44.3014C115.935 20.2797 96.4151 0.740479 72.4232 0.740479C52.7607 0.740479 36.1146 13.867 30.7434 31.8204C23.0636 27.6855 15.0498 23.6101 8.33574 18.2304C8.17037 18.0913 8.01162 17.9457 7.85948 17.8033C9.75793 17.6146 11.7291 17.7768 13.7764 17.9556C20.2258 18.6674 26.6918 19.9751 32.8171 22.2296C29.2716 19.5248 25.2365 17.4557 21.0891 15.7143C16.376 13.8703 4.05928 8.91436 0.672502 14.645C-2.43976 20.3558 7.14839 27.318 10.9486 30.5028C16.677 34.9887 22.7659 38.9647 28.9408 42.7884C28.9243 43.2883 28.9144 43.7916 28.9144 44.2981C28.9144 68.3132 48.4346 87.8524 72.4265 87.8524C81.1084 87.8524 89.195 85.28 95.9917 80.8769C98.1184 81.976 100.245 83.0719 102.368 84.1412C106.43 86.0911 110.505 87.9749 114.735 89.6037C116.865 90.428 119.024 91.2159 121.32 91.8516C124.005 92.5402 126.175 93.2089 129.264 92.9474C131.808 92.7421 134.195 90.8087 134.182 88.0808C134.242 80.5757 117.295 69.025 110.66 66.5718L110.657 66.5685ZM35.1554 34.1676L40.3944 31.0524C41.208 31.8039 42.2928 32.2673 43.4835 32.2673C44.6741 32.2673 45.8053 31.784 46.6255 31.006L67.9747 43.2552C67.8954 43.5896 67.8524 43.9372 67.8524 44.2948C67.8524 46.8174 69.903 48.8733 72.4232 48.8733C73.6304 48.8733 74.7252 48.3999 75.5454 47.6319L96.7789 59.9903C96.7194 60.285 96.6863 60.5896 96.6863 60.9007C96.6863 62.95 98.039 64.6881 99.8978 65.2707L99.8283 71.0544C89.4728 64.6616 77.9862 57.9245 67.4819 51.8926C57.1662 46.0494 45.7457 39.7328 35.1587 34.1709L35.1554 34.1676ZM71.0209 15.38L71.0969 39.9148C70.4156 40.1201 69.807 40.4843 69.301 40.9577L47.9716 28.5429C48.0245 28.2648 48.0543 27.9801 48.0543 27.6888C48.0543 25.6792 46.7512 23.971 44.9486 23.3585L45.0412 15.6978C49.579 11.341 55.152 8.05691 61.3566 6.24932L67.9781 9.96713C67.8987 10.3048 67.8524 10.6557 67.8524 11.0199C67.8524 13.0526 69.1853 14.7807 71.0242 15.3733L71.0209 15.38ZM76.8683 9.97375L83.4831 6.25925C89.6878 8.06353 95.2608 11.3476 99.8018 15.7044L99.8944 23.3254C98.0357 23.9081 96.683 25.6461 96.683 27.6954C96.683 28.0066 96.716 28.3112 96.7756 28.6058L75.5421 40.9643C75.036 40.4909 74.4242 40.1267 73.7462 39.9215L73.8222 15.3866C75.6578 14.794 76.994 13.0659 76.994 11.0331C76.994 10.6723 76.9477 10.3214 76.8683 9.98037V9.97375ZM112.003 44.2948C112.003 47.5458 111.599 50.7041 110.862 53.7267L104.393 57.5736C103.572 56.7989 102.474 56.3222 101.26 56.3222C100.047 56.3222 98.8493 56.8386 98.0192 57.6762L76.8683 45.3641C76.951 45.0198 76.9973 44.6656 76.9973 44.2981C76.9973 43.9306 76.951 43.5929 76.875 43.2585L98.1581 31.0457C98.975 31.8039 100.063 32.2707 101.26 32.2707C102.458 32.2707 103.572 31.7939 104.393 31.0192L110.868 34.8662C111.606 37.8888 112.006 41.0438 112.006 44.2948H112.003ZM102.517 65.2939C104.429 64.7444 105.831 62.9831 105.831 60.8974C105.831 60.5333 105.785 60.1823 105.706 59.8447L109.774 57.4279C108.13 62.1124 105.629 66.3897 102.461 70.081L102.521 65.2939H102.517ZM101.257 62.8507C100.182 62.8507 99.3057 61.9767 99.3057 60.8974C99.3057 59.8182 100.179 58.9442 101.257 58.9442C102.335 58.9442 103.208 59.8182 103.208 60.8974C103.208 61.9767 102.332 62.8507 101.257 62.8507ZM101.257 29.642C100.182 29.642 99.3057 28.768 99.3057 27.6888C99.3057 26.6095 100.179 25.7355 101.257 25.7355C102.335 25.7355 103.208 26.6095 103.208 27.6888C103.208 28.768 102.332 29.642 101.257 29.642ZM74.3746 44.2948C74.3746 45.3707 73.5014 46.248 72.4232 46.248C71.345 46.248 70.4718 45.3707 70.4718 44.2948C70.4718 43.2188 71.345 42.3415 72.4232 42.3415C73.5014 42.3415 74.3746 43.2155 74.3746 44.2948ZM72.4232 12.9765C71.3483 12.9765 70.4718 12.1025 70.4718 11.0232C70.4718 9.94395 71.345 9.06995 72.4232 9.06995C73.5014 9.06995 74.3746 9.94395 74.3746 11.0232C74.3746 12.1025 73.5014 12.9765 72.4232 12.9765ZM45.4348 27.6921C45.4348 28.768 44.5584 29.6453 43.4835 29.6453C42.4086 29.6453 41.5321 28.7714 41.5321 27.6921C41.5321 26.6128 42.4053 25.7388 43.4835 25.7388C44.5617 25.7388 45.4348 26.6128 45.4348 27.6921ZM109.764 31.1583L105.702 28.7449C105.782 28.4072 105.828 28.053 105.828 27.6921C105.828 25.6064 104.426 23.8452 102.514 23.2956L102.454 18.5118C105.62 22.2031 108.117 26.4771 109.76 31.1616L109.764 31.1583ZM79.7226 5.36208L75.5586 7.70268C74.7384 6.928 73.637 6.45127 72.4265 6.45127C71.216 6.45127 70.1113 6.928 69.2944 7.70268L65.1172 5.35546C67.4853 4.91184 69.9294 4.6801 72.4265 4.6801C74.9236 4.6801 77.3578 4.92177 79.7259 5.36539L79.7226 5.36208ZM42.3854 18.5151L42.3292 23.2691C40.3679 23.7823 38.9126 25.57 38.9126 27.6921C38.9126 28.0761 38.9656 28.4436 39.0549 28.7978L35.0827 31.1583C36.7264 26.4771 39.2268 22.2031 42.3887 18.5151H42.3854ZM35.0827 57.4312L39.1442 59.8447C39.0648 60.1823 39.0185 60.5366 39.0185 60.8974C39.0185 62.9831 40.4208 64.7444 42.3325 65.2939L42.392 70.0777C39.2268 66.3864 36.7298 62.1124 35.086 57.4312H35.0827ZM43.5893 62.8507C42.5144 62.8507 41.6379 61.9767 41.6379 60.8974C41.6379 59.8182 42.5144 58.9442 43.5893 58.9442C44.6642 58.9442 45.5407 59.8182 45.5407 60.8974C45.5407 61.9767 44.6675 62.8507 43.5893 62.8507ZM65.1238 83.2275L69.2679 80.9001C70.0783 81.6284 71.1465 82.0787 72.3174 82.0787C73.4882 82.0787 74.6292 81.602 75.4462 80.8273L79.7226 83.2308C77.3545 83.6744 74.917 83.9127 72.4199 83.9127C69.9228 83.9127 67.4886 83.6711 65.1205 83.2308L65.1238 83.2275ZM70.3693 77.5001C70.3693 76.4242 71.2458 75.5469 72.3207 75.5469C73.3956 75.5469 74.272 76.4209 74.272 77.5001C74.272 78.5794 73.3989 79.4534 72.3207 79.4534C71.2425 79.4534 70.3693 78.5761 70.3693 77.5001ZM83.4931 82.3402L76.7625 78.5595C76.8419 78.2185 76.8915 77.8676 76.8915 77.5034C76.8915 74.9807 74.8409 72.9282 72.3207 72.9282C69.8004 72.9282 67.7465 74.9807 67.7465 77.5034C67.7465 77.904 67.8028 78.2913 67.902 78.6621L61.3633 82.3336C55.1586 80.5293 49.5856 77.2452 45.0446 72.8884L44.952 65.2674C46.8107 64.6848 48.1601 62.9467 48.1601 60.8974C48.1601 58.3748 46.1095 56.3222 43.5893 56.3222C42.3755 56.3222 41.2774 56.7989 40.4572 57.5736L33.9813 53.7267C33.3132 50.9855 32.9329 48.1284 32.8667 45.1986C34.8677 46.4169 36.8753 47.6285 38.8763 48.8402C56.0946 59.1031 74.0141 69.3759 91.9369 78.7681C89.2975 80.2678 86.4697 81.4761 83.4964 82.3435L83.4931 82.3402Z" fill="#1AD9BC"/>
</svg>
