<?xml version="1.0" encoding="UTF-8"?>
<svg width="24px" height="24px" viewBox="0 0 24 24" version="1.1" xmlns="http://www.w3.org/2000/svg" xmlns:xlink="http://www.w3.org/1999/xlink">
    <title>Assets/Flags/argentina</title>
    <g id="Assets/Flags/argentina" stroke="none" stroke-width="1" fill="none" fill-rule="evenodd">
        <g id="argentina" fill-rule="nonzero">
            <circle id="Oval" fill="#F0F0F0" cx="12" cy="12" r="12"></circle>
            <g id="Group" transform="translate(1.171875, 0.000000)" fill="#338AF3">
                <path d="M10.828125,0 C6.07059375,0 1.95984375,2.76867187 0.01884375,6.782625 L21.6373594,6.782625 C19.6964062,2.76867187 15.5856094,0 10.828125,0 Z" id="Path"></path>
                <path d="M10.828125,24 C15.5856094,24 19.6964062,21.2313281 21.6374062,17.217375 L0.01884375,17.217375 C1.95984375,21.2313281 6.07059375,24 10.828125,24 Z" id="Path"></path>
            </g>
            <polygon id="Path" fill="#FFDA44" points="15.5866406 12 14.1210938 12.6893906 14.9015156 14.1087188 13.3101094 13.8042656 13.1084531 15.4118906 12 14.2295156 10.8915 15.4118906 10.6898906 13.8042656 9.09848437 14.1086719 9.87885937 12.6893438 8.41335938 12 9.87890625 11.3106094 9.09848437 9.89132812 10.6898438 10.1957344 10.8915469 8.58810938 12 9.77048438 13.1085 8.58810938 13.3101094 10.1957344 14.9015625 9.89132812 14.1211406 11.3106563"></polygon>
        </g>
    </g>
</svg>