<?xml version="1.0" encoding="UTF-8"?>
<svg width="24px" height="24px" viewBox="0 0 24 24" version="1.1" xmlns="http://www.w3.org/2000/svg" xmlns:xlink="http://www.w3.org/1999/xlink">
    <title>Assets/Flags/austria</title>
    <g id="Assets/Flags/austria" stroke="none" stroke-width="1" fill="none" fill-rule="evenodd">
        <g id="austria" fill-rule="nonzero">
            <path d="M23.2536094,16.1738906 C23.736,14.8739531 24,13.4678438 24,12 C24,10.5321562 23.736,9.12614062 23.2536094,7.82610937 L12,6.782625 L0.746390625,7.82610937 C0.264046875,9.12614062 0,10.5321562 0,12 C0,13.4678437 0.264046875,14.8739531 0.746390625,16.1738906 L12,17.217375 L23.2536094,16.1738906 Z" id="Path" fill="#F0F0F0"></path>
            <g id="Group" transform="translate(0.703125, 0.000000)" fill="#D80027">
                <path d="M11.296875,24 C16.4564062,24 20.8549688,20.7435 22.5504375,16.1738906 L0.04321875,16.1738906 C1.73878125,20.7435 6.13725,24 11.296875,24 Z" id="Path"></path>
                <path d="M11.296875,0 C6.13725,0 1.73878125,3.2565 0.04321875,7.82610937 L22.5504844,7.82610937 C20.8549688,3.2565 16.4564063,0 11.296875,0 Z" id="Path"></path>
            </g>
        </g>
    </g>
</svg>