<?xml version="1.0" encoding="UTF-8"?>
<svg width="24px" height="24px" viewBox="0 0 24 24" version="1.1" xmlns="http://www.w3.org/2000/svg" xmlns:xlink="http://www.w3.org/1999/xlink">
    <title>Assets/Flags/canada</title>
    <defs>
        <circle id="path-1" cx="12" cy="12" r="12"></circle>
    </defs>
    <g id="Assets/Flags/canada" stroke="none" stroke-width="1" fill="none" fill-rule="evenodd">
        <g id="Group">
            <mask id="mask-2" fill="white">
                <use xlink:href="#path-1"></use>
            </mask>
            <use id="Oval" fill="#ECEFF1" fill-rule="nonzero" xlink:href="#path-1"></use>
            <polygon id="Path" fill="#FF3D00" fill-rule="nonzero" mask="url(#mask-2)" points="19 0 24 0 24 24 19 24"></polygon>
            <polygon id="Path" fill="#FF3D00" fill-rule="nonzero" mask="url(#mask-2)" points="0 0 5 0 5 24 0 24"></polygon>
            <path d="M12.0038889,7 L13.1111111,8.66666667 L14.2222222,8.11111111 L14.0266667,10.985 L15.3105556,10.3411111 L15.3333333,11.4444444 L17,11.4444444 L15.8888889,13.1111111 L17,13.6666667 L14.7777778,14.7777778 L14.7777778,15.8888889 C14.7777778,15.8888889 13.3686151,15.8115968 12.5550795,15.7703098 L12.5555556,17 L11.4444444,17 L11.4449205,15.7703098 C10.6313849,15.8115968 9.22222222,15.8888889 9.22222222,15.8888889 L9.22222222,15.8888889 L9.22222222,14.7777778 L7,13.6666667 L8.11111111,13.1111111 L7,11.4444444 L8.66666667,11.4444444 C8.66388889,11.4388889 8.68888889,10.3422222 8.68888889,10.3422222 L8.68888889,10.3422222 L9.97333333,10.9688889 L9.77777778,8.11111111 L10.8888889,8.66666667 L12.0038889,7 Z" id="Combined-Shape" fill="#FF3D00" fill-rule="nonzero" mask="url(#mask-2)"></path>
        </g>
    </g>
</svg>