<?xml version="1.0" encoding="UTF-8"?>
<svg width="24px" height="24px" viewBox="0 0 24 24" version="1.1" xmlns="http://www.w3.org/2000/svg" xmlns:xlink="http://www.w3.org/1999/xlink">
    <title>Assets/Flags/cyprus</title>
    <g id="Assets/Flags/cyprus" stroke="none" stroke-width="1" fill="none" fill-rule="evenodd">
        <g id="cyprus" fill-rule="nonzero">
            <circle id="Oval" stroke-opacity="0.5" stroke="#8F96A1" stroke-width="0.2" fill="#FCFCFC" cx="12" cy="12" r="11.9"></circle>
            <path d="M18.782625,10.4347969 C18.4174219,10.4347969 17.9652187,10.4347969 17.2174219,10.4347969 C17.2174219,13.3162969 14.8814531,15.6521719 12.0000469,15.6521719 C9.1185,15.6521719 6.78267187,13.3162969 6.78267187,10.4347969 C6.27829687,10.4347969 5.72175,10.4347969 5.21746875,10.4347969 C5.21746875,13.538625 7.30228125,16.1555156 10.1480625,16.9614375 C9.8360625,17.554125 9.88359375,18.3003281 10.3292813,18.8565 C10.9146563,18.3873281 11.5207031,17.9016563 12.0348281,17.4897188 C12.5489531,17.9017031 13.1550469,18.387375 13.740375,18.8565 C14.1904687,18.2947969 14.2347656,17.539125 13.9124063,16.9435781 C16.7270156,16.117875 18.782625,13.5165469 18.782625,10.4347969 Z" id="Path" fill="#6DA544"></path>
            <path d="M7.82610937,9.91303125 C7.82610937,9.91303125 7.82610937,12.5217187 10.4347969,12.5217187 L10.9565156,13.0434375 L12,13.0434375 C12,13.0434375 12.5217187,11.4782344 13.5652031,11.4782344 C13.5652031,11.4782344 13.5652031,10.43475 14.6086875,10.43475 C15.6521719,10.43475 16.1738906,10.43475 16.1738906,10.43475 C16.1738906,10.43475 15.6521719,8.34778125 18.2608594,6.78257812 L17.217375,6.26085937 C17.217375,6.26085937 13.5652031,8.86954687 10.9565156,8.34782812 L10.9565156,9.3913125 L9.91303125,9.3913125 L9.3913125,8.86959375 L7.82610937,9.91303125 Z" id="Path" fill="#FFDA44"></path>
        </g>
    </g>
</svg>