<?xml version="1.0" encoding="UTF-8"?>
<svg width="24px" height="24px" viewBox="0 0 24 24" version="1.1" xmlns="http://www.w3.org/2000/svg" xmlns:xlink="http://www.w3.org/1999/xlink">
    <title>Assets/Flags/denmark</title>
    <g id="Assets/Flags/denmark" stroke="none" stroke-width="1" fill="none" fill-rule="evenodd">
        <g id="denmark" fill-rule="nonzero">
            <circle id="Oval" fill="#F0F0F0" cx="12" cy="12" r="12"></circle>
            <g id="Group" transform="translate(0.093750, 0.000000)" fill="#D80027">
                <path d="M9.2975625,10.4347969 L23.8046719,10.4347969 C23.0376563,4.54696875 18.0031406,0 11.90625,0 C11.0102344,0 10.1375625,0.099046875 9.2975625,0.285234375 L9.2975625,10.4347969 L9.2975625,10.4347969 Z" id="Path"></path>
                <path d="M6.16710937,10.4347969 L6.16710937,1.45907813 C2.872125,3.25692187 0.51328125,6.554625 0.007828125,10.4347969 L6.16710937,10.4347969 L6.16710937,10.4347969 Z" id="Path"></path>
                <path d="M6.16710937,13.5652031 L0.007828125,13.5652031 C0.51328125,17.445375 2.872125,20.7430781 6.16710937,22.540875 L6.16710937,13.5652031 L6.16710937,13.5652031 Z" id="Path"></path>
                <path d="M9.2975625,13.5652031 L9.2975625,23.7147656 C10.1375625,23.9009531 11.0102344,24 11.90625,24 C18.0031406,24 23.0376563,19.4530313 23.8046719,13.5652031 L9.2975625,13.5652031 L9.2975625,13.5652031 Z" id="Path"></path>
            </g>
        </g>
    </g>
</svg>