<?xml version="1.0" encoding="UTF-8"?>
<svg width="24px" height="24px" viewBox="0 0 24 24" version="1.1" xmlns="http://www.w3.org/2000/svg" xmlns:xlink="http://www.w3.org/1999/xlink">
    <title>Assets/Flags/finland</title>
    <g id="Assets/Flags/finland" stroke="none" stroke-width="1" fill="none" fill-rule="evenodd">
        <g id="finland" fill-rule="nonzero">
            <circle id="Oval" stroke-opacity="0.5" stroke="#8F96A1" stroke-width="0.2" fill="#F0F0F0" cx="12" cy="12" r="11.9"></circle>
            <path d="M23.8984219,10.4347969 L9.39135938,10.4347969 L9.3913125,10.4347969 L9.3913125,0.285234375 C8.28234375,0.531140625 7.23098437,0.92971875 6.26085937,1.45907813 L6.26085937,10.4347031 L6.26085937,10.43475 L0.101578125,10.43475 C0.03478125,10.9471406 0,11.4695156 0,12 C0,12.5304844 0.03478125,13.0528594 0.101578125,13.5652031 L6.2608125,13.5652031 L6.26085937,13.5652031 L6.26085937,22.540875 C7.23098438,23.0701875 8.28234375,23.4688594 9.3913125,23.7147188 L9.3913125,13.5653438 L9.3913125,13.56525 L23.8984219,13.56525 C23.965125,13.0528594 24,12.5304844 24,12 C24,11.4695156 23.965125,10.9471406 23.8984219,10.4347969 Z" id="Path" fill="#0052B4"></path>
        </g>
    </g>
</svg>