<?xml version="1.0" encoding="UTF-8"?>
<svg width="24px" height="24px" viewBox="0 0 24 24" version="1.1" xmlns="http://www.w3.org/2000/svg" xmlns:xlink="http://www.w3.org/1999/xlink">
    <title>Assets/Flags/greece</title>
    <g id="Assets/Flags/greece" stroke="none" stroke-width="1" fill="none" fill-rule="evenodd">
        <g id="greece" fill-rule="nonzero">
            <circle id="Oval" fill="#F0F0F0" cx="12" cy="12" r="12"></circle>
            <g id="Group" fill="#338AF3">
                <path d="M12,8.86954688 L23.5866094,8.86954688 C23.2857188,7.75326563 22.8284063,6.70134375 22.2387188,5.73909375 L12,5.73909375 L12,8.86954688 Z" id="Path"></path>
                <path d="M4.53014062,21.3913125 L19.4698125,21.3913125 C20.5649531,20.5190625 21.5041406,19.4595937 22.2386719,18.2608594 L1.76128125,18.2608594 C2.49585938,19.4595469 3.43504688,20.5190625 4.53014062,21.3913125 Z" id="Path"></path>
                <path d="M4.17389063,2.90339063 C3.23048438,3.71578125 2.41490625,4.67245313 1.76128125,5.73914063 L4.17389063,5.73914063 L4.17389063,2.90339063 Z" id="Path"></path>
                <path d="M12,12 C12,10.7776875 12,9.75473438 12,8.86954688 L7.30434375,8.86954688 L7.30434375,12 L4.17389063,12 L4.17389063,8.86954688 L0.413390625,8.86954688 C0.144375,9.86770313 0,10.9168594 0,12 C0,13.0831406 0.144375,14.1322969 0.413390625,15.1304531 L23.5866563,15.1304531 C23.855625,14.1322969 24,13.0831406 24,12 L12,12 Z" id="Path"></path>
                <path d="M12,0 C10.3336406,0 8.7466875,0.339984375 7.30434375,0.9538125 L7.30434375,5.73914063 L12,5.73914063 C12,4.64639062 12,3.717 12,2.6086875 L19.4698594,2.6086875 C17.4199687,0.976125 14.8241719,0 12,0 Z" id="Path"></path>
            </g>
        </g>
    </g>
</svg>