<?xml version="1.0" encoding="UTF-8"?>
<svg width="24px" height="24px" viewBox="0 0 24 24" version="1.1" xmlns="http://www.w3.org/2000/svg" xmlns:xlink="http://www.w3.org/1999/xlink">
    <title>Assets/Flags/israel</title>
    <g id="Assets/Flags/israel" stroke="none" stroke-width="1" fill="none" fill-rule="evenodd">
        <g id="israel" fill-rule="nonzero">
            <circle id="Oval" stroke="#8F96A1" stroke-width="0.2" fill="#F0F0F0" cx="12" cy="12" r="11.9"></circle>
            <g id="Group" transform="translate(1.734375, 2.578125)" fill="#0052B4">
                <path d="M14.7840469,6.8131875 L11.7717187,6.8131875 L10.265625,4.2045 L8.75957812,6.8131875 L5.74720313,6.8131875 L7.25348437,9.421875 L5.74720313,12.0305625 L8.75957813,12.0305625 L10.265625,14.63925 L11.7717187,12.0305625 L14.7840469,12.0305625 L13.2777656,9.421875 L14.7840469,6.8131875 Z M12.1160156,9.421875 L11.1908906,11.0244375 L9.3405,11.0244375 L8.41523438,9.421875 L9.34045312,7.8193125 L11.1908437,7.8193125 L12.1160156,9.421875 Z M10.265625,6.21670312 L10.6099688,6.81314062 L9.921375,6.81314062 L10.265625,6.21670312 Z M7.48996875,7.8193125 L8.17865625,7.8193125 L7.8343125,8.41575 L7.48996875,7.8193125 Z M7.48996875,11.0244375 L7.83435937,10.428 L8.17870312,11.0244375 L7.48996875,11.0244375 Z M10.265625,12.627 L9.92132812,12.0305625 L10.6099687,12.0305625 L10.265625,12.627 Z M13.0412813,11.0244375 L12.3525938,11.0244375 L12.6969844,10.428 L13.0412813,11.0244375 Z M12.3525938,7.8193125 L13.0412813,7.8193125 L12.6969375,8.41575 L12.3525938,7.8193125 Z" id="Shape"></path>
                <path d="M17.7354844,0.0305625 L2.79576563,0.0305625 C1.700625,0.9028125 0.7614375,1.96228125 0.02690625,3.16101563 L20.5043438,3.16101563 C19.7697656,1.96232812 18.8305781,0.9028125 17.7354844,0.0305625 Z" id="Path"></path>
                <path d="M2.79576562,18.8131875 L17.7354375,18.8131875 C18.8305781,17.9409375 19.7697656,16.8814688 20.5042969,15.6827344 L0.02690625,15.6827344 C0.761484375,16.8814219 1.70067188,17.9409375 2.79576562,18.8131875 Z" id="Path"></path>
            </g>
        </g>
    </g>
</svg>