<?xml version="1.0" encoding="UTF-8"?>
<svg width="24px" height="24px" viewBox="0 0 24 24" version="1.1" xmlns="http://www.w3.org/2000/svg" xmlns:xlink="http://www.w3.org/1999/xlink">
    <title>Assets/Flags/kazakhstan</title>
    <g id="Assets/Flags/kazakhstan" stroke="none" stroke-width="1" fill="none" fill-rule="evenodd">
        <g id="kazakhstan" fill-rule="nonzero">
            <circle id="Oval" fill="#338AF3" cx="12" cy="12" r="12"></circle>
            <path d="M18.782625,12.1304531 L5.217375,12.1304531 C5.217375,13.0669687 6.03304688,13.8261094 6.96946875,13.8261094 L6.91303125,13.8261094 C6.91303125,14.762625 7.67217188,15.5217656 8.6086875,15.5217656 C8.6086875,16.4582812 9.36782813,17.2174219 10.3043438,17.2174219 L13.6956563,17.2174219 C14.6321719,17.2174219 15.3913125,16.4582812 15.3913125,15.5217656 C16.3278281,15.5217656 17.0869688,14.762625 17.0869688,13.8261094 L17.0305313,13.8261094 C17.9668594,13.8261094 18.782625,13.0669687 18.782625,12.1304531 Z" id="Path" fill="#FFDA44"></path>
            <path d="M16.6956562,9.91303125 C16.6956562,12.5063437 14.5933125,14.6086875 12,14.6086875 C9.40664062,14.6086875 7.30434375,12.5063437 7.30434375,9.91303125" id="Path" fill="#338AF3"></path>
            <polygon id="Path" fill="#FFDA44" points="15.5866406 9.91303125 14.1210938 10.6024219 14.9015156 12.0217969 13.3101094 11.7173437 13.1084531 13.3249687 12 12.1425469 10.8915 13.3249687 10.6898906 11.7173437 9.09848437 12.0217031 9.87885937 10.602375 8.41335938 9.91303125 9.87890625 9.2236875 9.09848437 7.80435937 10.6898438 8.10876562 10.8915469 6.50114062 12 7.6835625 13.1085 6.50114062 13.3101094 8.10876562 14.9015625 7.80435937 14.1211406 9.22373437"></polygon>
        </g>
    </g>
</svg>