<?xml version="1.0" encoding="UTF-8"?>
<svg width="24px" height="24px" viewBox="0 0 24 24" version="1.1" xmlns="http://www.w3.org/2000/svg" xmlns:xlink="http://www.w3.org/1999/xlink">
    <title>Assets/Flags/liechtenstein</title>
    <g id="Assets/Flags/liechtenstein" stroke="none" stroke-width="1" fill="none" fill-rule="evenodd">
        <g id="liechtenstein" fill-rule="nonzero">
            <path d="M24,12 C24,18.627375 18.627375,24 12,24 C5.372625,24 0,18.627375 0,12 C0.52171875,12 12,10.4347969 12,10.4347969 L24,12 Z" id="Path" fill="#D80027"></path>
            <path d="M0,12 C0,5.372625 5.372625,0 12,0 C18.627375,0 24,5.372625 24,12" id="Path" fill="#0052B4"></path>
            <path d="M8.86954688,8.34782812 C8.86954688,7.48340625 8.16876563,6.782625 7.30434375,6.782625 C6.90332813,6.782625 6.53784375,6.9335625 6.26085938,7.18148438 L6.26085938,6.26085938 L6.78257813,6.26085938 L6.78257813,5.217375 L6.26085938,5.217375 L6.26085938,4.69565625 L5.217375,4.69565625 L5.217375,5.217375 L4.69565625,5.217375 L4.69565625,6.26085938 L5.217375,6.26085938 L5.217375,7.18148438 C4.94039063,6.9335625 4.57490625,6.782625 4.17389063,6.782625 C3.30946875,6.782625 2.6086875,7.48340625 2.6086875,8.34782812 C2.6086875,8.81128125 2.81029688,9.22753125 3.13040625,9.51417187 L3.13040625,10.4347969 L8.34778125,10.4347969 L8.34778125,9.51417188 C8.66798437,9.22753125 8.86954688,8.81128125 8.86954688,8.34782812 Z" id="Path" fill="#FFDA44"></path>
        </g>
    </g>
</svg>