<?xml version="1.0" encoding="UTF-8"?>
<svg width="24px" height="24px" viewBox="0 0 24 24" version="1.1" xmlns="http://www.w3.org/2000/svg" xmlns:xlink="http://www.w3.org/1999/xlink">
    <title>Assets/Flags/mauritius</title>
    <g id="Assets/Flags/mauritius" stroke="none" stroke-width="1" fill="none" fill-rule="evenodd">
        <g id="mauritius" fill-rule="nonzero">
            <path d="M1.45907813,6.26085937 L12,7.30434375 L22.5409219,6.26085937 C20.5056563,2.53073437 16.5485156,0 12,0 C7.45148437,0 3.49434375,2.53073437 1.45907813,6.26085937 Z" id="Path" fill="#D80027"></path>
            <path d="M1.45907813,17.7391406 L12,18.782625 L22.5409219,17.7391406 C23.4711094,16.03425 24,14.0789062 24,12 L12,10.9565156 L0,12 C0,14.0789062 0.528890625,16.03425 1.45907813,17.7391406 Z" id="Path" fill="#FFDA44"></path>
            <path d="M1.45907813,6.26085937 C0.528890625,7.96575 0,9.92109375 0,12 L24,12 C24,9.92109375 23.4711094,7.96575 22.5409219,6.26085937 L12,6.26085937 L1.45907813,6.26085937 Z" id="Path" fill="#0052B4"></path>
            <path d="M12,24 C16.5485156,24 20.5056563,21.4692656 22.5409219,17.7391406 L1.45907813,17.7391406 C3.49434375,21.4692656 7.45148437,24 12,24 Z" id="Path" fill="#6DA544"></path>
        </g>
    </g>
</svg>