<?xml version="1.0" encoding="UTF-8"?>
<svg width="24px" height="24px" viewBox="0 0 24 24" version="1.1" xmlns="http://www.w3.org/2000/svg" xmlns:xlink="http://www.w3.org/1999/xlink">
    <title>Assets/Flags/mexico</title>
    <g id="Assets/Flags/mexico" stroke="none" stroke-width="1" fill="none" fill-rule="evenodd">
        <g id="mexico" fill-rule="nonzero">
            <circle id="Oval" stroke-opacity="0.5" stroke="#8F96A1" stroke-width="0.2" fill="#F0F0F0" cx="12" cy="12" r="11.9"></circle>
            <path d="M24,12 C24,7.24246875 21.2313281,3.13171875 17.217375,1.19071875 L17.217375,22.8092344 C21.2313281,20.8682812 24,16.7575313 24,12 Z" id="Path" fill="#D80027"></path>
            <g id="Group" transform="translate(0.000000, 1.171875)" fill="#6DA544">
                <path d="M0,10.828125 C0,15.5856562 2.76867187,19.6964062 6.782625,21.6374062 L6.782625,0.01884375 C2.76867187,1.95984375 0,6.07059375 0,10.828125 Z" id="Path"></path>
                <path d="M8.86954688,10.828125 C8.86954688,12.5570156 10.2711094,13.9585781 12,13.9585781 C13.7288906,13.9585781 15.1304531,12.5570156 15.1304531,10.828125 L15.1304531,9.78464062 L8.86954688,9.78464062 L8.86954688,10.828125 Z" id="Path"></path>
            </g>
            <path d="M16.1738906,9.91303125 L13.0434375,9.91303125 C13.0434375,9.33675 12.5762344,8.86954688 11.9999531,8.86954688 C11.4236719,8.86954688 10.9564688,9.33675 10.9564688,9.91303125 L7.82601563,9.91303125 C7.82601563,10.4893594 8.328,10.9565156 8.90423438,10.9565156 L8.8695,10.9565156 C8.8695,11.5328438 9.33665625,12 9.91298437,12 C9.91298437,12.5763281 10.3801406,13.0434844 10.9564687,13.0434844 L13.0434375,13.0434844 C13.6197656,13.0434844 14.0869219,12.5763281 14.0869219,12 C14.66325,12 15.1304063,11.5328438 15.1304063,10.9565156 L15.095625,10.9565156 C15.6719531,10.9565156 16.1738906,10.4893594 16.1738906,9.91303125 Z" id="Path" fill="#FF9811"></path>
        </g>
    </g>
</svg>