<?xml version="1.0" encoding="UTF-8"?>
<svg width="24px" height="24px" viewBox="0 0 24 24" version="1.1" xmlns="http://www.w3.org/2000/svg" xmlns:xlink="http://www.w3.org/1999/xlink">
    <title>Assets/Flags/norway</title>
    <g id="Assets/Flags/norway" stroke="none" stroke-width="1" fill="none" fill-rule="evenodd">
        <g id="norway" fill-rule="nonzero">
            <circle id="Oval" fill="#F0F0F0" cx="12" cy="12" r="12"></circle>
            <g id="Group" transform="translate(0.375000, 0.000000)" fill="#D80027">
                <path d="M0.038390625,15.1304531 C0.732703125,17.7066563 2.2629375,19.9395 4.32065625,21.5205469 L4.32065625,15.1304531 L0.038390625,15.1304531 Z" id="Path"></path>
                <path d="M10.5815156,23.9543438 C10.9254844,23.9839688 11.2733437,24 11.625,24 C17.1693281,24 21.8346094,20.2396406 23.2116094,15.1304531 L10.5815156,15.1304531 L10.5815156,23.9543438 Z" id="Path"></path>
                <path d="M23.2116094,8.86954688 C21.8346094,3.76035938 17.1693281,0 11.625,0 C11.2733437,0 10.9254844,0.01603125 10.5815156,0.04565625 L10.5815156,8.86954688 L23.2116094,8.86954688 Z" id="Path"></path>
                <path d="M4.32065625,2.47945313 C2.2629375,4.06054688 0.732703125,6.29334375 0.038390625,8.86954688 L4.32065625,8.86954688 L4.32065625,2.47945313 Z" id="Path"></path>
            </g>
            <path d="M23.8984219,10.4347969 L9.39135938,10.4347969 L9.3913125,10.4347969 L9.3913125,0.285234375 C8.28234375,0.531140625 7.23098437,0.92971875 6.26085937,1.45907813 L6.26085937,10.4347031 L6.26085937,10.43475 L0.101578125,10.43475 C0.03478125,10.9471406 0,11.4695156 0,12 C0,12.5304844 0.03478125,13.0528594 0.101578125,13.5652031 L6.2608125,13.5652031 L6.26085937,13.5652031 L6.26085937,22.540875 C7.23098438,23.0701875 8.28234375,23.4688594 9.3913125,23.7147188 L9.3913125,13.5653438 L9.3913125,13.56525 L23.8984219,13.56525 C23.965125,13.0528594 24,12.5304844 24,12 C24,11.4695156 23.965125,10.9471406 23.8984219,10.4347969 Z" id="Path" fill="#0052B4"></path>
        </g>
    </g>
</svg>