<?xml version="1.0" encoding="UTF-8"?>
<svg width="24px" height="24px" viewBox="0 0 24 24" version="1.1" xmlns="http://www.w3.org/2000/svg" xmlns:xlink="http://www.w3.org/1999/xlink">
    <title>Assets/Flags/portugal</title>
    <g id="Assets/Flags/portugal" stroke="none" stroke-width="1" fill="none" fill-rule="evenodd">
        <g id="portugal" fill-rule="nonzero">
            <path d="M0,12 C0,17.1595313 3.2565,21.5580469 7.82601563,23.2535625 L8.86954688,11.9999531 L7.82601563,0.746390625 C3.2565,2.44195312 0,6.84042188 0,12 Z" id="Path" fill="#6DA544"></path>
            <path d="M24,12 C24,5.372625 18.627375,0 12,0 C10.5321563,0 9.12604688,0.264046875 7.82601563,0.746390625 L7.82601563,23.2536094 C9.12604688,23.736 10.5321563,24 12,24 C18.627375,24 24,18.627375 24,12 Z" id="Path" fill="#D80027"></path>
            <circle id="Oval" fill="#FFDA44" cx="7.82610937" cy="12" r="4.17389063"></circle>
            <path d="M5.47828125,9.91303125 L5.47828125,12.5217187 C5.47828125,13.818375 6.52940625,14.8695469 7.82610938,14.8695469 C9.1228125,14.8695469 10.1739375,13.8184219 10.1739375,12.5217187 L10.1739375,9.91303125 L5.47828125,9.91303125 Z" id="Path" fill="#D80027"></path>
            <path d="M7.82610938,13.3043438 C7.39457813,13.3043438 7.04348438,12.95325 7.04348438,12.5217187 L7.04348438,11.4782813 L8.6086875,11.4782813 L8.6086875,12.5217656 C8.6086875,12.95325 8.25759375,13.3043438 7.82610938,13.3043438 Z" id="Path" fill="#F0F0F0"></path>
        </g>
    </g>
</svg>