<?xml version="1.0" encoding="UTF-8"?>
<svg width="24px" height="24px" viewBox="0 0 24 24" version="1.1" xmlns="http://www.w3.org/2000/svg" xmlns:xlink="http://www.w3.org/1999/xlink">
    <title>Assets/Flags/romania</title>
    <g id="Assets/Flags/romania" stroke="none" stroke-width="1" fill="none" fill-rule="evenodd">
        <g id="romania" fill-rule="nonzero">
            <path d="M16.1738906,0.74634375 C14.8738594,0.264046875 13.4678438,0 12,0 C10.5321562,0 9.12609375,0.264046875 7.82610937,0.74634375 L6.782625,11.9999531 L7.82610937,23.2535625 C9.12604687,23.736 10.5321094,24 12,24 C13.4677969,24 14.8739062,23.736 16.1738906,23.2535625 L17.2173281,12 L16.1738906,0.74634375 Z" id="Path" fill="#FFDA44"></path>
            <path d="M24,12 C24,6.84046875 20.7435,2.44185937 16.1738906,0.746390625 L16.1738906,23.2537031 C20.7435,21.5580469 24,17.159625 24,12 Z" id="Path" fill="#D80027"></path>
            <path d="M0,11.9999531 C0,17.159625 3.2565,21.5580469 7.8260625,23.2536562 L7.8260625,0.7464375 C3.2565,2.44190625 0,6.840375 0,11.9999531 Z" id="Path" fill="#0052B4"></path>
        </g>
    </g>
</svg>