<?xml version="1.0" encoding="UTF-8"?>
<svg width="24px" height="24px" viewBox="0 0 24 24" version="1.1" xmlns="http://www.w3.org/2000/svg" xmlns:xlink="http://www.w3.org/1999/xlink">
    <title>Assets/Flags/seychelles</title>
    <g id="Assets/Flags/seychelles" stroke="none" stroke-width="1" fill="none" fill-rule="evenodd">
        <g id="seychelles" fill-rule="nonzero">
            <circle id="Oval" fill="#F0F0F0" cx="12" cy="12" r="12"></circle>
            <path d="M20.1004219,3.14704688 C17.9657344,1.19273438 15.12225,0 12,0 C11.488875,0 10.9852031,0.032203125 10.4908594,0.09421875 L4.69565625,6.782625 L0.379734375,15.0061406 C0.658546875,16.087125 1.08482813,17.1087187 1.6348125,18.049125 L12,12 L20.1004219,3.14704688 Z" id="Path" fill="#FFDA44"></path>
            <path d="M21.9905156,18.6486562 L5.20139063,21.8886563 C7.134,23.2199531 9.47578125,24 12,24 C16.1681719,24 19.839375,21.8745469 21.9905156,18.6486562 Z" id="Path" fill="#6DA544"></path>
            <path d="M20.1021094,3.14864063 L1.64165625,18.06075 C2.12451563,18.88425 2.702625,19.6450781 3.36107813,20.328 L24,12 C24,8.49567188 22.4976094,5.34248438 20.1021094,3.14864063 Z" id="Path" fill="#D80027"></path>
            <path d="M0,12 C0,13.0381406 0.13190625,14.0454375 0.379734375,15.0061406 L10.4908594,0.09421875 C4.57584375,0.8364375 0,5.88375 0,12 Z" id="Path" fill="#0052B4"></path>
        </g>
    </g>
</svg>