<?xml version="1.0" encoding="UTF-8"?>
<svg width="24px" height="24px" viewBox="0 0 24 24" version="1.1" xmlns="http://www.w3.org/2000/svg" xmlns:xlink="http://www.w3.org/1999/xlink">
    <title>Assets/Flags/singapore</title>
    <g id="Assets/Flags/singapore" stroke="none" stroke-width="1" fill="none" fill-rule="evenodd">
        <g id="singapore" fill-rule="nonzero">
            <circle id="Oval" fill="#F0F0F0" cx="12" cy="12" r="12"></circle>
            <path d="M0,12.0000469 C0,5.372625 5.372625,0 12,0 C18.627375,0 24,5.372625 24,12.0000469" id="Path" fill="#D80027"></path>
            <g id="Group" transform="translate(5.718750, 2.578125)" fill="#F0F0F0">
                <path d="M1.58559375,3.6826875 C1.58559375,1.93434375 2.81432812,0.4738125 4.45514063,0.115453125 C4.20295313,0.060421875 3.94134375,0.0305625 3.67251563,0.0305625 C1.6554375,0.0305625 0.02034375,1.66565625 0.02034375,3.68273437 C0.02034375,5.6998125 1.6554375,7.33490625 3.67251563,7.33490625 C3.94125,7.33490625 4.20290625,7.30504687 4.45514063,7.24996875 C2.81432812,6.89160937 1.58559375,5.43107812 1.58559375,3.6826875 Z" id="Path"></path>
                <polygon id="Path" points="6.28125 0.291421875 6.54028125 1.08853125 7.37845312 1.08853125 6.7003125 1.58123437 6.95934375 2.37834375 6.28125 1.88573437 5.60315625 2.37834375 5.8621875 1.58123437 5.18409375 1.08853125 6.02221875 1.08853125"></polygon>
                <polygon id="Path" points="4.24804688 1.856625 4.50703125 2.65378125 5.34520313 2.65378125 4.66710938 3.1464375 4.92614063 3.94354687 4.24804688 3.4509375 3.56985938 3.94354687 3.8289375 3.1464375 3.15079688 2.65378125 3.98896875 2.65378125"></polygon>
                <polygon id="Path" points="8.3145 1.856625 8.57357812 2.65378125 9.41170312 2.65378125 8.7335625 3.1464375 8.99264062 3.94354687 8.3145 3.4509375 7.63640625 3.94354687 7.8954375 3.1464375 7.21734375 2.65378125 8.05546875 2.65378125"></polygon>
                <polygon id="Path" points="7.53192188 4.20445312 7.79095313 5.00160938 8.62907813 5.00160938 7.95098438 5.49426563 8.21001563 6.291375 7.53192188 5.79876562 6.85382813 6.291375 7.11285938 5.49426563 6.43476563 5.00160938 7.27284375 5.00160938"></polygon>
                <polygon id="Path" points="5.030625 4.20445312 5.28960938 5.00160938 6.12782813 5.00160938 5.4496875 5.49426563 5.70876563 6.291375 5.030625 5.79876562 4.35248438 6.291375 4.61151563 5.49426563 3.93342188 5.00160938 4.77159375 5.00160938"></polygon>
            </g>
        </g>
    </g>
</svg>