<?xml version="1.0" encoding="UTF-8"?>
<svg width="24px" height="24px" viewBox="0 0 24 24" version="1.1" xmlns="http://www.w3.org/2000/svg" xmlns:xlink="http://www.w3.org/1999/xlink">
    <title>Assets/Flags/slovakia</title>
    <g id="Assets/Flags/slovakia" stroke="none" stroke-width="1" fill="none" fill-rule="evenodd">
        <g id="slovakia" fill-rule="nonzero">
            <circle id="Oval" fill="#F0F0F0" cx="12" cy="12" r="12"></circle>
            <path d="M12,24 C18.627375,24 24,18.627375 24,12 C24,10.5321562 23.736,9.12604688 23.2536094,7.82610937 L0.746390625,7.82610937 C0.264046875,9.12604688 0,10.5321562 0,12 C0,18.627375 5.372625,24 12,24 Z" id="Path" fill="#0052B4"></path>
            <path d="M12,24 C17.1595781,24 21.5580937,20.7435 23.2536094,16.1738906 L0.746390625,16.1738906 C2.44190625,20.7435 6.84042188,24 12,24 Z" id="Path" fill="#D80027"></path>
            <path d="M3.10303125,6.782625 L3.10303125,12.7688437 C3.10303125,16.1740312 7.55151563,17.2174219 7.55151563,17.2174219 C7.55151563,17.2174219 11.9999531,16.1740312 11.9999531,12.7688437 L11.9999531,6.782625 L3.10303125,6.782625 Z" id="Path" fill="#F0F0F0"></path>
            <path d="M4.14651563,6.782625 L4.14651563,12.7688437 C4.14651563,13.1685937 4.23529688,13.546125 4.41117188,13.9000781 C6.15651563,13.9000781 8.76520313,13.9000781 10.6918125,13.9000781 C10.8676875,13.5461719 10.9564688,13.1685937 10.9564688,12.7688437 L10.9564688,6.782625 L4.14651563,6.782625 Z" id="Path" fill="#D80027"></path>
            <polygon id="Path" fill="#F0F0F0" points="9.6384375 10.9565156 8.07328125 10.9565156 8.07328125 9.91303125 9.11676563 9.91303125 9.11676563 8.86954688 8.07328125 8.86954688 8.07328125 7.82610937 7.02979687 7.82610937 7.02979687 8.86954688 5.98635938 8.86954688 5.98635938 9.91303125 7.02979687 9.91303125 7.02979687 10.9565156 5.46454687 10.9565156 5.46454687 12 7.02979687 12 7.02979687 13.0434844 8.07328125 13.0434844 8.07328125 12 9.6384375 12"></polygon>
            <path d="M5.83457813,15.3567187 C6.507,15.7792969 7.19784375,16.0246406 7.55151563,16.1337656 C7.9051875,16.0246875 8.59603125,15.7792969 9.26845313,15.3567187 C9.94654687,14.9305313 10.4219062,14.443125 10.6918125,13.9000781 C10.3941094,13.6894687 10.030875,13.56525 9.63848438,13.56525 C9.49560938,13.56525 9.3568125,13.5821719 9.22335938,13.61325 C8.9405625,12.9706875 8.29860937,12.5217656 7.5515625,12.5217656 C6.80451563,12.5217656 6.16251562,12.9706875 5.87976563,13.61325 C5.7463125,13.5821719 5.60746875,13.56525 5.46464063,13.56525 C5.07225,13.56525 4.70901563,13.6894687 4.4113125,13.9000781 C4.68107812,14.4430781 5.1564375,14.9304844 5.83457813,15.3567187 Z" id="Path" fill="#0052B4"></path>
        </g>
    </g>
</svg>