<?xml version="1.0" encoding="UTF-8"?>
<svg width="24px" height="24px" viewBox="0 0 24 24" version="1.1" xmlns="http://www.w3.org/2000/svg" xmlns:xlink="http://www.w3.org/1999/xlink">
    <title>Assets/Flags/slovenia</title>
    <g id="Assets/Flags/slovenia" stroke="none" stroke-width="1" fill="none" fill-rule="evenodd">
        <g id="slovenia" fill-rule="nonzero">
            <circle id="Oval" fill="#F0F0F0" cx="12" cy="12" r="12"></circle>
            <path d="M23.2536094,7.82610938 L10.4347969,7.82610938 L10.4347969,4.69565625 L4.17389063,4.69565625 L4.17389063,7.82610938 L0.746390625,7.82610938 C0.264046875,9.12604688 0,10.5321562 0,12 C0,13.4678438 0.264046875,14.8739063 0.746390625,16.1738906 L12,17.217375 L23.2536094,16.1738906 C23.7359531,14.8739063 24,13.4678438 24,12 C24,10.5321562 23.7359531,9.12604688 23.2536094,7.82610938 Z" id="Path" fill="#0052B4"></path>
            <path d="M12,24 C17.1595781,24 21.5580937,20.7435 23.2536094,16.1738906 L0.746390625,16.1738906 C2.44190625,20.7435 6.84042188,24 12,24 Z" id="Path" fill="#D80027"></path>
            <path d="M4.17389063,7.82610937 L4.17389063,8.86954687 C4.17389063,11.2658438 7.30434375,12.0000469 7.30434375,12.0000469 C7.30434375,12.0000469 10.4347969,11.2658438 10.4347969,8.86954687 L10.4347969,7.82610937 L9.3913125,8.86959375 L7.30434375,7.30439062 L5.217375,8.86959375 L4.17389063,7.82610937 Z" id="Path" fill="#F0F0F0"></path>
        </g>
    </g>
</svg>