<?xml version="1.0" encoding="UTF-8"?>
<svg width="24px" height="24px" viewBox="0 0 24 24" version="1.1" xmlns="http://www.w3.org/2000/svg" xmlns:xlink="http://www.w3.org/1999/xlink">
    <title>Assets/Flags/spain</title>
    <g id="Assets/Flags/spain" stroke="none" stroke-width="1" fill="none" fill-rule="evenodd">
        <g id="spain" fill-rule="nonzero">
            <path d="M0,12 C0,13.4678438 0.264046875,14.8739063 0.746390625,16.1738906 L12,17.217375 L23.2536094,16.1738906 C23.7359531,14.8739063 24,13.4678438 24,12 C24,10.5321562 23.7359531,9.12609375 23.2536094,7.82610937 L12,6.782625 L0.746390625,7.82610937 C0.264046875,9.12609375 0,10.5321562 0,12 Z" id="Path" fill="#FFDA44"></path>
            <g id="Group" transform="translate(0.703125, 0.000000)" fill="#D80027">
                <path d="M22.5504844,7.82610937 C20.8549687,3.25654688 16.4564531,0 11.296875,0 C6.13729687,0 1.73878125,3.25654688 0.043265625,7.82610937 L22.5504844,7.82610937 Z" id="Path"></path>
                <path d="M0.043265625,16.1738906 C1.73878125,20.7434531 6.13729688,24 11.296875,24 C16.4564531,24 20.8549687,20.7434531 22.5504844,16.1738906 L0.043265625,16.1738906 Z" id="Path"></path>
            </g>
        </g>
    </g>
</svg>