<?xml version="1.0" encoding="UTF-8"?>
<svg width="24px" height="24px" viewBox="0 0 24 24" version="1.1" xmlns="http://www.w3.org/2000/svg" xmlns:xlink="http://www.w3.org/1999/xlink">
    <title>Assets/Flags/taiwan</title>
    <g id="Assets/Flags/taiwan" stroke="none" stroke-width="1" fill="none" fill-rule="evenodd">
        <g id="taiwan" fill-rule="nonzero">
            <path d="M24,12 C24,18.627375 18.627375,24 12,24 C5.372625,24 0,18.627375 0,12 C4.12171875,7.87828125 7.617375,4.382625 12,0 C18.627375,0 24,5.372625 24,12 Z" id="Path" fill="#D80027"></path>
            <path d="M12,12 C12,5.372625 12,4.5913125 12,0 C5.372625,0 0,5.372625 0,12 L12,12 Z" id="Path" fill="#0052B4"></path>
            <polygon id="Path" fill="#F0F0F0" points="10.4347969 7.02285937 8.96925 7.71229687 9.749625 9.131625 8.15826562 8.827125 7.9565625 10.4347969 6.84815625 9.25242187 5.73965625 10.4347969 5.53804687 8.827125 3.94664062 9.13153125 4.72701562 7.71220313 3.26151562 7.02285937 4.7270625 6.3335625 3.94664062 4.9141875 5.538 5.21864062 5.73970312 3.61101562 6.84815625 4.79339062 7.95660937 3.61101562 8.15826562 5.21864062 9.74967187 4.9141875 8.96925 6.33360937"></polygon>
            <circle id="Oval" fill="#0052B4" cx="6.84834375" cy="7.022625" r="2.23373438"></circle>
            <path d="M6.84815625,8.21310938 C6.19185937,8.21310938 5.65795313,7.67915625 5.65795313,7.02285938 C5.65795313,6.3665625 6.19190625,5.83260938 6.84815625,5.83260938 C7.50445313,5.83260938 8.03840625,6.3665625 8.03840625,7.02285938 C8.03835938,7.67915625 7.50435937,8.21310938 6.84815625,8.21310938 Z" id="Path" fill="#F0F0F0"></path>
        </g>
    </g>
</svg>