<?xml version="1.0" encoding="UTF-8"?>
<svg width="24px" height="24px" viewBox="0 0 24 24" version="1.1" xmlns="http://www.w3.org/2000/svg" xmlns:xlink="http://www.w3.org/1999/xlink">
    <title>Assets/Flags/united-kingdom</title>
    <defs>
        <circle id="path-1" cx="12" cy="12" r="12"></circle>
    </defs>
    <g id="Assets/Flags/united-kingdom" stroke="none" stroke-width="1" fill="none" fill-rule="evenodd">
        <g id="Group-12">
            <mask id="mask-2" fill="white">
                <use xlink:href="#path-1"></use>
            </mask>
            <use id="Oval-Copy" fill="#FFFFFF" fill-rule="nonzero" xlink:href="#path-1"></use>
            <path d="M15.4905263,0.515556954 C17.6950735,1.18472445 19.6310311,2.47127599 21.0971312,4.17394365 L15.49,7.538 L15.4905263,0.515556954 Z" id="Path" fill="#3F51B5" fill-rule="nonzero" mask="url(#mask-2)"></path>
            <path d="M8.50856887,0.515831636 L8.509,7.017 L3.20737037,3.8335514 C4.63240795,2.29994786 6.45380241,1.13971299 8.50856887,0.515831636 Z" id="Path" fill="#3F51B5" fill-rule="nonzero" mask="url(#mask-2)"></path>
            <path d="M24,12 C24,12.4367124 23.9766716,12.8679762 23.9311929,13.2926132 L23.8783744,13.7149976 L23.8783744,13.7149976 L13.746,13.715 L13.7460098,23.8738952 C13.1760209,23.9569816 12.5930342,24 12,24 C11.4069658,24 10.8239791,23.9569816 10.2539902,23.8738952 L10.255,13.715 L0.121625605,13.7149976 C0.0414727804,13.15488 0,12.5822833 0,12 C0,11.4177167 0.0414727804,10.84512 0.121625605,10.2850024 L10.254,10.285 L10.2539902,0.126104819 C10.8239791,0.043018373 11.4069658,5.32907052e-15 12,5.32907052e-15 C12.5930342,5.32907052e-15 13.1760209,0.043018373 13.7460098,0.126104819 L13.745,10.285 L23.8783744,10.2850024 C23.9585272,10.84512 24,11.4177167 24,12 Z" id="Combined-Shape" fill="#E53935" fill-rule="nonzero" mask="url(#mask-2)"></path>
            <path d="M1.65492955,5.91515852 L6.08181818,8.57142857 L2.73409135,8.57142857 L0.887333342,7.46297956 C1.05176928,7.0606376 1.23742053,6.66921769 1.44289665,6.29011027 L1.65492955,5.91515852 Z" id="Path" fill="#E53935" fill-rule="nonzero" mask="url(#mask-2)"></path>
            <path d="M21.6399176,4.85226762 C21.9819413,5.31278682 22.2917472,5.79866164 22.5660014,6.30655801 L18.7909091,8.57142857 L15.4431823,8.57142857 L21.6399176,4.85226762 Z" id="Path" fill="#E53935" fill-rule="nonzero" mask="url(#mask-2)"></path>
            <path d="M2.90339511,16.462 C5.10794229,17.1311675 7.0438999,18.417719 8.51,20.1203867 L2.90286878,23.484443 L2.90339511,16.462 Z" id="Path" fill="#3F51B5" fill-rule="nonzero" mask="url(#mask-2)" transform="translate(5.706434, 19.973222) scale(-1, -1) translate(-5.706434, -19.973222) "></path>
            <path d="M20.7921985,16.983 L20.7926296,23.4841684 L15.491,20.3007198 C16.9160376,18.7671162 18.737432,17.6068814 20.7921985,16.983 Z" id="Path" fill="#3F51B5" fill-rule="nonzero" mask="url(#mask-2)" transform="translate(18.141815, 20.233584) scale(-1, -1) translate(-18.141815, -20.233584) "></path>
            <path d="M18.685778,15.4285714 L23.1126667,18.0848415 L19.7649398,18.0848415 L17.9181818,16.9763925 C18.0826178,16.5740505 18.268269,16.1826306 18.4737451,15.8035232 L18.685778,15.4285714 Z" id="Path" fill="#E53935" fill-rule="nonzero" mask="url(#mask-2)" transform="translate(20.515424, 16.756706) scale(-1, -1) translate(-20.515424, -16.756706) "></path>
            <path d="M7.63073397,15.4285714 C7.97275763,15.8890906 8.28256358,16.3749655 8.55681775,16.8828618 L4.78172543,19.1477324 L1.43399859,19.1477324 L7.63073397,15.4285714 Z" id="Path" fill="#E53935" fill-rule="nonzero" mask="url(#mask-2)" transform="translate(4.995408, 17.288152) scale(-1, -1) translate(-4.995408, -17.288152) "></path>
        </g>
    </g>
</svg>